<svg width="40" height="40" viewBox="0 0 40 40" fill="none" xmlns="http://www.w3.org/2000/svg">
<g clip-path="url(#clip0_560_2)">
<path d="M0 0H40V40H0V0Z" fill="#232222"/>
<g clip-path="url(#clip1_560_2)">
<path fill-rule="evenodd" clip-rule="evenodd" d="M16.5978 25.4223L13.0963 18.4249H12.4357L9 25.4223V11.2568C9 10.0154 10.0003 9 11.2232 9H28.8427C30.0342 9 31 9.98037 31 11.1899V19.2504C29.9203 18.356 28.9953 18.2446 28.203 18.2446C25.869 18.2446 23.9311 19.9443 23.9311 22.6265C23.9311 23.7671 24.2834 24.6616 24.9001 25.4212H23.3364C23.513 25.1316 23.6447 24.7061 23.6447 24.2817C23.6447 23.1411 23.05 22.583 22.7197 22.3369C23.0949 21.8891 23.2486 21.5316 23.2486 20.8164C23.2486 19.2302 22.126 18.4249 20.694 18.4249H16.8183V25.4223H16.5978ZM25.7299 12.635C25.5449 12.7422 25.3997 12.8918 25.2951 13.0817H25.2941C25.1896 13.2727 25.1373 13.4838 25.1373 13.7162C25.1373 13.9634 25.1875 14.1798 25.2868 14.3666C25.3871 14.5533 25.5282 14.6976 25.7132 14.7995C25.8972 14.9013 26.1219 14.9523 26.355 14.9523C26.5881 14.9523 26.7971 14.8992 26.9821 14.792C27.1672 14.6849 27.3114 14.5374 27.4159 14.3485C27.5204 14.1597 27.5727 13.9602 27.5727 13.713C27.5727 13.4658 27.5225 13.2483 27.4232 13.0605C27.3229 12.8727 27.1818 12.7284 26.9968 12.6265C26.8128 12.5247 26.5985 12.4737 26.355 12.4737C26.124 12.4737 25.916 12.5268 25.7299 12.635ZM22.8754 12.6329C22.6841 12.7401 22.5336 12.8886 22.4239 13.0785L22.4218 13.0775C22.3121 13.2674 22.2577 13.4828 22.2577 13.7225C22.2577 13.9772 22.3058 14.1957 22.402 14.3804C22.4981 14.5639 22.635 14.705 22.8138 14.8037C22.9925 14.9024 23.2015 14.9512 23.443 14.9512C23.5883 14.9512 23.7262 14.9374 23.8579 14.9109C23.9896 14.8843 24.1036 14.8472 24.1997 14.8016V14.3761C24.1015 14.4196 24.0022 14.4525 23.9008 14.4727C23.7994 14.4928 23.6844 14.5034 23.5538 14.5034C23.3886 14.5034 23.2496 14.4716 23.1367 14.4069C23.0239 14.3433 22.9392 14.252 22.8828 14.1342C22.8263 14.0175 22.7981 13.8753 22.7981 13.7183C22.7981 13.5613 22.8305 13.4212 22.8942 13.3003C22.958 13.1793 23.05 13.086 23.1723 13.0191C23.2946 12.9523 23.4388 12.9194 23.606 12.9194C23.7168 12.9194 23.8151 12.9289 23.9029 12.948C23.9907 12.9682 24.0816 12.9979 24.1778 13.0393V12.6106C24.0847 12.5629 23.9844 12.5278 23.8788 12.5056C23.7733 12.4833 23.6541 12.4727 23.5214 12.4727C23.282 12.4727 23.0678 12.5257 22.8754 12.6329ZM19.4147 12.5247H18.914V14.9024H19.3896V13.296L20.5738 14.9024H21.0828V12.5247H20.6031V14.1533L19.4147 12.5247ZM16.9511 12.5247H16.3281L15.3613 14.9024H15.9037L16.1212 14.3061H17.1058L17.32 14.9024H17.8845L16.9511 12.5247ZM12.8841 12.5066C12.744 12.5141 12.6092 12.5257 12.4817 12.5427V12.5459V14.9045H13.4265C13.7903 14.9045 14.0558 14.8483 14.223 14.7369C14.3902 14.6255 14.4739 14.4493 14.4739 14.2096C14.4739 14.095 14.4425 13.991 14.3798 13.8965C14.3171 13.8021 14.2293 13.7257 14.1164 13.6674C14.1927 13.6069 14.2502 13.5358 14.2878 13.4562C14.3265 13.3756 14.3453 13.2865 14.3453 13.1867C14.3453 12.9512 14.2606 12.7772 14.0913 12.6647C13.922 12.5522 13.6565 12.496 13.298 12.496C13.1621 12.496 13.0241 12.4992 12.8841 12.5066ZM28.2029 19.6769C28.7538 19.6769 29.2607 19.6992 30.2736 20.4366V20.4377L31 19.5209V25.1348L30.2736 24.4833C29.6119 25.1984 28.9514 25.4223 28.2029 25.4223C26.5724 25.4223 25.4498 24.2594 25.4498 22.6276C25.4498 20.8844 26.5734 19.6769 28.2029 19.6769ZM18.2712 22.2477V19.8562H20.5174C21.3766 19.8562 21.7946 20.147 21.7946 20.8398C21.7946 21.5326 21.3766 21.8234 20.5174 21.8234C19.4826 21.8234 18.7781 21.8234 18.2712 22.2477ZM11.8524 28.7188C12.1221 28.5363 12.2339 28.217 12.2339 27.921C12.2339 26.9172 11.38 26.7125 10.4372 26.7125C9.85291 26.7125 9.4714 26.7358 9 26.8037V30.9077H10.617C11.5828 30.9077 12.5036 30.7029 12.5036 29.6536C12.5036 29.2663 12.212 28.9236 11.8524 28.7188ZM9.94996 27.406C10.1346 27.3885 10.294 27.3735 10.4382 27.3735C10.9096 27.3735 11.449 27.4424 11.449 27.9432C11.449 28.444 10.6849 28.4674 10.2585 28.4674H9.80901V27.4191C9.85747 27.4147 9.90423 27.4103 9.94946 27.406L9.94996 27.406ZM10.4821 30.2467H9.80796V29.1294H10.2574C10.7738 29.1294 10.9765 29.0838 11.2232 29.0159C11.4249 29.1294 11.6497 29.2896 11.6497 29.6546C11.6497 30.2477 10.9305 30.2477 10.4821 30.2477V30.2467ZM29.1782 26.8027H28.3556V30.9077H31V30.2085H29.1782V26.8027ZM14.7258 26.7125C15.8714 26.7125 16.6803 26.9862 16.6803 28.0578L16.6793 28.0557C16.6793 28.5809 16.4326 28.9682 15.9383 29.1963L16.8821 30.9066H16.0062L15.1533 29.4021C15.1331 29.4021 15.0543 29.4068 14.9673 29.412C14.8605 29.4184 14.7413 29.4255 14.7038 29.4255H14.1195V30.9077H13.2886V26.8037C13.76 26.7347 14.1415 26.7125 14.7258 26.7125ZM14.1195 28.7645H14.6129C15.2421 28.7645 15.8484 28.6965 15.8484 28.0578C15.8484 27.5104 15.3769 27.3735 14.7258 27.3735C14.569 27.3735 14.3442 27.3957 14.1195 27.4191V28.7645ZM27.1776 26.8027H26.378V30.9077H27.1776V26.8027ZM23.3761 28.391L24.2468 28.5268L24.2478 28.5289C25.0965 28.6647 25.4321 29.0053 25.4321 29.7077C25.4321 30.5469 24.8739 31 23.6228 31C23.1096 31 22.4615 30.8642 22.0372 30.6371V29.9348C22.5065 30.1618 23.0646 30.2976 23.6228 30.2976C24.091 30.2976 24.6722 30.252 24.6722 29.7533C24.6722 29.4583 24.5154 29.2992 24.091 29.2313L23.0636 29.0721C22.3716 28.9586 22.0142 28.5724 22.0142 27.9379C22.0142 27.0764 22.9078 26.7135 23.8235 26.7135C24.3147 26.7135 24.8279 26.8048 25.2303 27.0085V27.7342C24.784 27.5294 24.3147 27.3937 23.8235 27.3937C23.3761 27.3937 22.8179 27.4849 22.8179 27.9379C22.8179 28.1873 22.9967 28.3231 23.3761 28.391ZM18.9109 26.8027L17.2437 30.9077H18.0663L18.3548 30.2085C18.6663 30.0281 19.0436 29.9836 19.422 29.9836C19.7774 29.9836 20.1558 30.0281 20.4662 30.2085L20.7547 30.9077H21.5773L19.9101 26.8027H18.9109ZM19.422 29.3067C19.1335 29.3067 18.8659 29.3745 18.6663 29.4424L19.422 27.6377L20.1558 29.4424C19.9561 29.3745 19.6885 29.3067 19.422 29.3067ZM12.7879 20.9958L10.872 24.9077C11.334 24.6838 12.0395 24.5279 12.7879 24.5279C13.5363 24.5279 14.2638 24.7072 14.7258 24.93L12.7879 20.9958ZM20.3198 23.1645C19.6153 23.1645 18.2722 23.2759 18.2722 24.1926V25.4223H20.8268C21.179 25.4223 22.148 25.3109 22.148 24.2827C22.148 23.2547 21.3107 23.1645 20.3198 23.1645ZM13.9021 14.3485C13.944 14.2997 13.9649 14.235 13.9649 14.1523C13.9649 14.0822 13.9429 14.0207 13.898 13.9687C13.8541 13.9167 13.7945 13.8721 13.7213 13.8361C13.576 13.87 13.413 13.887 13.2301 13.887H12.9761V14.4865H13.3408C13.4934 14.4865 13.6147 14.4759 13.7046 14.4536C13.7945 14.4313 13.8603 14.3963 13.9021 14.3485ZM26.3519 14.5056C26.2139 14.5056 26.0948 14.4737 25.9923 14.409V14.4101C25.8899 14.3453 25.8125 14.2541 25.7582 14.1353C25.7038 14.0164 25.6767 13.8774 25.6767 13.7172C25.6767 13.5666 25.7059 13.4308 25.7634 13.3098C25.8209 13.1889 25.9014 13.0934 26.0049 13.0244C26.1083 12.9554 26.2264 12.9204 26.3592 12.9204C26.4992 12.9204 26.6195 12.9523 26.7208 13.017C26.8212 13.0817 26.8985 13.173 26.9529 13.2918C27.0072 13.4106 27.0344 13.5507 27.0344 13.713C27.0344 13.8647 27.0051 14.0016 26.9476 14.1215C26.8902 14.2414 26.8097 14.3358 26.7062 14.4037C26.6027 14.4716 26.4898 14.5056 26.3519 14.5056ZM13.5718 13.4838C13.6638 13.4669 13.7338 13.4361 13.7798 13.3915C13.8269 13.347 13.8499 13.2854 13.8499 13.2079C13.8499 13.0944 13.8028 13.0149 13.7077 12.9703C13.6126 12.9257 13.483 12.9035 13.3189 12.9035C13.2008 12.9035 13.0868 12.9087 12.9761 12.9183V13.5114H13.2165C13.3617 13.5114 13.4799 13.5029 13.5729 13.4859L13.5718 13.4838ZM16.2821 13.8838L16.625 12.9607L16.9573 13.8838H16.2821Z" fill="#A6874B"/>
</g>
</g>
<defs>
<clipPath id="clip0_560_2">
<rect width="40" height="40" rx="20" fill="white"/>
</clipPath>
<clipPath id="clip1_560_2">
<rect width="22" height="22" fill="white" transform="translate(9 9)"/>
</clipPath>
</defs>
</svg>
