<svg width="40" height="40" viewBox="0 0 40 40" fill="none" xmlns="http://www.w3.org/2000/svg">
<g clip-path="url(#clip0_344_67)">
<path d="M0 0H40V40H0V0Z" fill="#CF2E2E"/>
<path d="M22.655 22.5321C23.8886 21.9136 23.4086 18.6436 21.5907 19.6307C20.8579 20.0293 20.8372 20.9436 21.0243 21.6071C21.2071 22.2643 21.7386 22.9893 22.655 22.5321ZM22.5 24.2857C21.9424 24.3016 21.3976 24.1171 20.9643 23.7657L20.9193 24.2857H19.2857L19.2407 15.745L21.01 15.7143L21.0243 18.4371L21.1136 18.3836C21.9279 17.8943 22.6764 17.4443 23.8372 18.2171C25.4129 19.2693 25.7414 22.0993 24.0514 23.6807C23.6557 24.0493 23.08 24.2707 22.5 24.2857ZM5.86429 19.4886C7.25215 19.3279 7.58215 21.805 6.51215 22.4964C5.44072 23.1864 4.32429 21.9607 4.75286 20.4036C4.89572 19.8857 5.34858 19.5479 5.86429 19.4886ZM7.03929 18.4514C6.29929 17.6621 4.93572 17.6879 4.03358 18.3571C2.48572 19.5114 2.43001 22.6129 4.07572 23.8079C4.54929 24.1507 4.98572 24.2864 5.40786 24.2857C6.00501 24.2857 6.57144 24.0157 7.16644 23.6871L7.17572 24.2857H8.85858L8.84429 17.8571H7.14286V18.5714C7.14286 18.5714 7.06644 18.4807 7.03929 18.4514ZM11.4286 24.2857V20.5014C11.4286 20 11.8722 19.3336 12.4843 19.5029C13.1543 19.6893 13.1157 20.6543 13.0736 21.7029C13.0343 22.68 12.9922 23.73 13.5207 24.2857H15.2764C14.8057 23.3614 14.8086 23.2429 14.8257 22.4621C14.83 22.2729 14.835 22.0457 14.8343 21.7593C14.8343 21.6629 14.8321 21.5593 14.83 21.4514C14.8136 20.6007 14.7922 19.4893 15.7157 19.4893C16.575 19.4893 16.5336 20.475 16.4872 21.5836C16.4443 22.6093 16.3964 23.7393 17.0564 24.2857H18.8222C18.1536 23.5743 18.2064 22.5629 18.2621 21.4907C18.3021 20.7357 18.3429 19.9507 18.135 19.2193C17.9443 18.5536 17.3743 17.9607 16.5414 17.8779C15.5279 17.7764 15.1964 18.0621 14.7022 18.4886C14.6364 18.545 14.5686 18.6036 14.495 18.6643C14.3979 18.59 14.3129 18.5086 14.2286 18.4286C13.9579 18.17 13.6886 17.9143 13.0229 17.8743C12.225 17.8257 11.7986 18.0807 11.4286 18.5029V17.8571H9.64286V24.2857H11.4286ZM27.3964 20.4629C27.67 18.9793 29.2871 19.0057 29.4943 20.4664L27.3964 20.4629ZM30.9736 22.2086L30.8129 22.2657C29.6414 22.685 27.8286 23.3336 27.3936 21.7471L31.2607 21.6757C31.3364 19.9243 30.8007 18.5864 29.5393 18.085C26.2107 16.7636 24.1657 21.5364 26.6329 23.5657C27.67 24.42 29.6743 24.5821 30.7593 23.6814C30.9321 23.3321 30.9664 22.7236 30.9736 22.2086ZM35.2736 17.8957L37.1393 17.86L37.1429 17.8643L35.09 24.2857H33.1471C32.885 23.8164 31.1257 18.4079 31.0671 17.8607L32.9129 17.8571L34.0743 22.0514L35.2736 17.8957Z" fill="white"/>
</g>
<defs>
<clipPath id="clip0_344_67">
<rect width="40" height="40" rx="20" fill="white"/>
</clipPath>
</defs>
</svg>
