<svg width="40" height="40" viewBox="0 0 40 40" fill="none" xmlns="http://www.w3.org/2000/svg">
<g clip-path="url(#clip0_344_150)">
<path d="M0 0H40V40H0V0Z" fill="#F2F2F7"/>
<path d="M25.7143 22.1429V24.1071C24.3646 25.1508 22.7062 25.7162 21 25.7143V23.5714C23.0429 23.5714 24.4286 22.6857 24.8571 22.1429H25.7143Z" fill="#2CCBEB"/>
<path d="M8.31427 17.9643L6.42856 17.1429C7.35713 14.7143 9.67856 14.2857 10.7714 14.2857C14.1357 14.2857 14.9928 16.7357 15 17.9643V25.7143H12.8571V24.2714C12.0714 25.3071 10.55 25.5714 9.8857 25.6286V23.6786C12.0143 23.6786 12.7428 21.7286 12.8571 20.7929V18.5643C12.8571 18.35 12.7857 16.4286 10.7143 16.4286C9.06427 16.4286 8.44284 17.3786 8.31427 17.9643Z" fill="#314FFC"/>
<path d="M9.28571 25.7143C11.5357 25.7143 12.7428 24.7 13.05 24.1929L12.55 22.0714C11.7714 23.4714 10.0357 23.6429 9.28571 23.5714V25.7143Z" fill="url(#paint0_linear_344_150)"/>
<path d="M9.28572 23.5714V25.7143C6.60001 25.7143 5.78572 23.4643 5.71429 22.3429C5.71429 19.1786 9.58572 18.4857 11.4286 18.5714H24.2857C24.2857 18.5714 24.6357 20.1 25 20.7143H12.1214C9.79287 20.7143 7.90715 20.8214 7.90715 22.1714C7.90715 23.25 8.82144 23.5357 9.28572 23.5714Z" fill="url(#paint1_linear_344_150)"/>
<path d="M25.3286 20.7143H24.9714L23.5429 18.7357C23.5429 16.8286 21.6572 16.4357 20.7143 16.4286V14.2857C25.25 14.2857 25.7143 18.3786 25.7143 19.2143C25.7143 19.8857 25.4572 20.5 25.3286 20.7143Z" fill="url(#paint2_linear_344_150)"/>
<path d="M20.7143 14.2857C20.7214 14.9357 20.7357 16.4 20.7143 16.4286C18.2 16.4286 17.8214 18.55 17.8571 19.6929C17.8571 22.6786 19.9286 23.4786 21.0714 23.5714V25.7143C16.4071 25.7143 15.6786 21.6929 15.7143 19.6929C15.7143 15.4 18.9429 14.3 20.7143 14.2857Z" fill="url(#paint3_linear_344_150)"/>
<path d="M26.5857 22.1429H25.5714L25.4143 23.8429C25.8 24.5214 27.2928 25.7143 30.1643 25.7143C33.0357 25.7143 34.0786 23.7643 34.2357 22.7929C34.4071 21.8214 34.1071 19.7357 31.5428 19.1786C28.3357 18.4714 28.3857 17.6786 28.3857 17.4857C28.3857 17.2857 28.6428 16.4286 30.1714 16.4286C31.3857 16.4286 32.0357 17.3929 32.2071 17.9429L34.1071 17.3286C33.9265 16.433 33.4292 15.6324 32.7064 15.0736C31.9836 14.5147 31.0837 14.235 30.1714 14.2857C26.7428 14.2857 26.1714 16.7143 26.1714 17.4857C26.1714 18.2571 26.5857 20.0857 29.2428 20.6214C31.8857 21.1571 32.1428 22.0643 32.1428 22.3214C32.1428 22.5786 31.9857 23.5714 30.0214 23.5714C28.7377 23.5421 27.5117 23.0324 26.5857 22.1429Z" fill="url(#paint4_linear_344_150)"/>
</g>
<defs>
<linearGradient id="paint0_linear_344_150" x1="9.64285" y1="24.5643" x2="12.85" y2="23.6" gradientUnits="userSpaceOnUse">
<stop stop-color="#675FFD"/>
<stop offset="1" stop-color="#314FFC"/>
</linearGradient>
<linearGradient id="paint1_linear_344_150" x1="9.26429" y1="25.3714" x2="9.18572" y2="21.3214" gradientUnits="userSpaceOnUse">
<stop offset="0.44" stop-color="#675FFD"/>
<stop offset="1" stop-color="#9E6FFF"/>
</linearGradient>
<linearGradient id="paint2_linear_344_150" x1="24.4857" y1="19.9071" x2="22.0429" y2="15.5571" gradientUnits="userSpaceOnUse">
<stop stop-color="#9E6FFF"/>
<stop offset="1" stop-color="#8980FB"/>
</linearGradient>
<linearGradient id="paint3_linear_344_150" x1="18.3214" y1="16.05" x2="19.4214" y2="25.4214" gradientUnits="userSpaceOnUse">
<stop stop-color="#8980FB"/>
<stop offset="0.86" stop-color="#2CCBEB"/>
</linearGradient>
<linearGradient id="paint4_linear_344_150" x1="28.8643" y1="24.0571" x2="30.7214" y2="14.9429" gradientUnits="userSpaceOnUse">
<stop stop-color="#29CEEB"/>
<stop offset="0.27" stop-color="#2BC79F"/>
<stop offset="1" stop-color="#2BBF37"/>
</linearGradient>
<clipPath id="clip0_344_150">
<rect width="40" height="40" rx="20" fill="white"/>
</clipPath>
</defs>
</svg>
