<svg width="40" height="40" viewBox="0 0 40 40" fill="none" xmlns="http://www.w3.org/2000/svg">
<g clip-path="url(#clip0_344_51)">
<path d="M0 0H40V40H0V0Z" fill="#F2F2F7"/>
<path d="M19.5214 20.4286C19.2 15.3786 9.71429 13.4571 5 13.1286C15.7143 12.6643 20.8429 15.3214 21 19.0929C21.1357 22.0786 18.1214 25.9572 16.5929 27.5286C26.4286 22.8214 28.5929 19.6429 28.5929 18.0714C28.5929 16.8214 27.5429 15.9072 27.0214 15.6C30.1643 16.6714 30.7143 18.35 30.7143 19.1C30.7143 22.8572 18.8571 27.9143 12.9 30C18.6143 25.7643 19.6143 21.8072 19.5214 20.4286Z" fill="#00A65E"/>
<path d="M22.5286 18.8571C22.4357 15 17.0071 13.25 14.3071 12.8571C18.5571 13.0929 27.3428 14.4643 27.3428 17.9571C27.3428 20.7214 21.9928 24.1 19.3214 25.45C21.95 22.75 22.5357 19.9571 22.5357 18.8571H22.5286Z" fill="#71BF44"/>
</g>
<defs>
<clipPath id="clip0_344_51">
<rect width="40" height="40" rx="20" fill="white"/>
</clipPath>
</defs>
</svg>
