<svg width="40" height="40" viewBox="0 0 40 40" fill="none" xmlns="http://www.w3.org/2000/svg">
<g clip-path="url(#clip0_444_2)">
<path d="M0 0H40V40H0V0Z" fill="#003366"/>
<path d="M10.5007 29.3653C9.46094 29.1008 8.87158 28.3261 9.02374 27.4244C9.07303 27.133 9.70806 25.7774 10.435 24.4119C14.6555 16.4844 18.0619 10.2075 18.3644 9.80116C19.0775 8.84361 20.2265 8.72935 20.9912 9.53973C21.2246 9.78714 23.5722 13.8742 26.2078 18.6223L31 27.2551L30.1478 26.5322C28.4174 25.0643 26.4483 24.1394 24.3292 23.799C22.8652 23.5638 19.8959 23.6952 18.5727 24.0539C18.0201 24.2037 17.5999 24.2746 17.6389 24.2116C17.6778 24.1485 18.2101 23.72 18.8215 23.2592C20.2579 22.1768 21.7301 21.4758 23.1861 21.1811L24.3502 20.9453L22.1509 16.9946C20.6844 14.3602 19.8357 12.9767 19.6038 12.8421C18.9609 12.4692 18.7086 12.7503 17.226 15.4915C12.6771 23.9014 11.7331 25.7038 11.7331 25.9778C11.7331 26.8558 12.665 26.9193 16.2762 26.287C19.1887 25.7769 22.6039 25.604 24.3133 25.8797C25.511 26.0729 26.8931 26.5169 27.9251 27.0399C29.0856 27.6282 31.1295 29.3675 30.2518 29.0199C28.6903 28.4015 26.637 27.9832 24.6598 27.8806C22.3175 27.759 20.3981 27.9817 14.9767 29.0039C12.8785 29.3996 11.1756 29.5372 10.5007 29.3653Z" fill="white"/>
</g>
<defs>
<clipPath id="clip0_444_2">
<rect width="40" height="40" rx="20" fill="white"/>
</clipPath>
</defs>
</svg>
