<svg width="40" height="40" viewBox="0 0 40 40" fill="none" xmlns="http://www.w3.org/2000/svg">
<g clip-path="url(#clip0_344_195)">
<path d="M0 0H40V40H0V0Z" fill="#004394"/>
<path d="M32.8571 23.2143V17.5143C32.8571 17.3143 33.0143 17.1571 33.2143 17.1571H34.6571C34.8429 17.1571 35 17.3071 35 17.5C35 17.6643 35.0643 17.7143 35.1429 17.7214C35.2643 17.7286 35.3643 17.65 35.4643 17.5928C36.2214 17.1143 36.7357 17.0928 37 17.1786C37.1 17.2143 37.1429 17.3214 37.1429 17.4214V19.0643C35.7214 18.7786 35.1571 19.1857 35 19.4214V23.2143C35 23.309 34.9624 23.3998 34.8954 23.4668C34.8284 23.5338 34.7376 23.5714 34.6429 23.5714H33.2143C33.1196 23.5714 33.0287 23.5338 32.9618 23.4668C32.8948 23.3998 32.8571 23.309 32.8571 23.2143Z" fill="white"/>
<path d="M12.8143 14.2857H11.3857C11.1885 14.2857 11.0286 14.4456 11.0286 14.6429V23.2143C11.0286 23.4115 11.1885 23.5714 11.3857 23.5714H12.8143C13.0115 23.5714 13.1714 23.4115 13.1714 23.2143V14.6429C13.1714 14.4456 13.0115 14.2857 12.8143 14.2857Z" fill="white"/>
<path d="M2.87143 23.1071L5.56429 14.5357C5.58683 14.464 5.63141 14.4013 5.69168 14.3564C5.75196 14.3115 5.82486 14.2868 5.9 14.2857H7.65715C7.73352 14.2852 7.80802 14.3093 7.86973 14.3543C7.93144 14.3993 7.97709 14.4629 8 14.5357L10.7 23.1071C10.7169 23.1608 10.7208 23.2177 10.7116 23.2732C10.7023 23.3287 10.68 23.3812 10.6466 23.4264C10.6132 23.4717 10.5696 23.5084 10.5193 23.5336C10.4689 23.5588 10.4134 23.5718 10.3571 23.5714H8.93572C8.85411 23.5697 8.77525 23.5416 8.71089 23.4914C8.64653 23.4412 8.60012 23.3716 8.57858 23.2929C8.34286 22.5214 7.75 21.3643 6.77143 21.3643C5.79286 21.35 5.2 22.5143 4.95715 23.2929C4.9356 23.3716 4.88919 23.4412 4.82483 23.4914C4.76047 23.5416 4.68161 23.5697 4.6 23.5714H3.21429C3.15803 23.5718 3.10249 23.5588 3.05219 23.5336C3.00188 23.5084 2.95825 23.4717 2.92483 23.4264C2.89141 23.3812 2.86915 23.3287 2.85987 23.2732C2.85059 23.2177 2.85455 23.1608 2.87143 23.1071ZM6.91429 17.6786C6.9071 17.647 6.8894 17.6188 6.86409 17.5986C6.83879 17.5784 6.80738 17.5675 6.775 17.5675C6.74263 17.5675 6.71122 17.5784 6.68592 17.5986C6.66061 17.6188 6.64291 17.647 6.63572 17.6786L5.91429 20.0714C5.90889 20.0923 5.9083 20.1142 5.91255 20.1353C5.91681 20.1565 5.92581 20.1764 5.93887 20.1936C5.95193 20.2108 5.96871 20.2248 5.98796 20.2346C6.00721 20.2443 6.02842 20.2496 6.05 20.25H7.5C7.52219 20.2507 7.54423 20.2462 7.56438 20.2369C7.58454 20.2276 7.60225 20.2138 7.61611 20.1965C7.62998 20.1791 7.63961 20.1588 7.64426 20.1371C7.6489 20.1154 7.64842 20.0929 7.64286 20.0714L6.91429 17.6857V17.6786ZM15.3571 17.1429H13.9286C13.8339 17.1429 13.743 17.1805 13.676 17.2475C13.6091 17.3144 13.5714 17.4053 13.5714 17.5V21.5357C13.7 23.2929 14.9786 23.5857 15.4857 23.5714C15.9912 23.5454 16.4812 23.3878 16.9071 23.1143C17.1429 22.9643 17.2929 22.9929 17.3643 23.05C17.4071 23.0857 17.4143 23.1429 17.4143 23.1929V23.5714H18.9286C19.0233 23.5714 19.1141 23.5338 19.1811 23.4668C19.2481 23.3998 19.2857 23.309 19.2857 23.2143V17.5C19.2857 17.4053 19.2481 17.3144 19.1811 17.2475C19.1141 17.1805 19.0233 17.1429 18.9286 17.1429H17.5C17.4053 17.1429 17.3144 17.1805 17.2475 17.2475C17.1805 17.3144 17.1429 17.4053 17.1429 17.5V21.5357C16.9286 21.8571 16.7286 21.9357 16.5143 21.9357C15.7286 21.9714 15.7286 21.4214 15.7143 21.1357V17.5C15.7143 17.4053 15.6767 17.3144 15.6097 17.2475C15.5427 17.1805 15.4519 17.1429 15.3571 17.1429Z" fill="white"/>
<path fill-rule="evenodd" clip-rule="evenodd" d="M20.3571 17.1429H22.1429V17.6C22.1929 17.6786 22.2429 17.7786 22.6143 17.5857C23.0813 17.3185 23.6053 17.1667 24.1429 17.1429C24.6714 17.1429 26.4571 17.3357 26.4357 20.3143C26.4143 23.2929 24.0786 23.6 23.7071 23.6143C23.3286 23.6286 22.8571 23.4714 22.6214 23.4C22.4143 23.3357 22.15 23.3 22.15 23.6143V25.3571C22.15 25.4519 22.1124 25.5427 22.0454 25.6097C21.9784 25.6767 21.8876 25.7143 21.7929 25.7143H20.3643C20.2696 25.7143 20.1787 25.6767 20.1117 25.6097C20.0448 25.5427 20.0071 25.4519 20.0071 25.3571V17.5C20.0071 17.3 20.1643 17.1429 20.3643 17.1429H20.3571ZM22.1429 19.0071C22.2786 18.8643 22.6714 18.5714 23.1857 18.5714C23.8286 18.5714 24.2857 19.1643 24.2857 20.3429C24.2857 21.5 23.85 22 23 22.1429C22.7571 22.1429 22.2571 22.1 22.1429 21.9286V19.0071Z" fill="white"/>
<path d="M27.1428 17.4714C27.8636 17.2447 28.6159 17.1338 29.3714 17.1429C31.0143 17.1286 32.1214 17.8571 32.1357 19.2429C32.15 20.2286 32.1357 22.15 32.1357 23.2143C32.1357 23.309 32.0981 23.3999 32.0311 23.4668C31.9641 23.5338 31.8733 23.5714 31.7786 23.5714H30.3571C30.2624 23.5714 30.1716 23.5338 30.1046 23.4668C30.0376 23.3999 30 23.309 30 23.2143V22.7643L29.9071 22.8714C29.6928 23.1357 29.3571 23.5714 28.3786 23.5714C27.0643 23.5714 26.4286 22.4643 26.4286 21.5857C26.4286 20.7143 27.0928 19.7071 28.7714 19.5429C29.8428 19.4357 30 19.3714 30 19.0929C30 18.8071 29.8214 18.55 29.0214 18.5C28.308 18.524 27.6054 18.6815 26.95 18.9643V17.7786C26.95 17.6357 27.0214 17.5143 27.15 17.4714H27.1428ZM30.0143 20.8429C30.0143 20.7071 29.8857 20.5929 29.7286 20.5929C29.4214 20.5929 28.3571 20.65 28.3428 21.5214C28.3286 22.2214 28.9214 22.2857 29.2214 22.2357C29.4357 22.1714 29.8857 22 30.0071 21.7857V20.8429H30.0143Z" fill="white"/>
<path d="M36.7857 14.2857H13.9286C13.7313 14.2857 13.5714 14.4456 13.5714 14.6429V16.0714C13.5714 16.2687 13.7313 16.4286 13.9286 16.4286H36.7857C36.9829 16.4286 37.1428 16.2687 37.1428 16.0714V14.6429C37.1428 14.4456 36.9829 14.2857 36.7857 14.2857Z" fill="#009F4B"/>
</g>
<defs>
<clipPath id="clip0_344_195">
<rect width="40" height="40" rx="20" fill="white"/>
</clipPath>
</defs>
</svg>
