<svg width="40" height="40" viewBox="0 0 40 40" fill="none" xmlns="http://www.w3.org/2000/svg">
<g clip-path="url(#clip0_381_2)">
<path d="M0 20C0 8.95431 8.95431 0 20 0C31.0457 0 40 8.95431 40 20C40 31.0457 31.0457 40 20 40C8.95431 40 0 31.0457 0 20Z" fill="url(#paint0_linear_381_2)"/>
<path d="M2.85712 22.8571L4.99997 16.4286H5.71426L7.85712 22.8571H7.14283L6.39997 20.7143H4.32855L3.5714 22.8571H2.85712ZM4.51426 20H6.24997L5.35712 17.1428L4.51426 20ZM9.28569 22.8571V16.4286H11.6571C12.7143 16.4286 13.5714 17.0714 13.5714 18.2357C13.5714 19.1714 12.8071 20 12.1785 20L14.0214 22.8571H13.1285L11.2928 20H9.99997V22.8571H9.28569ZM9.99997 19.2857H11.6571C12.4285 19.2857 12.8571 18.7786 12.8571 18.2357C12.8571 17.6928 12.4428 17.1428 11.8071 17.1428H9.99997V19.2857ZM15 22.8571V16.4286H19.2857V17.1428H15.7143V19.2857H18.5714V20H15.7143V22.1428H19.2857V22.8571H15ZM20 22.8571V22.1428L24.0643 17.1428H20V16.4286H25V17.1428L20.9428 22.1428H25V22.8571H20ZM25.7143 22.8571V22.1428L29.7428 17.1428H25.7143V16.4286H30.7143V17.1428L26.6571 22.1428H30.7143V22.8571H25.7143ZM30.7143 19.6428C30.7143 17.8 32.0214 16.4286 33.9285 16.4286C35.7714 16.4286 37.1428 17.8714 37.1428 19.6428C37.1428 21.4428 35.8357 22.8571 33.9285 22.8571C33.5043 22.8649 33.0829 22.787 32.6894 22.6282C32.2959 22.4695 31.9385 22.233 31.6384 21.933C31.3384 21.6329 31.1019 21.2755 30.9431 20.882C30.7844 20.4885 30.7065 20.0671 30.7143 19.6428ZM31.4285 19.6428C31.4285 20.95 32.5571 22.1428 33.9285 22.1428C34.2568 22.1428 34.5819 22.0782 34.8853 21.9525C35.1886 21.8269 35.4642 21.6428 35.6963 21.4106C35.9285 21.1785 36.1126 20.9029 36.2382 20.5996C36.3639 20.2962 36.4285 19.9711 36.4285 19.6428C36.4285 19.3145 36.3639 18.9894 36.2382 18.6861C36.1126 18.3828 35.9285 18.1072 35.6963 17.8751C35.4642 17.6429 35.1886 17.4588 34.8853 17.3331C34.5819 17.2075 34.2568 17.1428 33.9285 17.1428C33.597 17.1308 33.2666 17.1873 32.9578 17.3087C32.6491 17.4301 32.3687 17.6138 32.1341 17.8484C31.8995 18.083 31.7158 18.3634 31.5944 18.6721C31.473 18.9809 31.4165 19.3113 31.4285 19.6428Z" fill="white"/>
</g>
<defs>
<linearGradient id="paint0_linear_381_2" x1="7.44286" y1="6.93572" x2="48.6786" y2="54.3" gradientUnits="userSpaceOnUse">
<stop stop-color="#1A1E21"/>
<stop offset="1" stop-color="#06060A"/>
</linearGradient>
<clipPath id="clip0_381_2">
<rect width="40" height="40" fill="white"/>
</clipPath>
</defs>
</svg>
