<svg width="40" height="40" viewBox="0 0 40 40" fill="none" xmlns="http://www.w3.org/2000/svg">
<g clip-path="url(#clip0_407_2)">
<path d="M0 0H40V40H0V0Z" fill="#E52397"/>
<path d="M25.7095 27.6377L25.7441 27.5351C26.0395 26.5719 26.112 25.5216 26.0145 24.4444C26.0053 24.4421 22.126 22.9196 19.7127 22.9196C17.2693 22.9196 15.1086 23.8992 13.6179 24.3811C12.2335 24.8287 9.31782 24.9582 8.01544 23.0085C7.97715 23.9945 8.01772 24.5949 8.05419 24.9035C8.50412 28.7919 10.8267 29.8076 12.7358 29.9671C15.4377 30.2716 16.7378 28.3602 19.7195 28.3602C21.7827 28.3602 23.0395 29.276 24.5147 29.7396C25.0331 29.1419 25.4325 28.4506 25.6913 27.7029C25.6935 27.6778 25.7027 27.6573 25.7095 27.6368V27.6377Z" fill="url(#paint0_linear_407_2)"/>
<path d="M25.5007 12.1318C25.1374 12.2093 22.0034 12.0748 19.7104 13.5613C23.5761 15.9044 28.6484 25.1105 24.5101 29.7351C25.1666 29.9421 25.8668 30.0579 26.6982 29.9644C28.6074 29.8076 30.9299 28.7897 31.3799 24.9012C32.0318 19.2655 27.9619 14.2387 25.5007 12.1318Z" fill="url(#paint1_linear_407_2)"/>
<path d="M8.00635 23.0016C9.31101 24.9513 12.2335 24.8287 13.6179 24.3811C14.8059 18.8333 16.7287 15.4973 19.7127 13.5636C22.008 12.0748 25.1484 12.2111 25.5053 12.134C23.1075 10.0613 20.9422 9.99562 19.7173 10.0002C18.4947 9.99562 17.2648 10.2568 16.1789 10.7159C15.4947 11.0044 14.8674 11.3705 14.3355 11.7999C12.2312 13.5002 8.33684 17.8518 8.00635 23.0016Z" fill="url(#paint2_linear_407_2)"/>
</g>
<defs>
<linearGradient id="paint0_linear_407_2" x1="7.99994" y1="26.4584" x2="28.5755" y2="26.4584" gradientUnits="userSpaceOnUse">
<stop offset="0.294" stop-color="white"/>
<stop offset="0.823" stop-color="white" stop-opacity="0.3"/>
<stop offset="0.999" stop-color="white" stop-opacity="0.2"/>
</linearGradient>
<linearGradient id="paint1_linear_407_2" x1="28.6931" y1="27.4244" x2="21.9619" y2="10.2304" gradientUnits="userSpaceOnUse">
<stop offset="0.3" stop-color="white"/>
<stop offset="0.843" stop-color="white" stop-opacity="0.3"/>
<stop offset="0.999" stop-color="white" stop-opacity="0.2"/>
</linearGradient>
<linearGradient id="paint2_linear_407_2" x1="18.6282" y1="11.0477" x2="14.288" y2="24.8451" gradientUnits="userSpaceOnUse">
<stop offset="0.277" stop-color="white"/>
<stop offset="0.823" stop-color="white" stop-opacity="0.3"/>
<stop offset="0.999" stop-color="white" stop-opacity="0.2"/>
</linearGradient>
<clipPath id="clip0_407_2">
<rect width="40" height="40" rx="20" fill="white"/>
</clipPath>
</defs>
</svg>
