<svg width="40" height="40" viewBox="0 0 40 40" fill="none" xmlns="http://www.w3.org/2000/svg">
<g clip-path="url(#clip0_344_27)">
<path d="M0 0H40V40H0V0Z" fill="#033678"/>
<path d="M30.8314 11.7971H31.3014C31.6736 11.7971 31.86 11.615 31.86 11.25C31.8626 11.1864 31.8521 11.1229 31.8292 11.0634C31.8064 11.004 31.7717 10.9498 31.7272 10.9043C31.6386 10.8136 31.5129 10.7686 31.3514 10.7686C31.2264 10.7662 31.1044 10.8068 31.0057 10.8836C30.9605 10.9165 30.9238 10.9597 30.8986 11.0097C30.8734 11.0596 30.8604 11.1148 30.8607 11.1707H29.865C29.865 10.9436 29.9279 10.7421 30.0543 10.5643C30.18 10.3871 30.3543 10.2493 30.5772 10.1507C30.8102 10.0488 31.0621 9.99745 31.3164 10C31.795 10 32.1714 10.1093 32.445 10.3286C32.7193 10.5464 32.8564 10.8471 32.8564 11.2293C32.8564 11.415 32.7993 11.59 32.685 11.7557C32.5591 11.9305 32.3887 12.0684 32.1914 12.155C32.42 12.2371 32.5986 12.3636 32.7293 12.5336C32.8593 12.7007 32.9243 12.9086 32.9243 13.1564C32.9243 13.5407 32.7764 13.8486 32.4814 14.0786C32.185 14.3093 31.7972 14.425 31.3164 14.425C31.0343 14.425 30.7722 14.3714 30.53 14.265C30.3086 14.1721 30.1188 14.017 29.9836 13.8186C29.8587 13.625 29.7938 13.3989 29.7972 13.1686H30.7993C30.7993 13.3007 30.8522 13.415 30.9586 13.5114C31.0661 13.6084 31.2067 13.6603 31.3514 13.6564C31.5272 13.6564 31.6672 13.6079 31.7714 13.5114C31.8229 13.4636 31.8635 13.4053 31.8906 13.3405C31.9177 13.2757 31.9306 13.2059 31.9286 13.1357C31.9286 12.9193 31.8736 12.7657 31.7657 12.675C31.6572 12.5843 31.5072 12.5393 31.3157 12.5393H30.8314V11.7964V11.7971Z" fill="white"/>
<path fill-rule="evenodd" clip-rule="evenodd" d="M21.2929 15H15V26.4286H21.5086C23.2993 26.4286 24.7514 24.9643 24.7514 23.1043C24.755 22.5533 24.6245 22.0097 24.3713 21.5203C24.1181 21.0309 23.7497 20.6104 23.2979 20.295C23.6219 19.9947 23.88 19.6304 24.0559 19.2252C24.2317 18.8199 24.3214 18.3825 24.3193 17.9407C24.3193 16.205 22.965 15 21.2929 15ZM17.8571 17.1621H20.4279C22.1414 17.1621 22.0464 19.5543 20.4279 19.5543H17.8571V17.1614V17.1621ZM20.4279 21.7157H17.8571V24.2857H20.4279C21.1443 24.2857 21.725 23.7293 21.725 23.0129C21.725 22.6688 21.5883 22.3389 21.3451 22.0956C21.1018 21.8524 20.7719 21.7157 20.4279 21.7157Z" fill="white"/>
<path d="M10 11.4286H14.2857V12.8571H11.4286V28.5714H14.2857V30H10V11.4286ZM28.5714 11.4286H24.2857V12.8571H27.1429V28.5714H24.2857V30H28.5714V11.4286Z" fill="white"/>
</g>
<defs>
<clipPath id="clip0_344_27">
<rect width="40" height="40" rx="20" fill="white"/>
</clipPath>
</defs>
</svg>
