<svg width="40" height="40" viewBox="0 0 40 40" fill="none" xmlns="http://www.w3.org/2000/svg">
<path d="M0 20C0 8.95431 8.95431 0 20 0C31.0457 0 40 8.95431 40 20C40 31.0457 31.0457 40 20 40C8.95431 40 0 31.0457 0 20Z" fill="#F2F2F7"/>
<rect x="9" y="10" width="9.51128" height="9.51128" fill="#0085C7"/>
<path d="M19.376 10H27.2444C29.8709 10 32 12.1292 32 14.7556C32 17.3821 29.8709 19.5113 27.2444 19.5113H19.376V10Z" fill="#0085C7"/>
<path d="M19.376 20.3759H27.2444C29.8709 20.3759 32 22.5051 32 25.1316C32 27.7581 29.8709 29.8872 27.2444 29.8872H19.376V20.3759Z" fill="#0085C7"/>
<rect x="9" y="20.3759" width="9.51128" height="9.51128" fill="#0085C7"/>
</svg>
