<svg width="40" height="40" viewBox="0 0 40 40" fill="none" xmlns="http://www.w3.org/2000/svg">
<g clip-path="url(#clip0_344_43)">
<path d="M0 0H40V40H0V0Z" fill="#FFF22D"/>
<path d="M8.57144 28.2536L11.2772 26.6672L13.62 28.2529L8.57144 31.4286V28.2536ZM31.4279 11.7479L29.085 13.3343L26.7422 11.7479L31.4272 8.57144L31.4279 11.7479ZM31.4279 23.8086L20.1807 31.4286L8.9343 23.8086L22.29 14.7622L24.6329 16.35L13.855 23.6514L20.4157 28.0957L23.4607 26.0322L21.1179 24.4443L26.7414 20.6336L31.4279 23.8086ZM8.9343 16.1929L20.1822 8.57501L31.4286 16.1929L18.0729 25.2386L15.73 23.6514L21.1179 20L26.5072 16.3493L19.9464 11.9057L16.9007 13.9693L19.2436 15.5557L13.6193 19.3664L8.93358 16.1914L8.9343 16.1929Z" fill="#2360A5"/>
</g>
<defs>
<clipPath id="clip0_344_43">
<rect width="40" height="40" rx="20" fill="white"/>
</clipPath>
</defs>
</svg>
