<svg width="40" height="40" viewBox="0 0 40 40" fill="none" xmlns="http://www.w3.org/2000/svg">
<g clip-path="url(#clip0_344_36)">
<path d="M0 0H40V40H0V0Z" fill="#E22245"/>
<path d="M19.3865 13.9171C18.0543 13.9171 16.6029 14.06 15.1686 14.34C16.62 12.2007 18.9272 10.8157 21.4957 10.8157C23.395 10.8157 25.2886 11.635 26.5643 12.8571C26.7965 13.0786 26.9722 13.0979 27.1479 12.8964C27.3236 12.695 27.3072 12.4936 27.1143 12.2336C25.4472 10.01 22.9979 8.51429 20.1122 8.57286C16.3365 8.65143 13.1279 11.3943 11.9029 15.1914C10.7865 15.5943 9.76002 16.0693 8.85288 16.6543C8.60288 16.8171 8.51859 17.0114 8.60288 17.2521C8.69431 17.4736 8.87002 17.5514 9.11931 17.4736C9.91248 17.2123 10.7163 16.9845 11.5286 16.7907C11.4379 17.2914 11.3872 17.8121 11.3872 18.3514C11.3136 21.8486 12.9465 25.1707 15.4636 26.9914C15.7129 27.1736 15.9229 27.1736 16.0643 26.9521C16.2065 26.7307 16.1893 26.53 15.9736 26.315C14.3807 24.6771 13.4907 22.2321 13.4907 19.8136C13.4907 18.5921 13.7057 17.415 14.1086 16.355C14.9422 16.2771 15.8436 16.2121 16.8415 16.2121C23.2929 16.2121 28.7357 18.65 28.7357 21.855C28.7357 23.4743 26.9443 25.0929 24.8179 26.1786C24.3022 26.4386 24.2515 26.6214 24.3193 26.8807C24.3929 27.1214 24.6193 27.1993 24.8857 27.1021C28.6107 25.7043 31.4286 23.4021 31.4286 20.62C31.44 16.8364 26.1215 13.9171 19.3865 13.9171ZM22.1429 31.0814V23.875C22.1429 23.5971 21.8972 23.4993 21.6943 23.6264L20 24.7693V31.4286H21.8172C21.9986 31.4286 22.1429 31.2721 22.1429 31.0814ZM17.8572 31.2021V26.1964C17.8572 26.0107 17.9343 25.8821 18.0572 25.8014L19.2857 25V31.4286H18.0572C17.9443 31.4286 17.8572 31.33 17.8572 31.2021Z" fill="white"/>
</g>
<defs>
<clipPath id="clip0_344_36">
<rect width="40" height="40" rx="20" fill="white"/>
</clipPath>
</defs>
</svg>
