<svg width="40" height="40" viewBox="0 0 40 40" fill="none" xmlns="http://www.w3.org/2000/svg">
<g clip-path="url(#clip0_564_9)">
<path d="M0 0H40V40H0V0Z" fill="#FFF22D"/>
<path d="M8.57141 28.2536L11.2771 26.6671L13.62 28.2529L8.57141 31.4286V28.2536ZM31.4278 11.7479L29.085 13.3343L26.7421 11.7479L31.4271 8.57143L31.4278 11.7479ZM31.4278 23.8086L20.1807 31.4286L8.93427 23.8086L22.29 14.7621L24.6328 16.35L13.855 23.6514L20.4157 28.0957L23.4607 26.0321L21.1178 24.4443L26.7414 20.6336L31.4278 23.8086ZM8.93427 16.1929L20.1821 8.575L31.4286 16.1929L18.0728 25.2386L15.73 23.6514L21.1178 20L26.5071 16.3493L19.9464 11.9057L16.9007 13.9693L19.2436 15.5557L13.6193 19.3664L8.93355 16.1914L8.93427 16.1929Z" fill="#2360A5"/>
</g>
<defs>
<clipPath id="clip0_564_9">
<rect width="40" height="40" rx="20" fill="white"/>
</clipPath>
</defs>
</svg>
