<svg width="40" height="40" viewBox="0 0 40 40" fill="none" xmlns="http://www.w3.org/2000/svg">
<g clip-path="url(#clip0_312_2564)">
<path d="M0 0H40V40H0V0Z" fill="#E84752"/>
<path d="M11.264 17.0676V19.5573H10.2835V17.2228C10.2835 16.6844 10.042 16.4152 9.60462 16.4152C9.09881 16.4152 8.85005 16.7738 8.85005 17.4098V19.5552H7.87057V17.232C7.87057 16.821 7.69645 16.4172 7.20619 16.4172C6.71593 16.4172 6.45992 16.8128 6.43711 17.4262V19.5573H5.45453V15.6692H6.43505V16.7388L6.66929 15.8418C6.78216 15.7367 6.91492 15.6548 7.05991 15.6008C7.20491 15.5469 7.35925 15.5219 7.51402 15.5274C8.20743 15.5274 8.70495 15.9682 8.82621 16.6936L9.03351 15.8418C9.14446 15.7361 9.27588 15.6537 9.4198 15.5997C9.56375 15.5457 9.71722 15.5211 9.87097 15.5274C10.7385 15.5274 11.2588 16.073 11.2588 17.0687" fill="#2B3D4A"/>
<path d="M13.0392 15.7189H12.0712V19.5566H13.0392V15.7189Z" fill="#2B3D4A"/>
<path d="M11.9261 14.7074C11.9261 14.5855 11.9625 14.4663 12.0309 14.3649C12.0992 14.2635 12.1964 14.1845 12.31 14.1378C12.4236 14.0912 12.5487 14.079 12.6693 14.1028C12.7899 14.1265 12.9007 14.1853 12.9877 14.2715C13.0747 14.3577 13.1339 14.4675 13.1579 14.5871C13.1819 14.7067 13.1696 14.8307 13.1225 14.9433C13.0754 15.056 12.9957 15.1523 12.8935 15.22C12.7912 15.2878 12.671 15.3239 12.548 15.3239C12.383 15.3239 12.2249 15.259 12.1082 15.1433C11.9916 15.0277 11.9261 14.8709 11.9261 14.7074Z" fill="#2B3D4A"/>
<path d="M17.5874 17.3061V19.5574H16.6193V17.4459C16.6193 16.7595 16.3892 16.4646 15.8533 16.4646C15.2874 16.4646 14.9598 16.8561 14.9598 17.5271V19.5574H13.9918V15.7197H14.9598V16.8335L15.1754 15.9632C15.391 15.7341 15.6937 15.5789 16.1653 15.5789C17.0888 15.5789 17.5874 16.1841 17.5874 17.3061Z" fill="#2B3D4A"/>
<path d="M19.2789 17.2548H21.0212C21.0212 16.7308 20.7103 16.3763 20.1796 16.3763C19.7256 16.3763 19.3763 16.6424 19.2789 17.2548ZM22.0266 17.9329H19.2716C19.3608 18.6049 19.7484 18.8711 20.2843 18.8711C20.7901 18.8711 21.1134 18.6717 21.3114 18.2288L21.9965 18.8454C21.6172 19.3992 20.9839 19.6674 20.2542 19.6674C19.0104 19.6674 18.2444 18.8269 18.2444 17.6535C18.2444 16.4502 19.0633 15.5789 20.2138 15.5789C21.3384 15.5789 22.0525 16.3907 22.0525 17.5641C22.0553 17.6874 22.048 17.8107 22.0307 17.9329" fill="#2B3D4A"/>
<path d="M25.1777 15.6815V16.6186C25.0161 16.5685 24.8475 16.5435 24.6781 16.5447C24.1278 16.5447 23.7629 16.9505 23.7629 17.7037V19.5532H22.7949V15.7196H23.7629V16.9813L23.9785 15.9775C24.0818 15.8661 24.2072 15.7771 24.3469 15.716C24.4865 15.655 24.6375 15.6234 24.7901 15.623C24.9221 15.6159 25.0541 15.6362 25.1777 15.6826" fill="#2B3D4A"/>
<path d="M29.7496 15.7189L28.1938 19.5566H27.1739L25.5881 15.7189H26.6525L27.688 18.4356L28.7151 15.7189H29.7496Z" fill="#2B3D4A"/>
<path d="M33.0301 17.6339C33.0301 16.9146 32.5171 16.4461 31.8983 16.4461C31.2505 16.4461 30.7675 16.9259 30.7675 17.6339C30.7675 18.3418 31.2505 18.7929 31.8983 18.7929C32.5202 18.7929 33.0301 18.3428 33.0301 17.6339ZM33.5287 19.5532L33.0747 18.1579L33.0084 19.1248C32.7254 19.4494 32.316 19.6632 31.72 19.6632C30.5664 19.6632 29.7621 18.7929 29.7621 17.6339C29.7621 16.4748 30.5592 15.5789 31.7128 15.5789C31.9527 15.5723 32.1912 15.6171 32.4122 15.7102C32.633 15.8033 32.8311 15.9425 32.9928 16.1183V15.7196H33.9578V17.8394L34.5455 19.5594L33.5287 19.5532Z" fill="#2B3D4A"/>
<path d="M7.98769 22.9219H6.82683V26.1626H6.14172V22.9219H5.45453V22.3239H6.13964V21.8666C6.13964 21.1361 6.61643 20.612 7.36062 20.612C7.54883 20.6117 7.7364 20.6338 7.91929 20.6778V21.2686C7.77726 21.2384 7.63233 21.2236 7.48707 21.2244C7.07248 21.2244 6.82476 21.4166 6.82476 21.8882V22.3239H7.98562L7.98769 22.9219Z" fill="#E3E0B0"/>
<path d="M9.19394 24.2345C9.19394 25.0915 9.77438 25.6443 10.5559 25.6443C11.3374 25.6443 11.9261 25.0915 11.9261 24.2345C11.9261 23.3776 11.3529 22.8258 10.5559 22.8258C9.75883 22.8258 9.19394 23.3858 9.19394 24.2345ZM12.633 24.2345C12.633 25.4377 11.7251 26.2721 10.56 26.2721C9.39504 26.2721 8.49847 25.4377 8.49847 24.2345C8.49847 23.0313 9.39917 22.198 10.56 22.198C11.7209 22.198 12.633 23.0324 12.633 24.2345Z" fill="#E3E0B0"/>
<path d="M13.9358 24.2345C13.9358 25.0915 14.5162 25.6443 15.2977 25.6443C16.0792 25.6443 16.6679 25.0915 16.6679 24.2345C16.6679 23.3776 16.0948 22.8258 15.2977 22.8258C14.5006 22.8258 13.9358 23.3858 13.9358 24.2345ZM17.3748 24.2345C17.3748 25.4377 16.4669 26.2721 15.3018 26.2721C14.1368 26.2721 13.2403 25.4377 13.2403 24.2345C13.2403 23.0313 14.141 22.198 15.3018 22.198C16.4627 22.198 17.3748 23.0324 17.3748 24.2345Z" fill="#E3E0B0"/>
<path d="M21.4162 24.2432C21.4162 23.4458 20.8731 22.818 20.047 22.818C19.1909 22.818 18.6768 23.4458 18.6768 24.2432C18.6768 25.0405 19.195 25.6529 20.047 25.6529C20.8762 25.6529 21.4162 25.0364 21.4162 24.2432ZM21.9345 26.1625L21.4504 24.7086L21.3758 25.6385C21.0783 26.0002 20.6088 26.2735 19.9392 26.2735C18.7556 26.2735 17.9813 25.3806 17.9813 24.2442C17.9813 23.1078 18.7556 22.1994 19.9392 22.1994C20.2202 22.1897 20.4993 22.247 20.7533 22.3664C21.0072 22.4858 21.2285 22.6639 21.3986 22.8858V20.7373H22.0827V24.5011L22.6538 26.1625H21.9345Z" fill="#E3E0B0"/>
<path d="M26.3831 23.3201L25.7281 23.5636C25.698 23.0694 25.3477 22.7591 24.76 22.7591C24.2314 22.7591 23.9184 23.0098 23.9184 23.3345C23.9184 24.2428 26.435 23.5934 26.435 25.0987C26.435 25.8508 25.7944 26.2721 24.8274 26.2721C23.8293 26.2721 23.2043 25.785 23.0851 25.0915L23.7546 24.811C23.7847 25.3935 24.2014 25.711 24.8274 25.711C25.3187 25.711 25.698 25.5415 25.698 25.1428C25.698 24.2428 23.2105 24.9137 23.2105 23.3786C23.2105 22.6923 23.9174 22.198 24.759 22.198C25.6597 22.198 26.2847 22.6481 26.3821 23.3201" fill="#E3E0B0"/>
</g>
<defs>
<clipPath id="clip0_312_2564">
<rect width="40" height="40" rx="20" fill="white"/>
</clipPath>
</defs>
</svg>
