<svg width="40" height="40" viewBox="0 0 40 40" fill="none" xmlns="http://www.w3.org/2000/svg">
<g clip-path="url(#clip0_312_2493)">
<path d="M0 0H40V40H0V0Z" fill="#004B8C"/>
<path fill-rule="evenodd" clip-rule="evenodd" d="M12.8571 9.28571V25L23.9286 18.5714C23.9286 18.5714 26.4286 17.0893 26.4286 14.2857C26.4286 11.2764 23.4929 9.28571 20.715 9.28571H12.8571ZM12.1429 8.57143V25.7143H12.8571L24.4143 19.0964C24.4143 19.0964 27.1429 17.5643 27.1429 14.2857C27.1429 11.0071 24.4143 8.57143 20.715 8.57143H12.1429Z" fill="#2B2A29"/>
<mask id="mask0_312_2493" style="mask-type:luminance" maskUnits="userSpaceOnUse" x="12" y="8" width="16" height="18">
<path fill-rule="evenodd" clip-rule="evenodd" d="M12.8571 9.28571V25L23.9286 18.5714C23.9286 18.5714 26.4286 17.0893 26.4286 14.2857C26.4286 11.2764 23.4929 9.28571 20.715 9.28571H12.8571ZM12.1429 8.57143V25.7143H12.8571L24.4143 19.0964C24.4143 19.0964 27.1429 17.5643 27.1429 14.2857C27.1429 11.0071 24.4143 8.57143 20.715 8.57143H12.1429Z" fill="white"/>
</mask>
<g mask="url(#mask0_312_2493)">
<path d="M12.8572 9.28571V7.85714H11.4286V9.28571H12.8572ZM12.8572 25H11.4286V27.4814L13.5743 26.2357L12.8572 25ZM23.9286 18.5714L24.6457 19.8071L24.6514 19.8036L24.6572 19.8L23.9286 18.5714ZM12.1429 8.57143V7.14286H10.7143V8.57143H12.1429ZM12.1429 25.7143H10.7143V27.1429H12.1429V25.7143ZM12.8572 25.7143V27.1429H13.2372L13.5672 26.9543L12.8572 25.7143ZM24.4143 19.0964L23.7143 17.8514L23.7093 17.8543L23.7043 17.8571L24.4143 19.0964ZM11.4286 9.28571V25H14.2857V9.28571H11.4286ZM13.5743 26.2357L24.6457 19.8071L23.2114 17.3357L12.14 23.7643L13.5743 26.2357ZM23.9286 18.5714L24.6572 19.8L24.6593 19.7993L24.6614 19.7979L24.6672 19.7943L24.6807 19.7864C24.6907 19.7793 24.7036 19.7721 24.7186 19.7629L24.8329 19.6879C24.9264 19.625 25.0514 19.5364 25.1972 19.4229C25.4879 19.1964 25.8722 18.8607 26.2579 18.4157C27.0264 17.5293 27.8572 16.1386 27.8572 14.2857H25C25 15.2371 24.5807 15.9886 24.0993 16.5443C23.845 16.8361 23.556 17.0957 23.2386 17.3171L23.1957 17.3457L23.1914 17.3479L23.1936 17.3464C23.195 17.3464 23.1957 17.345 23.1964 17.3443H23.1986V17.3429C23.2 17.3429 23.2 17.3429 23.9286 18.5714ZM20.715 7.85714H12.8572V10.7143H20.715V7.85714ZM10.7143 8.57143V25.7143H13.5714V8.57143H10.7143ZM12.1429 27.1429H12.8572V24.2857H12.1429V27.1429ZM13.5672 26.9543L25.1243 20.3364L23.7043 17.8571L12.1464 24.4743L13.5672 26.9543ZM24.4143 19.0964C25.1136 20.3414 25.1143 20.3421 25.1143 20.3414H25.1157L25.1186 20.3393L25.1243 20.3357L25.1393 20.3271C25.1967 20.2947 25.2529 20.2601 25.3079 20.2236C25.4442 20.1348 25.5772 20.041 25.7064 19.9421C26.0243 19.7 26.4422 19.3393 26.8614 18.8521C27.7036 17.8736 28.5714 16.3521 28.5714 14.2857H25.7143C25.7143 15.4971 25.2179 16.3814 24.6957 16.9886C24.4794 17.24 24.2377 17.4684 23.9743 17.67C23.8884 17.7355 23.7995 17.797 23.7079 17.8543L23.7043 17.8571L23.7072 17.855L23.7107 17.8536L23.7122 17.8521H23.7136C23.7136 17.8514 23.715 17.8514 24.4143 19.0964ZM28.5714 14.2857C28.5714 10.0664 25.0422 7.14286 20.715 7.14286V10C23.7864 10 25.7143 11.9479 25.7143 14.2857H28.5714ZM20.715 7.14286H12.1429V8.57143V10H20.7157V7.14286H20.715ZM27.8572 14.2857C27.8572 12.2764 26.8672 10.6421 25.5114 9.54643C24.1729 8.46429 22.4257 7.85714 20.715 7.85714V10.7143C21.7822 10.7143 22.8922 11.1029 23.715 11.7686C24.5229 12.4207 25 13.2857 25 14.2857H27.8572Z" fill="#F0F3FA"/>
</g>
<path fill-rule="evenodd" clip-rule="evenodd" d="M17.1428 18.5714V31.7857L26.4286 28.5714C26.6871 28.4857 30.7143 27.1429 30.7143 23.9286C30.7143 20.7143 27.8886 18.5714 25 18.5714H17.1428ZM16.4286 17.8571V32.8571L27.5443 29.0179C27.5443 29.0179 31.4286 27.8107 31.4286 23.9286C31.4286 20 28.3214 17.8571 25 17.8571H16.4286Z" fill="#2B2A29"/>
<mask id="mask1_312_2493" style="mask-type:luminance" maskUnits="userSpaceOnUse" x="16" y="17" width="16" height="16">
<path fill-rule="evenodd" clip-rule="evenodd" d="M17.1428 18.5714V31.7857L26.4286 28.5714C26.6871 28.4857 30.7143 27.1429 30.7143 23.9286C30.7143 20.7143 27.8886 18.5714 25 18.5714H17.1428ZM16.4286 17.8571V32.8571L27.5443 29.0179C27.5443 29.0179 31.4286 27.8107 31.4286 23.9286C31.4286 20 28.3214 17.8571 25 17.8571H16.4286Z" fill="white"/>
</mask>
<g mask="url(#mask1_312_2493)">
<path d="M17.1429 18.5714V17.1429H15.7143V18.5714H17.1429ZM17.1429 31.7857H15.7143V33.7921L17.61 33.1357L17.1429 31.7857ZM26.4286 28.5714L25.9764 27.2164L25.9693 27.2186L25.9614 27.2214L26.4286 28.5714ZM16.4286 17.8571V16.4286H15V17.8571H16.4286ZM16.4286 32.8571H15V34.8621L16.895 34.2071L16.4286 32.8571ZM27.5443 29.0179L27.1207 27.6536L27.0993 27.6607L27.0779 27.6679L27.5443 29.0179ZM15.7143 18.5714V31.7857H18.5714V18.5714H15.7143ZM17.61 33.1357L26.8957 29.9214L25.9614 27.2214L16.6757 30.4357L17.61 33.1357ZM26.8807 29.9264C27.0493 29.8707 28.2857 29.4586 29.5029 28.5821C30.7057 27.7164 32.1429 26.2036 32.1429 23.9286H29.2857C29.2857 24.8679 28.7093 25.6336 27.8336 26.2643C27.2623 26.6673 26.6371 26.9879 25.9764 27.2164L26.8807 29.9264ZM25 17.1429H17.1429V20H25V17.1429ZM16.895 34.2071L28.0107 30.3686L27.0779 27.6679L15.9621 31.5071L16.895 34.2071ZM27.5443 29.0179C27.9679 30.3821 27.9693 30.3821 27.97 30.3821L27.9707 30.3814L27.9743 30.3807L27.9814 30.3779L27.9993 30.3721C28.0739 30.3482 28.1477 30.322 28.2207 30.2936C29.002 29.9885 29.7319 29.5655 30.385 29.0393C31.5871 28.065 32.8571 26.4186 32.8571 23.9286H30C30 25.3207 29.3279 26.2193 28.5871 26.8193C28.1683 27.1556 27.7011 27.427 27.2014 27.6243C27.1723 27.6353 27.143 27.6458 27.1136 27.6557H27.1164L27.1179 27.6543H27.1193C27.1193 27.6543 27.1207 27.6536 27.5443 29.0179ZM32.8571 23.9286C32.8571 21.5536 31.9029 19.6386 30.3929 18.3371C28.9071 17.0586 26.955 16.4286 25 16.4286V19.2857C26.3657 19.2857 27.6286 19.7279 28.5271 20.5021C29.4007 21.2543 30 22.375 30 23.9286H32.8571ZM25 16.4286H16.4286V17.8571V19.2857H25V16.4286ZM15 17.8571V32.8571H17.8571V17.8571H15ZM32.1429 23.9286C32.1429 19.7571 28.4979 17.1429 25 17.1429V20C27.2793 20 29.2857 21.6714 29.2857 23.9286H32.1429Z" fill="#F0F3FA"/>
</g>
<path fill-rule="evenodd" clip-rule="evenodd" d="M16.4286 32.86L12.1429 25.7143L12.8571 25.3571L16.4286 31.4286V32.86Z" fill="#F0F3FA"/>
</g>
<defs>
<clipPath id="clip0_312_2493">
<rect width="40" height="40" rx="20" fill="white"/>
</clipPath>
</defs>
</svg>
