<svg width="40" height="40" viewBox="0 0 40 40" fill="none" xmlns="http://www.w3.org/2000/svg">
<g clip-path="url(#clip0_312_2441)">
<path d="M0 0H40V40H0V0Z" fill="#256136"/>
<path fill-rule="evenodd" clip-rule="evenodd" d="M14.0696 16.6793C14.0696 16.6793 14.8413 12.8085 18.9556 13.5412C19.6766 13.6697 20.3704 13.8274 21.0468 13.9812C24.2301 14.7048 27.0276 15.3408 30.4611 12.4214C30.4611 12.4214 29.5799 15.8662 25.059 16.5308C23.1322 16.8141 21.6539 16.534 20.2498 16.2679C18.3594 15.9098 16.6036 15.5771 14.0696 16.6793ZM8.88892 8.88889H31.1111V31.1111H8.88892V26.3687C9.23127 26.4306 9.57438 26.4956 9.92 26.5611C12.418 27.0347 15.0476 27.5332 18.4736 27.0284C26.5075 25.8477 28.068 19.7249 28.068 19.7249C21.9677 24.9087 16.9984 23.7792 11.3462 22.4946C10.5427 22.3119 9.72527 22.1261 8.88892 21.9549V20.5429C11.1614 20.1041 13.0366 20.4597 15.0141 20.8348C17.0404 21.2192 19.1741 21.6239 21.9525 21.2148C28.4697 20.241 29.743 15.2892 29.743 15.2892C24.7881 19.5087 20.7535 18.5874 16.1612 17.5387C15.1894 17.3168 14.1925 17.0891 13.1566 16.9033C11.3015 16.5747 9.91872 16.9033 8.89379 17.4852L8.88892 8.88889Z" fill="white"/>
</g>
<defs>
<clipPath id="clip0_312_2441">
<rect width="40" height="40" rx="20" fill="white"/>
</clipPath>
</defs>
</svg>
