<svg width="40" height="40" viewBox="0 0 40 40" fill="none" xmlns="http://www.w3.org/2000/svg">
<g clip-path="url(#clip0_312_2532)">
<path d="M0 0H40V40H0V0Z" fill="#0066FC"/>
<path d="M13.6222 12.9C13.5925 12.9 13.5643 12.9132 13.5453 12.9361L5.92307 22.1139C5.90816 22.1318 5.9 22.1544 5.9 22.1778V26.0667C5.9 26.109 5.92667 26.1468 5.96658 26.1609C6.00648 26.1751 6.05098 26.1626 6.07766 26.1297C7.19245 24.7556 8.87242 22.6868 10.2892 20.9459C10.9976 20.0755 11.6402 19.2871 12.1134 18.7085C12.3501 18.4192 12.5443 18.1825 12.6832 18.0143C12.7527 17.9301 12.8082 17.8633 12.8482 17.8156C12.8682 17.7917 12.8842 17.7729 12.896 17.7591L12.9101 17.7429C12.9141 17.7385 12.9154 17.7371 12.9152 17.7374C13.0212 17.6313 13.1308 17.6111 13.1556 17.6111H13.3111C13.403 17.6111 13.4507 17.6471 13.4788 17.6862C13.5106 17.7304 13.5222 17.7864 13.5222 17.8222V25.9111C13.5222 25.9663 13.567 26.0111 13.6222 26.0111H15.9556C15.9858 26.0111 16.0144 25.9975 16.0333 25.9739C17.1222 24.6258 18.7633 22.5959 20.1477 20.8874C20.8399 20.0332 21.4679 19.2594 21.9306 18.6914C22.1619 18.4073 22.3519 18.1749 22.4879 18.0096C22.5559 17.9269 22.6102 17.8612 22.6494 17.8143C22.6691 17.7908 22.6847 17.7723 22.6964 17.7588L22.7103 17.7428C22.7141 17.7384 22.7154 17.7371 22.7152 17.7374C22.8212 17.6313 22.9308 17.6111 22.9556 17.6111H23.1111C23.203 17.6111 23.2507 17.6471 23.2788 17.6862C23.3106 17.7304 23.3222 17.7864 23.3222 17.8222V25.9111C23.3222 25.9663 23.367 26.0111 23.4222 26.0111H25.6C25.6552 26.0111 25.7 25.9663 25.7 25.9111V13C25.7 12.9448 25.6552 12.9 25.6 12.9H23.5C23.4697 12.9 23.441 12.9137 23.4221 12.9373C21.2974 15.5802 16.9969 20.9338 16.8089 21.1844C16.6369 21.4138 16.4621 21.4556 16.4222 21.4556H16.2667C16.1126 21.4556 16.0259 21.3936 15.9745 21.3221C15.9194 21.2456 15.9 21.1507 15.9 21.0889V13C15.9 12.9448 15.8552 12.9 15.8 12.9H13.6222Z" fill="white" stroke="white" stroke-width="0.2" stroke-linejoin="round"/>
<path d="M29.8556 16.4222V18.8111H27.1556C27.1004 18.8111 27.0556 18.8559 27.0556 18.9111V20C27.0556 20.0552 27.1004 20.1 27.1556 20.1H29.8556V22.4889C29.8556 22.5441 29.9003 22.5889 29.9556 22.5889H31.2C31.2553 22.5889 31.3 22.5441 31.3 22.4889V20.1H34C34.0553 20.1 34.1 20.0552 34.1 20V18.9111C34.1 18.8559 34.0553 18.8111 34 18.8111H31.3V16.4222C31.3 16.367 31.2553 16.3222 31.2 16.3222H29.9556C29.9003 16.3222 29.8556 16.367 29.8556 16.4222Z" fill="white" stroke="white" stroke-width="0.2" stroke-linejoin="round"/>
</g>
<defs>
<clipPath id="clip0_312_2532">
<rect width="40" height="40" rx="20" fill="white"/>
</clipPath>
</defs>
</svg>
