<svg width="40" height="40" viewBox="0 0 40 40" fill="none" xmlns="http://www.w3.org/2000/svg">
<g clip-path="url(#clip0_344_82)">
<mask id="mask0_344_82" style="mask-type:luminance" maskUnits="userSpaceOnUse" x="0" y="0" width="40" height="40">
<path d="M40 0H0V40H40V0Z" fill="white"/>
</mask>
<g mask="url(#mask0_344_82)">
<path d="M0 0H40V40H0V0Z" fill="#F2F2F7"/>
<path d="M19.7076 16.2004C19.711 15.8093 19.8694 15.4356 20.148 15.1611C20.4267 14.8865 20.8027 14.7337 21.1939 14.736C21.2593 14.736 21.327 14.736 21.3947 14.7513C23.712 15.1087 25.825 16.2834 27.3517 18.0631C28.8784 19.8428 29.7179 22.1099 29.7187 24.4546C29.7187 32.1479 23.5706 33.8394 20.9014 34.1886C20.6182 34.2199 20.3342 34.1378 20.1112 33.9603C19.8884 33.7829 19.7448 33.5244 19.7119 33.2414V33.1301L19.7076 16.2004Z" fill="#462A71"/>
<path d="M12.171 25.7533H16.436C17.3065 25.751 18.1405 25.4032 18.7546 24.7863C19.3688 24.1693 19.7128 23.3338 19.7111 22.4633V7.72656C19.7111 7.44549 19.5994 7.17584 19.4006 6.97709C19.2019 6.77833 18.9323 6.66666 18.6512 6.66666H16.6734C15.1956 6.67115 13.7799 7.26184 12.737 8.30906C11.6941 9.35627 11.1094 10.7744 11.1111 12.2523V24.6913C11.1109 24.8306 11.1381 24.9686 11.1912 25.0975C11.2444 25.2263 11.3224 25.3434 11.4208 25.4421C11.5192 25.5407 11.6362 25.619 11.7649 25.6723C11.8936 25.7258 12.0316 25.7533 12.171 25.7533Z" fill="#FF6300"/>
</g>
</g>
<defs>
<clipPath id="clip0_344_82">
<rect width="40" height="40" rx="20" fill="white"/>
</clipPath>
</defs>
</svg>
