<svg width="40" height="40" viewBox="0 0 40 40" fill="none" xmlns="http://www.w3.org/2000/svg">
<g clip-path="url(#clip0_312_2520)">
<path d="M0 0H40V40H0V0Z" fill="#921535"/>
<path fill-rule="evenodd" clip-rule="evenodd" d="M13.5715 16.8186V12.1429C13.5715 12.1429 20.5165 12.9057 20.7143 19.2857C20.7308 19.2857 19.8258 16.85 13.5715 16.8186Z" fill="#F0F3FA"/>
<path fill-rule="evenodd" clip-rule="evenodd" d="M27.8572 16.8186V12.1429C27.8572 12.1429 20.9115 12.9057 20.7144 19.2857C20.7144 19.2857 21.6194 16.85 27.8572 16.8186Z" fill="#F0F3FA"/>
<path fill-rule="evenodd" clip-rule="evenodd" d="M9.28571 32.1429H14.31C14.31 32.1429 13.0743 21.5764 20.7143 19.2921C20.7143 19.2921 9.76713 18.5936 9.28571 32.1429ZM23.1821 26.4286H27.8571C27.8571 26.4286 27.0943 19.4836 20.7143 19.2857C20.7143 19.2693 23.15 20.1743 23.1821 26.4286Z" fill="#F0F3FA"/>
<path fill-rule="evenodd" clip-rule="evenodd" d="M14.3051 9.28571H27.1236C28.0759 9.2859 28.9891 9.66427 29.6625 10.3376C30.3358 11.011 30.7142 11.9242 30.7144 12.8764V25.695C30.7142 26.6473 30.3358 27.5605 29.6625 28.2338C28.9891 28.9072 28.0759 29.2855 27.1236 29.2857H15.7144V27.8571H26.6179C27.3247 27.8545 28.0017 27.5726 28.5015 27.0728C29.0012 26.5731 29.2831 25.896 29.2858 25.1893V13.3821C29.2831 12.6754 29.0012 11.9983 28.5015 11.4986C28.0017 10.9988 27.3247 10.7169 26.6179 10.7143H14.8108C14.104 10.7169 13.427 10.9988 12.9272 11.4986C12.4275 11.9983 12.1456 12.6754 12.1429 13.3821V20.7764C11.6772 21.1464 11.1444 21.6321 10.7144 22.1921V12.8764C10.7144 10.9107 12.3229 9.28571 14.3051 9.28571Z" fill="url(#paint0_linear_312_2520)"/>
</g>
<defs>
<linearGradient id="paint0_linear_312_2520" x1="11.0715" y1="10" x2="31.4286" y2="29.6429" gradientUnits="userSpaceOnUse">
<stop offset="0.038" stop-color="#FCD0B3"/>
<stop offset="0.341" stop-color="#F18D20"/>
</linearGradient>
<clipPath id="clip0_312_2520">
<rect width="40" height="40" rx="20" fill="white"/>
</clipPath>
</defs>
</svg>
