<svg width="40" height="40" viewBox="0 0 40 40" fill="none" xmlns="http://www.w3.org/2000/svg">
<g clip-path="url(#clip0_344_90)">
<path d="M0 0H40V40H0V0Z" fill="#00C5FF"/>
<path d="M13.5714 7.14285H17.8571V11.4286H13.5714V7.14285Z" fill="#353840"/>
<path d="M27.8571 20C27.8571 21.8944 27.1046 23.7112 25.765 25.0508C24.4255 26.3903 22.6087 27.1429 20.7143 27.1429C19.4602 27.1442 18.2282 26.814 17.1428 26.1857V31.4286H13.5714V20C13.5714 18.1056 14.324 16.2888 15.6635 14.9492C17.0031 13.6097 18.8199 12.8571 20.7143 12.8571C22.6087 12.8571 24.4255 13.6097 25.765 14.9492C27.1046 16.2888 27.8571 18.1056 27.8571 20ZM17.1428 20C17.1428 20.9472 17.5191 21.8556 18.1889 22.5254C18.8587 23.1952 19.7671 23.5714 20.7143 23.5714C21.6615 23.5714 22.5699 23.1952 23.2396 22.5254C23.9094 21.8556 24.2857 20.9472 24.2857 20C24.2857 19.0528 23.9094 18.1444 23.2396 17.4746C22.5699 16.8049 21.6615 16.4286 20.7143 16.4286C19.7671 16.4286 18.8587 16.8049 18.1889 17.4746C17.5191 18.1444 17.1428 19.0528 17.1428 20Z" fill="white"/>
</g>
<defs>
<clipPath id="clip0_344_90">
<rect width="40" height="40" rx="20" fill="white"/>
</clipPath>
</defs>
</svg>
