<svg width="40" height="40" viewBox="0 0 40 40" fill="none" xmlns="http://www.w3.org/2000/svg">
<g clip-path="url(#clip0_344_55)">
<path d="M0 0H40V40H0V0Z" fill="#E5001C"/>
<path fill-rule="evenodd" clip-rule="evenodd" d="M20.8143 28.8571C27.8643 26.8429 32.8928 22.9071 32.05 20.0571C31.2071 17.2071 24.8071 16.5214 17.7643 18.5286C10.7071 20.5357 5.67856 24.4714 6.52142 27.3214C7.36428 30.1786 13.7643 30.8571 20.8071 28.85L20.8143 28.8571ZM19.7928 27.45C25.15 25.8071 28.9214 22.7 28.2214 20.5214C27.5286 18.35 22.6214 17.9286 17.2714 19.5786C11.9143 21.2357 8.1357 24.3357 8.8357 26.5071C9.5357 28.6857 14.4357 29.1071 19.7928 27.45Z" fill="url(#paint0_linear_344_55)"/>
<path d="M16.4286 11.2714V25.7143H20V11.4286H22.4857C24.5428 11.4286 25.3214 13.1929 25.3428 14.8071C25.3726 15.7098 25.1632 16.6044 24.7357 17.4C25.3428 17.3857 27.0214 17.4929 27.7928 17.55C29.0428 16.3786 29.2928 14.5071 29.2714 13.7143C29.3214 10.8357 26.4286 10 25.1714 10H15.7857L16.4286 11.2714Z" fill="url(#paint1_linear_344_55)"/>
</g>
<defs>
<linearGradient id="paint0_linear_344_55" x1="30.2" y1="18.6214" x2="12.5643" y2="29.6214" gradientUnits="userSpaceOnUse">
<stop offset="0.21"/>
<stop offset="1" stop-color="#EEE4A3"/>
</linearGradient>
<linearGradient id="paint1_linear_344_55" x1="22.5286" y1="10" x2="22.5286" y2="25.9571" gradientUnits="userSpaceOnUse">
<stop offset="0.81"/>
<stop offset="1" stop-color="#E5001C"/>
</linearGradient>
<clipPath id="clip0_344_55">
<rect width="40" height="40" rx="20" fill="white"/>
</clipPath>
</defs>
</svg>
