<svg width="40" height="40" viewBox="0 0 40 40" fill="none" xmlns="http://www.w3.org/2000/svg">
<g clip-path="url(#clip0_344_39)">
<path d="M0 0H40V40H0V0Z" fill="#F2F2F7"/>
<path d="M12.1457 5.71429C11.4936 5.71429 11.1814 6.54144 11.6607 6.99787L25.2936 20L26.015 19.3129C31.0872 14.4736 27.7764 5.71429 20.8743 5.71429H12.1457Z" fill="url(#paint0_linear_344_39)"/>
<path d="M19.4228 25.5986L11.6636 32.9978C11.1836 33.4564 11.4971 34.2857 12.1507 34.2857H21.0407C27.8836 34.2857 31.1664 25.6 26.1364 20.8036L25.2936 20L20.0778 15.0271C22.4507 18.1714 22.5478 22.6036 19.4228 25.5986Z" fill="url(#paint1_linear_344_39)"/>
</g>
<defs>
<linearGradient id="paint0_linear_344_39" x1="11.4286" y1="12.8572" x2="28.4707" y2="12.8572" gradientUnits="userSpaceOnUse">
<stop stop-color="#F25C19"/>
<stop offset="0.599" stop-color="#FBC707"/>
</linearGradient>
<linearGradient id="paint1_linear_344_39" x1="26.0893" y1="18.4621" x2="16.0964" y2="35.9464" gradientUnits="userSpaceOnUse">
<stop stop-color="#1C63B7"/>
<stop offset="0.515" stop-color="#33BDF2"/>
</linearGradient>
<clipPath id="clip0_344_39">
<rect width="40" height="40" rx="20" fill="white"/>
</clipPath>
</defs>
</svg>
