<svg width="40" height="40" viewBox="0 0 40 40" fill="none" xmlns="http://www.w3.org/2000/svg">
<g clip-path="url(#clip0_312_2450)">
<path d="M0 0H40V40H0V0Z" fill="#000050"/>
<path d="M13.9851 15.2712L16.8891 10.2414L22.6971 10.2414L25.6011 15.2712L23.9659 18.1034H25.3993L27.0345 15.2712L23.4138 9H16.1724L12.5517 15.2712L16.1724 21.5424H19.1524L19.8691 20.3011L16.8891 20.3011L13.9851 15.2712Z" fill="#0788FE"/>
<path d="M12.3374 19.3448H14.9036L14.1869 18.1035H11.6207L8 24.3747L11.6207 30.6459H18.8621L22.4828 24.3747L20.8476 21.5424H19.4141L21.0493 24.3747L18.1454 29.4045L12.3374 29.4045L9.43342 24.3747L12.3374 19.3448Z" fill="#A06FFE"/>
<path d="M20.5859 21.5424L21.8546 19.3448L27.6626 19.3448L30.5666 24.3747L27.6626 29.4045L21.8546 29.4045L20.7167 27.4336L20 28.6749L21.1379 30.6459H28.3793L32 24.3747L28.3793 18.1035H21.1379L19.1524 21.5424H20.5859Z" fill="#00D9CB"/>
</g>
<defs>
<clipPath id="clip0_312_2450">
<rect width="40" height="40" rx="20" fill="white"/>
</clipPath>
</defs>
</svg>
