<svg width="40" height="40" viewBox="0 0 40 40" fill="none" xmlns="http://www.w3.org/2000/svg">
<g clip-path="url(#clip0_312_2476)">
<path d="M0 0H40V40H0V0Z" fill="#F2F2F7"/>
<path d="M20.9236 21.6908C20.9236 23.0297 21.4476 24.3104 22.379 25.3001C24.1837 27.1047 26.6869 27.1047 28.2587 26.2315C30.1798 25.1836 34.5458 22.0401 30.0051 9C30.0633 15.1707 20.9236 15.8111 20.9236 21.6908Z" fill="#FF9C1A"/>
<path d="M25.0568 14.4139C24.7658 12.7839 24.3 11.1539 23.5433 9C23.5433 15.1707 14.4618 15.8111 14.4618 21.6908C14.4618 23.0297 14.9857 24.3104 15.9172 25.3001C17.7218 27.1047 20.225 27.1047 21.7968 26.2315C18.1875 22.3893 19.4682 17.9068 25.0568 14.4139Z" fill="#0DA9FF"/>
<path d="M18.595 14.4139C18.304 12.7839 17.78 11.1539 17.0815 9C17.0815 15.1707 8 15.8111 8 21.749C8 24.7761 10.445 26.1151 10.445 26.1151C10.0375 27.7451 9.97929 29.4333 10.2122 31.0633L11.3764 30.8887C10.7943 28.9094 11.1436 26.7554 11.2018 26.5226C12.7154 27.1047 14.229 26.9301 15.335 26.3479C11.7257 22.3893 13.0064 17.9068 18.595 14.4139Z" fill="#00A443"/>
</g>
<defs>
<clipPath id="clip0_312_2476">
<rect width="40" height="40" rx="20" fill="white"/>
</clipPath>
</defs>
</svg>
