<svg width="40" height="40" viewBox="0 0 40 40" fill="none" xmlns="http://www.w3.org/2000/svg">
<g clip-path="url(#clip0_379_5)">
<path d="M0 20C0 8.95431 8.95431 0 20 0C31.0457 0 40 8.95431 40 20C40 31.0457 31.0457 40 20 40C8.95431 40 0 31.0457 0 20Z" fill="#F2F2F7"/>
<path fill-rule="evenodd" clip-rule="evenodd" d="M12.8572 20.3571C12.8572 20.0288 12.7925 19.7037 12.6669 19.4004C12.5412 19.0971 12.3571 18.8215 12.1249 18.5893C11.8928 18.3572 11.6172 18.1731 11.3139 18.0474C11.0106 17.9218 10.6855 17.8571 10.3572 17.8571C10.0289 17.8571 9.70378 17.9218 9.40047 18.0474C9.09716 18.1731 8.82156 18.3572 8.58941 18.5893C8.35726 18.8215 8.17312 19.0971 8.04748 19.4004C7.92184 19.7037 7.85718 20.0288 7.85718 20.3571C7.85718 21.0202 8.12057 21.656 8.58941 22.1249C9.05825 22.5937 9.69414 22.8571 10.3572 22.8571C11.0202 22.8571 11.6561 22.5937 12.1249 22.1249C12.5938 21.656 12.8572 21.0202 12.8572 20.3571ZM11.7857 20.3571C11.7857 19.565 11.1493 18.9285 10.3572 18.9285C9.58075 18.9285 8.92861 19.565 8.92861 20.3571C8.92861 21.15 9.56432 21.7857 10.3572 21.7857C11.1493 21.7857 11.7857 21.15 11.7857 20.3571Z" fill="#006AA7"/>
<path fill-rule="evenodd" clip-rule="evenodd" d="M29.6429 22.8571C30.2932 22.8563 30.9176 22.6026 31.3842 22.1496C31.8508 21.6966 32.1229 21.0799 32.1429 20.43V17.8571H29.6429C28.9798 17.8571 28.344 18.1205 27.8751 18.5893C27.4063 19.0582 27.1429 19.6941 27.1429 20.3571C27.1429 21.0202 27.4063 21.656 27.8751 22.1249C28.344 22.5937 28.9798 22.8571 29.6429 22.8571ZM31.075 20.3571V18.925H29.565C29.2 18.9481 28.8573 19.1087 28.606 19.3745C28.3547 19.6402 28.2134 19.9914 28.2107 20.3571C28.2103 20.5453 28.247 20.7318 28.3188 20.9057C28.3906 21.0797 28.4961 21.2378 28.6292 21.3708C28.7622 21.5039 28.9203 21.6094 29.0943 21.6812C29.2682 21.753 29.4547 21.7897 29.6429 21.7893C29.8311 21.7897 30.0175 21.753 30.1915 21.6812C30.3655 21.6094 30.5235 21.5039 30.6566 21.3708C30.7897 21.2378 30.8952 21.0797 30.967 20.9057C31.0388 20.7318 31.0755 20.5453 31.075 20.3571Z" fill="#84BD00"/>
<path fill-rule="evenodd" clip-rule="evenodd" d="M7.30358 21.9264C6.97498 22.3338 6.52682 22.6277 6.02227 22.7669C5.51773 22.906 4.98224 22.8833 4.4913 22.7019C4.00036 22.5205 3.57873 22.1896 3.28584 21.7558C2.99295 21.3221 2.84358 20.8074 2.85878 20.2842C2.87398 19.761 3.05299 19.2559 3.37057 18.8398C3.68815 18.4238 4.12829 18.118 4.62893 17.9654C5.12957 17.8128 5.66548 17.8212 6.1611 17.9894C6.65671 18.1576 7.08705 18.4771 7.39144 18.9028L6.6193 19.6743C6.49648 19.4467 6.31422 19.2568 6.09194 19.1247C5.86967 18.9926 5.61571 18.9234 5.35715 18.9243C4.57858 18.9243 3.92429 19.5628 3.92429 20.3571C3.92429 21.1514 4.56287 21.79 5.35715 21.79C5.59127 21.7907 5.82198 21.7339 6.02899 21.6246C6.236 21.5152 6.41296 21.3567 6.54429 21.1628L7.30358 21.9264ZM37.0529 18.245L36.6172 19.0628C36.6172 19.0628 34.2857 18.4314 34.2857 19.1528C34.2857 20 37.1429 19.845 37.1429 21.2428C37.1429 22.6407 35.5486 22.8571 35.0979 22.8571C34.6314 22.8571 33.6836 22.7707 32.8572 22.2228L33.3986 21.3371C33.3986 21.3371 36.0714 22.4536 36.0714 21.3871C36.0714 20.6228 33.1429 20.8828 33.1429 19.2393C33.1429 17.4378 36.2257 17.7407 37.0529 18.245ZM26.4286 20.3571C26.4286 19.6941 26.1652 19.0582 25.6963 18.5894C25.2275 18.1205 24.5916 17.8571 23.9286 17.8571C23.2655 17.8571 22.6297 18.1205 22.1608 18.5894C21.692 19.0582 21.4286 19.6941 21.4286 20.3571C21.4286 21.0202 21.692 21.6561 22.1608 22.1249C22.6297 22.5937 23.2655 22.8571 23.9286 22.8571C24.5916 22.8571 25.2275 22.5937 25.6963 22.1249C26.1652 21.6561 26.4286 21.0202 26.4286 20.3571ZM25.3572 20.3571C25.3572 19.565 24.7207 18.9286 23.9286 18.9286C23.1522 18.9286 22.5 19.565 22.5 20.3571C22.5 21.15 23.1357 21.7857 23.9286 21.7857C24.7207 21.7857 25.3572 21.15 25.3572 20.3571Z" fill="#006AA7"/>
<path fill-rule="evenodd" clip-rule="evenodd" d="M25.3572 17.8571H26.4286V23.2143H25.3572V17.8571Z" fill="#006AA7"/>
<path fill-rule="evenodd" clip-rule="evenodd" d="M21.6821 24.3128C21.8499 24.6557 22.094 24.9555 22.3957 25.1894C22.6973 25.4233 23.0485 25.5851 23.4223 25.6622C23.7962 25.7393 24.1827 25.7299 24.5523 25.6345C24.9219 25.5391 25.2648 25.3603 25.5546 25.1119C25.8444 24.8635 26.0735 24.552 26.2243 24.2014C26.375 23.8507 26.4435 23.4702 26.4245 23.089C26.4054 22.7077 26.2993 22.3359 26.1143 22.002C25.9293 21.6682 25.6703 21.3811 25.3571 21.1628V23.1778C25.3577 23.2021 25.3577 23.2264 25.3571 23.2507V23.3185H25.3536C25.3282 23.6789 25.167 24.0161 24.9024 24.2621C24.6379 24.5081 24.2898 24.6444 23.9286 24.6435C23.3528 24.6435 22.86 24.3078 22.6328 23.82L21.7714 24.2521L21.6821 24.3128ZM14.6428 19.6714C14.6428 19.6714 14.6428 18.9285 15.5893 18.9285C16.4286 18.9285 16.4286 19.6714 16.4286 19.6714V22.8571H17.5V19.6143C17.5 19.6143 17.6257 18.9285 18.4214 18.9285C19.23 18.9285 19.2857 19.6428 19.2857 19.6428V22.8571H20.3571V19.22C20.3571 19.22 20.29 17.8571 18.7557 17.8571C17.5278 17.8571 17.1428 18.8193 17.1428 18.8193C17.1428 18.8193 16.9757 17.8571 16.0264 17.8571C15.0778 17.8571 14.6428 18.5714 14.6428 18.5714V17.8571H13.5714V22.8571H14.6428V19.6714Z" fill="#006AA7"/>
</g>
<defs>
<clipPath id="clip0_379_5">
<rect width="40" height="40" fill="white"/>
</clipPath>
</defs>
</svg>
