<svg width="40" height="40" viewBox="0 0 40 40" fill="none" xmlns="http://www.w3.org/2000/svg">
<g clip-path="url(#clip0_312_2464)">
<path d="M0 0H40V40H0V0Z" fill="#F2F2F7"/>
<path d="M21.9026 11.5882H12C11.4477 11.5882 11 12.036 11 12.5882V27.6574C11 28.6502 12.2905 29.0363 12.8357 28.2065L22.7383 13.1374C23.1753 12.4724 22.6983 11.5882 21.9026 11.5882Z" fill="#D92447"/>
<path d="M17.2907 28.4118H27.1932C27.7455 28.4118 28.1932 27.964 28.1932 27.4118L28.1932 12.3426C28.1932 11.3498 26.9028 10.9637 26.3575 11.7935L16.455 26.8626C16.018 27.5276 16.495 28.4118 17.2907 28.4118Z" fill="#46A293"/>
</g>
<defs>
<clipPath id="clip0_312_2464">
<rect width="40" height="40" rx="20" fill="white"/>
</clipPath>
</defs>
</svg>
