<svg width="40" height="40" viewBox="0 0 40 40" fill="none" xmlns="http://www.w3.org/2000/svg">
<g clip-path="url(#clip0_344_159)">
<path d="M0 0H40V40H0V0Z" fill="#00AEEF"/>
<path d="M26.4286 14.2857C26.4286 13.8912 26.1088 13.5714 25.7143 13.5714C25.3198 13.5714 25 13.8912 25 14.2857V24.2857C25 24.6802 25.3198 25 25.7143 25C26.1088 25 26.4286 24.6802 26.4286 24.2857V14.2857Z" fill="white"/>
<path d="M13.5715 17.1428C13.5715 16.7484 13.2517 16.4286 12.8572 16.4286C12.4627 16.4286 12.1429 16.7484 12.1429 17.1428V24.2857C12.1429 24.6802 12.4627 25 12.8572 25C13.2517 25 13.5715 24.6802 13.5715 24.2857V17.1428Z" fill="white"/>
<path d="M13.9535 14.5714C13.9493 14.7662 13.8883 14.9556 13.7779 15.1162C13.6675 15.2767 13.5126 15.4016 13.3323 15.4753C13.1519 15.5491 12.9539 15.5685 12.7627 15.5313C12.5714 15.4941 12.3952 15.4018 12.2557 15.2657C12.0687 15.0825 11.9609 14.8332 11.9557 14.5714C11.9557 14.3065 12.0608 14.0523 12.2481 13.8648C12.4353 13.6773 12.6893 13.5718 12.9543 13.5714C13.0856 13.5713 13.2156 13.597 13.3369 13.6472C13.4583 13.6974 13.5685 13.7711 13.6613 13.864C13.7541 13.9569 13.8276 14.0672 13.8776 14.1886C13.9276 14.31 13.9539 14.4401 13.9535 14.5714ZM31.9878 16.1072C31.3504 16.1061 30.7204 16.2431 30.1409 16.5085C29.5614 16.774 29.0462 17.1617 28.6307 17.645L29.8057 18.6514C30.3056 18.074 31.0138 17.718 31.7755 17.6614C32.5371 17.6048 33.2902 17.8521 33.87 18.3493C34.45 18.8469 34.8103 19.5532 34.8726 20.3148C34.9349 21.0764 34.6942 21.8319 34.2028 22.4172L35.3778 23.4229C35.9244 22.7754 36.2748 21.9853 36.3879 21.1456C36.501 20.3058 36.3721 19.4512 36.0164 18.6822C35.6603 17.9135 35.0918 17.2628 34.378 16.8065C33.6643 16.3503 32.8349 16.1076 31.9878 16.1072Z" fill="#383F45"/>
<path d="M32.0215 24.9593C32.6589 24.9602 33.289 24.8231 33.8685 24.5575C34.4479 24.292 34.9631 23.9042 35.3786 23.4207L34.2036 22.415C33.7036 22.9923 32.9953 23.3482 32.2337 23.4047C31.472 23.4612 30.719 23.2137 30.1393 22.7164C29.5593 22.2189 29.199 21.5126 29.1367 20.7509C29.0744 19.9893 29.3151 19.2338 29.8064 18.6486L28.6314 17.6436C28.0848 18.2911 27.7344 19.0811 27.6213 19.9209C27.5081 20.7606 27.6371 21.6153 27.9929 22.3843C28.349 23.1529 28.9175 23.8037 29.6312 24.2599C30.345 24.7161 31.1743 24.9588 32.0215 24.9593ZM10.7407 22.8929C10.6065 22.7763 10.4364 22.7093 10.2588 22.7028C10.0812 22.6963 9.90669 22.7507 9.7643 22.8571C9.44392 23.1024 9.07573 23.2779 8.68344 23.3723C8.29115 23.4667 7.88344 23.4779 7.48655 23.4053C7.08966 23.3326 6.71237 23.1776 6.37897 22.9504C6.04557 22.7231 5.76344 22.4286 5.55073 22.0857C5.33767 21.743 5.1985 21.3595 5.14212 20.9599C5.08574 20.5602 5.1134 20.1532 5.22333 19.7649C5.33325 19.3766 5.52302 19.0154 5.78049 18.7047C6.03797 18.3939 6.35748 18.1402 6.71859 17.96C7.2014 17.7198 7.74171 17.6193 8.2786 17.6698C8.81548 17.7203 9.32758 17.9198 9.75716 18.2457C9.8962 18.3516 10.067 18.4074 10.2417 18.404C10.4164 18.4006 10.5849 18.3383 10.7197 18.2271C10.8546 18.1159 10.9479 17.9624 10.9845 17.7915C11.0211 17.6206 10.9989 17.4424 10.9214 17.2857C10.87 17.1831 10.7963 17.0933 10.7057 17.0229C10.2135 16.6461 9.64779 16.3767 9.04506 16.232C8.44232 16.0873 7.81595 16.0706 7.20634 16.1828C6.59673 16.2951 6.01742 16.5339 5.50576 16.8838C4.9941 17.2337 4.56146 17.6869 4.23573 18.2143C3.79987 18.9198 3.56966 19.7329 3.57105 20.5622C3.57244 21.3915 3.80537 22.2038 4.24359 22.9079C4.57141 23.4336 5.0057 23.8849 5.51849 24.2327C6.03129 24.5805 6.61122 24.817 7.22096 24.9271C7.8307 25.0372 8.45674 25.0183 9.05877 24.8718C9.66079 24.7253 10.2255 24.4544 10.7164 24.0764C10.8056 24.0065 10.8781 23.9176 10.9287 23.8163C10.9793 23.7149 11.0067 23.6035 11.009 23.4902C11.0112 23.377 10.9882 23.2646 10.9417 23.1613C10.8952 23.058 10.827 22.9663 10.7407 22.8929Z" fill="white"/>
<path fill-rule="evenodd" clip-rule="evenodd" d="M16.7343 21.865C16.6293 21.65 16.8 21.4172 17.04 21.4172H23.2143C23.4037 21.4172 23.5854 21.3419 23.7194 21.2079C23.8533 21.074 23.9286 20.8923 23.9286 20.7029C23.9286 18.2564 22.0821 16.0714 19.4643 16.0714C18.7596 16.0715 18.0649 16.2384 17.437 16.5584C16.8092 16.8785 16.266 17.3426 15.852 17.9129C15.4379 18.4832 15.1648 19.1434 15.0549 19.8395C14.945 20.5356 15.0014 21.2478 15.2196 21.9179C15.4378 22.588 15.8115 23.1969 16.3102 23.6949C16.8089 24.1928 17.4184 24.5656 18.0888 24.7828C18.7593 24.9999 19.4716 25.0553 20.1675 24.9443C20.8634 24.8333 21.5232 24.5592 22.0928 24.1443C22.2459 24.0326 22.3484 23.8647 22.3776 23.6775C22.4069 23.4903 22.3606 23.2992 22.2489 23.1461C22.1372 22.993 21.9693 22.8906 21.7821 22.8613C21.5949 22.832 21.4038 22.8783 21.2507 22.99C20.892 23.2512 20.4804 23.4306 20.0449 23.5156C19.6093 23.6006 19.1605 23.589 18.7299 23.4818C18.2993 23.3745 17.8975 23.1742 17.5527 22.8948C17.2079 22.6155 16.9285 22.264 16.7343 21.865ZM19.4643 17.5C18.8272 17.5 18.2063 17.7002 17.6893 18.0725C17.1724 18.4447 16.7855 18.9701 16.5836 19.5743C16.5136 19.7857 16.6828 19.9886 16.905 19.9886H21.9864C22.2128 19.9886 22.3836 19.7793 22.3078 19.565C21.885 18.3622 20.8021 17.5 19.4643 17.5Z" fill="white"/>
</g>
<defs>
<clipPath id="clip0_344_159">
<rect width="40" height="40" rx="20" fill="white"/>
</clipPath>
</defs>
</svg>
