<svg width="40" height="40" viewBox="0 0 40 40" fill="none" xmlns="http://www.w3.org/2000/svg">
<g clip-path="url(#clip0_312_2485)">
<path d="M0 0H40V40H0V0Z" fill="url(#paint0_linear_312_2485)"/>
<path d="M26.4285 18.5714C26.6735 18.9064 26.9164 19.3107 27.1428 19.6371C28.3435 18.1857 29.5628 16.6 30.3928 15.2343C30.2161 14.8505 30.0182 14.4768 29.8 14.115C28.9978 15.4879 27.7371 17.0357 26.4285 18.5714ZM25.5357 19.6857C25.805 20.0279 26.0571 20.3521 26.2914 20.66C25.8571 21.1629 25.42 21.655 24.9921 22.1286C24.7271 21.8019 24.4597 21.4771 24.19 21.1543C24.6435 20.6714 25.0943 20.1807 25.5357 19.6864V19.6857ZM26.8507 21.4029C26.4341 21.8952 26.0098 22.381 25.5778 22.86C25.7814 23.1186 25.9728 23.3671 26.1514 23.6043C26.576 23.1286 26.9914 22.6447 27.3971 22.1529C27.2173 21.9012 27.0351 21.6512 26.8507 21.4029ZM27.8543 22.8071C27.4454 23.2834 27.0233 23.7481 26.5885 24.2007C26.6564 24.2957 27.1428 24.7936 27.1457 24.7893C27.1457 24.7893 27.5443 24.2736 28.24 23.39C28.1142 23.1941 27.9856 22.9993 27.8543 22.8071ZM27.285 25.2679C27.7514 24.7686 28.1971 24.3086 28.5714 23.8871C28.7893 24.2643 28.8628 24.5014 28.8535 24.5957C28.7993 25.1386 26.4778 29.2671 26.3393 29.5143C25.8214 29.8593 25.2736 30.1643 24.7014 30.4229C26.1514 28.3036 27.285 25.2679 27.285 25.2679ZM29.5157 23.5714C29.4543 23.3757 29.3785 23.2557 29.2857 23.0371C30.8628 21.1871 31.3907 20.2943 31.4285 20.2286C31.4235 20.4893 31.41 20.7479 31.3871 21.0043C29.5157 23.5714 29.9328 22.9971 29.5157 23.5714ZM29.6271 24.0921C27.5978 28.0129 27.5271 28.1693 26.9485 29.0779C29.2014 27.3548 30.7328 24.8553 31.245 22.0657C30.7178 22.7508 30.1784 23.4263 29.6271 24.0921ZM31.2714 18.0893C31.3357 18.4707 31.3814 18.8579 31.4071 19.2507C30.6184 20.3191 29.815 21.3766 28.9971 22.4229C28.8986 22.2271 28.79 22.0243 28.6743 21.8164C29.6192 20.6312 30.4867 19.3862 31.2714 18.0893ZM25.35 24.4786C25.1671 24.2643 24.9614 24.0286 24.7364 23.7757C24.3146 24.2265 23.8869 24.6718 23.4535 25.1114C23.7071 25.3807 23.845 25.5357 24.0057 25.7143C24.9485 24.8857 24.9393 24.9171 25.35 24.4786ZM24.4271 26.22C24.4271 26.22 24.9564 25.8071 25.7878 25.0043C26.1357 25.435 26.4285 25.725 26.4285 25.8279C26.4285 26.7243 24.0357 30.6464 24.0357 30.6464L23.9957 30.7136C23.4643 30.9114 22.9143 31.0707 22.3485 31.1893C23.2935 29.1179 24.46 26.4893 24.4271 26.22ZM31.05 17.0664C30.57 17.8593 29.6343 19.315 28.2485 21.0921C28.0867 20.8293 27.9207 20.569 27.7507 20.3114C29.6936 17.89 30.5843 16.3371 30.735 16.0657C30.855 16.3929 30.96 16.7264 31.05 17.0664ZM23.2493 22.1407C23.5543 22.47 23.8443 22.7857 24.115 23.085C23.6621 23.5729 23.2271 24.0314 22.8235 24.45C22.545 24.16 22.2378 23.8421 21.9078 23.5029C22.3471 23.0636 22.7971 22.6079 23.2493 22.1407ZM20.7143 24.5857L21.7771 25.5229C21.3084 25.9982 20.8341 26.468 20.3543 26.9321L19.2857 26.0479C19.7393 25.6193 20.1978 25.0886 20.7143 24.5857ZM20.6085 27.8571C20.4214 28.6843 20.0207 30.2471 19.4593 31.4179C20.1169 31.4483 20.7759 31.423 21.4293 31.3421C22.1014 30.005 23.2507 27.6221 23.2507 26.9486L22.4171 26.1421C21.8828 26.6636 21.7857 26.7857 20.6085 27.8571ZM25.9121 17.8571C27.4764 15.8743 28.68 14.0657 29.2385 13.2686C27.16 10.4214 23.7964 8.57143 20.0014 8.57143C19.3978 8.57143 18.8057 8.61786 18.2271 8.70857L18.2643 8.73928C18.2643 8.73928 22.5871 13.4643 25.9121 17.8571ZM24.9928 18.9386C24.575 19.45 24.0878 19.9721 23.6371 20.4979C19.7178 15.875 14.2864 10.1407 14.2864 10.1407L14.26 10.1157C14.9233 9.7295 15.624 9.41145 16.3514 9.16643C20.1028 13.1536 22.9828 16.4379 24.9921 18.9379L24.9928 18.9386ZM22.71 21.56C19.4421 18.06 14.8335 13.3636 12.7028 11.2043C12.1551 11.6592 11.6508 12.1639 11.1964 12.7121L11.2043 12.7171C11.2043 12.7171 17.5 18.9857 21.4035 22.9843C21.8463 22.5162 22.2818 22.0414 22.71 21.56ZM20.3114 24.1043L10.1228 14.2471C9.72391 14.9303 9.39738 15.6533 9.14855 16.4043L18.8343 25.5043C19.3383 25.0501 19.8309 24.5833 20.3114 24.1043ZM17.7214 26.4286L8.66712 18.5207C8.5378 19.5198 8.53996 20.5315 8.67355 21.53L16.0557 27.6921C16.6414 27.3164 17.1843 26.8679 17.7228 26.4286H17.7214ZM16.5785 28.5186L16.5835 28.5171C16.5835 28.5171 17.2514 27.9314 18.3 26.9636L19.4964 28.0129L18.4843 31.3307C17.6949 31.2262 16.9187 31.039 16.1685 30.7721L16.5785 28.5186ZM14.9071 30.2357C12.3549 28.9616 10.3691 26.7822 9.33712 24.1229L15 28.7414L14.9071 30.2357Z" fill="#F0F3FA"/>
</g>
<defs>
<linearGradient id="paint0_linear_312_2485" x1="40" y1="20" x2="0" y2="20" gradientUnits="userSpaceOnUse">
<stop stop-color="#E58701"/>
<stop offset="1" stop-color="#E17900"/>
</linearGradient>
<clipPath id="clip0_312_2485">
<rect width="40" height="40" rx="20" fill="white"/>
</clipPath>
</defs>
</svg>
