<svg width="40" height="40" viewBox="0 0 40 40" fill="none" xmlns="http://www.w3.org/2000/svg">
<g clip-path="url(#clip0_344_203)">
<path d="M0 0H40V40H0V0Z" fill="#1D9E44"/>
<path d="M28.1121 23.2664C28.1121 23.8364 27.6607 24.2857 27.0893 24.2857C26.5471 24.2857 26.0657 23.8364 26.0657 23.2664V16.7336C26.0657 16.1643 26.5471 15.7143 27.0893 15.7143C27.6607 15.7143 28.1121 16.1643 28.1121 16.7036V23.2664ZM34.9757 16.2843C35.2764 16.4336 35.4871 16.7629 35.4871 17.1529C35.4871 17.7221 35.0357 18.1721 34.4943 18.1721C34.2835 18.1721 34.1028 18.1121 33.9521 18.0221C33.611 17.832 33.2283 17.729 32.8378 17.7221C32.5381 17.7216 32.2413 17.7801 31.9642 17.8942C31.6871 18.0084 31.4352 18.176 31.2229 18.3875C31.0105 18.5991 30.842 18.8503 30.7268 19.127C30.6115 19.4037 30.552 19.7003 30.5514 20C30.5519 20.2999 30.6114 20.5967 30.7267 20.8736C30.8419 21.1504 31.0106 21.4018 31.2231 21.6134C31.4356 21.825 31.6877 21.9927 31.965 22.1068C32.2423 22.221 32.5394 22.2793 32.8393 22.2786C33.7421 22.2786 34.495 21.7386 34.8864 21.0193H32.8393C32.2671 21.0193 31.8157 20.5393 31.8157 20C31.8157 19.4307 32.2671 18.9807 32.8393 18.9807H36.1207C36.6921 18.9807 37.1435 19.4307 37.1435 20C37.1435 22.3679 35.2171 24.2857 32.8393 24.2857C30.4607 24.2857 28.535 22.3679 28.535 20C28.535 17.6329 30.4614 15.7143 32.8393 15.7143C33.6221 15.7143 34.3435 15.9243 34.9757 16.2843ZM9.41854 16.3443C9.71997 16.5229 9.90069 16.8529 9.90069 17.2136C9.90069 17.7821 9.44926 18.2321 8.90783 18.2321C8.69712 18.2321 8.5164 18.1721 8.36569 18.0521C8.00005 17.8388 7.58475 17.7252 7.1614 17.7229C6.86162 17.722 6.56461 17.7803 6.28735 17.8943C6.01009 18.0083 5.75802 18.1758 5.54555 18.3873C5.33307 18.5988 5.16436 18.85 5.04905 19.1268C4.93375 19.4035 4.87411 19.7002 4.87355 20C4.87401 20.2999 4.93358 20.5967 5.04883 20.8736C5.16409 21.1504 5.33278 21.4018 5.54525 21.6134C5.75773 21.825 6.00982 21.9927 6.28713 22.1068C6.56444 22.221 6.86153 22.2793 7.1614 22.2786C7.64877 22.2777 8.12286 22.1197 8.51328 21.828C8.9037 21.5363 9.18961 21.1264 9.32855 20.6593L10.6235 16.4021C10.7435 15.9829 11.135 15.7129 11.5864 15.7129H15.47C16.0414 15.7129 16.4928 16.2536 16.4928 16.7929C16.4928 17.3629 16.0414 17.8571 15.4693 17.8571H12.6393C12.4593 17.8571 12.3085 17.9321 12.2485 18.0821L11.2857 21.2286C10.7428 22.9971 9.08783 24.2857 7.1614 24.2857C4.78283 24.2857 2.85712 22.3679 2.85712 20C2.85712 17.6329 4.78355 15.7143 7.1614 15.7143C7.97426 15.7143 8.7564 15.9543 9.41854 16.3443ZM15.3221 21.8457L17.005 16.4336C17.0661 16.2257 17.193 16.0433 17.3666 15.9136C17.5402 15.7839 17.7511 15.714 17.9678 15.7143H18.1793C18.6307 15.7143 19.0221 16.0143 19.1421 16.4036L20.3164 20.18L21.43 16.4336C21.55 16.0143 21.9414 15.7143 22.4228 15.7143H22.6343C23.085 15.7143 23.4771 16.0143 23.5971 16.4036L25.6143 22.9671C25.6443 23.0564 25.6443 23.1764 25.6443 23.2671C25.6443 23.8364 25.1921 24.2857 24.6507 24.2857C24.1993 24.2857 23.8078 23.9857 23.6878 23.5664L22.5135 19.8207L21.3693 23.5964C21.2493 23.9864 20.8578 24.2857 20.4064 24.2857H20.1957C19.7443 24.2857 19.3528 23.9857 19.2321 23.5664L18.0893 19.8207L16.9693 23.5664C16.8185 23.9857 16.4571 24.2857 15.9764 24.2857H12.0928C11.55 24.2857 11.105 23.7464 11.105 23.1764C11.105 22.6371 11.5593 22.1457 12.1014 22.1457H15C15.1807 22.1457 15.2621 22.0257 15.3221 21.8457Z" fill="white"/>
<path d="M14.5064 18.9807C15.0478 18.9807 15.5 19.4307 15.5 20C15.5 20.57 15.0478 21.02 14.4764 21.02H13.1214C12.55 21.02 12.0978 20.57 12.0978 20C12.0978 19.4307 12.55 18.9807 13.1214 18.9807H14.5064Z" fill="url(#paint0_linear_344_203)"/>
</g>
<defs>
<linearGradient id="paint0_linear_344_203" x1="12" y1="20" x2="15" y2="20" gradientUnits="userSpaceOnUse">
<stop stop-color="#72BB75"/>
<stop offset="1" stop-color="#C3D223"/>
</linearGradient>
<clipPath id="clip0_344_203">
<rect width="40" height="40" rx="20" fill="white"/>
</clipPath>
</defs>
</svg>
