<svg width="40" height="40" viewBox="0 0 40 40" fill="none" xmlns="http://www.w3.org/2000/svg">
<g clip-path="url(#clip0_564_6)">
<path d="M0 0H40V40H0V0Z" fill="#0064AA"/>
<path d="M5.86072 22.1429C5.65501 22.1471 5.45052 22.1102 5.25929 22.0343C5.06801 21.9534 4.89467 21.8354 4.74929 21.6871C4.4543 21.3841 4.28903 20.9779 4.28857 20.555V19.4679C4.28857 18.5836 4.99215 17.8571 5.86072 17.8571H16.2857C16.7029 17.8571 17.1029 18.0357 17.3971 18.3357C17.6921 18.6357 17.8579 19.0143 17.8579 19.4393V20.585C17.8571 21.4686 17.1536 22.1429 16.2857 22.1429H5.86072ZM23.715 22.1429C23.5079 22.1429 23.3043 22.1164 23.1129 22.0357C22.9216 21.9548 22.7482 21.8369 22.6029 21.6886C22.4565 21.5393 22.3408 21.3629 22.2621 21.1693C22.1831 20.9856 22.1422 20.7878 22.1421 20.5879V19.4271C22.1421 18.5429 22.8464 17.855 23.715 17.855H34.1421C35.0107 17.855 35.7143 18.5714 35.7143 19.455V20.5564C35.7159 20.7639 35.6764 20.9697 35.5982 21.1619C35.52 21.3542 35.4046 21.529 35.2585 21.6765C35.1125 21.8239 34.9387 21.941 34.7473 22.021C34.5558 22.1011 34.3504 22.1425 34.1429 22.1429H23.715ZM14.68 31.4286C14.4022 31.43 14.1291 31.3567 13.8893 31.2164C13.6478 31.0751 13.4482 30.8723 13.3107 30.6286L9.36929 24.2957C9.29098 24.1576 9.26513 23.9959 9.29649 23.8403C9.32786 23.6846 9.41432 23.5456 9.54 23.4486C9.62287 23.3855 9.72003 23.3437 9.82286 23.3271L12.5836 22.8571C12.9293 22.8571 13.1721 22.8893 13.4371 23.0193C13.7029 23.1493 13.9229 23.3586 14.0679 23.6193L16.0914 26.9264C16.17 27.0607 16.2636 27.1429 16.4286 27.1429H23.5714C23.7371 27.1429 24.0257 27.0607 24.1043 26.9264L25.9171 23.63C26.0611 23.3705 26.2809 23.1612 26.5471 23.03C26.8129 22.9 27.0014 22.8571 27.3329 22.8571L30.1621 23.3371C30.2655 23.3535 30.3631 23.3953 30.4463 23.4586C30.5296 23.5219 30.5959 23.6048 30.6393 23.7C30.6883 23.7947 30.7141 23.8998 30.7143 24.0064C30.7051 24.1129 30.6708 24.2157 30.6143 24.3064L26.9164 30.6293C26.7789 30.8729 26.5793 31.0757 26.3379 31.2171C26.0978 31.3574 25.8244 31.4305 25.5464 31.4286H14.68ZM14.6221 8.57143C14.3443 8.56928 14.0721 8.64285 13.8307 8.78285C13.59 8.92285 13.3907 9.12571 13.2521 9.37071L9.36929 15.7129C9.29078 15.851 9.26482 16.0129 9.29619 16.1687C9.32756 16.3245 9.41414 16.4637 9.54 16.5607C9.62284 16.6239 9.72001 16.6656 9.82286 16.6821L12.5836 17.1429C12.9136 17.1429 13.1721 17.12 13.4371 16.99C13.7036 16.8589 13.9237 16.6496 14.0679 16.39L16.03 13.1121C16.1086 12.9771 16.2636 12.8571 16.4286 12.8571H23.5714C23.7371 12.8571 23.9643 12.9786 24.0429 13.1121L25.9 16.4186C26.045 16.6793 26.2643 16.8886 26.53 17.0186C26.795 17.1486 27.0929 17.1929 27.3836 17.1457L29.9621 16.6914C30.1357 16.6121 30.5686 16.5357 30.6557 16.3486C30.6995 16.2523 30.7196 16.147 30.7143 16.0414C30.71 15.9357 30.65 15.8321 30.5971 15.7414L26.8571 9.37C26.7196 9.1266 26.5199 8.92401 26.2786 8.78285C26.0384 8.64236 25.7647 8.56931 25.4864 8.57143H14.6214H14.6221Z" fill="#F6F8FD"/>
</g>
<defs>
<clipPath id="clip0_564_6">
<rect width="40" height="40" rx="20" fill="white"/>
</clipPath>
</defs>
</svg>
