<svg width="40" height="40" viewBox="0 0 40 40" fill="none" xmlns="http://www.w3.org/2000/svg">
<g clip-path="url(#clip0_384_9)">
<path d="M0 20C0 8.95431 8.95431 0 20 0C31.0457 0 40 8.95431 40 20C40 31.0457 31.0457 40 20 40C8.95431 40 0 31.0457 0 20Z" fill="#FF0F70"/>
<path d="M28.6671 26.8736C27.5862 28.0842 26.2612 29.0523 24.7793 29.7143C23.2975 30.3763 21.6923 30.7171 20.0693 30.7143C13.7193 30.7143 8.57141 25.5979 8.57141 19.2857C8.57141 12.9736 13.7193 7.85715 20.0693 7.85715C25.7978 7.85715 30.5478 12.0214 31.4228 17.47H27.6464C26.8271 14.0057 23.7143 11.4286 20 11.4286C15.6607 11.4286 12.1428 14.9464 12.1428 19.2857C12.1428 23.625 15.6607 27.1429 20 27.1429C22.45 27.1429 24.6393 26.0214 26.08 24.2629L28.6671 26.8736Z" fill="url(#paint0_linear_384_9)"/>
<path d="M12.1428 19.2857H8.57141C8.57141 12.9736 13.7193 7.85715 20.0693 7.85715C25.7978 7.85715 30.5478 12.0214 31.4228 17.47H27.6464C26.8271 14.0057 23.7143 11.4286 20 11.4286C15.6607 11.4286 12.1428 14.9464 12.1428 19.2857Z" fill="#F0F3FA"/>
<path d="M19.2857 17.1429H31.4286V20.7143H19.2857V17.1429Z" fill="#F0F3FA"/>
</g>
<defs>
<linearGradient id="paint0_linear_384_9" x1="11.0714" y1="26.0714" x2="22.8571" y2="19.2857" gradientUnits="userSpaceOnUse">
<stop stop-color="#F0F3FA"/>
<stop offset="0.568" stop-color="#F0F3FA"/>
<stop offset="1" stop-color="#FFE5D9" stop-opacity="0"/>
</linearGradient>
<clipPath id="clip0_384_9">
<rect width="40" height="40" fill="white"/>
</clipPath>
</defs>
</svg>
