<svg width="40" height="40" viewBox="0 0 40 40" fill="none" xmlns="http://www.w3.org/2000/svg">
<g clip-path="url(#clip0_344_137)">
<path d="M0 0H40V40H0V0Z" fill="#0098D1"/>
<path d="M33.2715 13.0107C28.61 16.6464 24.2143 17.365 24.2143 17.365L23.715 18.8014C29.4065 17.4279 32.0722 15.0086 32.8786 14.1943C33.1015 13.5179 33.2715 13.0107 33.2715 13.0107Z" fill="#FFAB1E"/>
<path d="M20.5828 13.275C28.6207 12.5143 31.9657 10.8871 34.9493 9.42856C34.9493 9.42856 34.875 9.61927 34.5878 10.3907C33.93 10.9507 29.1943 14.0571 19.6486 14.8921L20.5828 13.275Z" fill="#A5E030"/>
<path d="M5.85574 16.1386L4.84717 17.8507C21.1036 18.2943 26.8586 16.065 29.6722 14.4586C29.81 14.2371 30.1393 13.5814 30.2565 13.3386C24.5436 15.79 16.0172 16.8471 5.85645 16.1386H5.85574Z" fill="#FF4D46"/>
<path d="M11.8857 25.7157L11.64 27.1429H9.02572C6.41429 27.1429 5.44072 25.8164 5.88715 23.5814C6.33286 21.335 7.88 19.9886 10.47 19.9886H13.1814L12.8357 21.4286H10.2629C8.87215 21.4286 8.26643 22.2143 8.02286 23.4686C7.77858 24.6779 7.88429 25.7157 9.29643 25.7157H11.8857ZM16.4271 24.3036C16.0021 24.315 15.3329 24.3036 15.0043 24.3036L14.3986 27.1422H12.36L13.7714 20H17.0307C17.9021 20 18.645 20.025 19.1757 20.3914C19.7707 20.8036 19.9721 21.4557 19.8236 22.2222C19.4907 23.9093 17.9243 24.2507 16.4271 24.3036ZM16.4271 21.4364H15.5343L15.2943 22.8722H16.1014C16.9614 22.8722 17.68 22.8722 17.8071 22.1764C17.9557 21.3643 17.255 21.4364 16.4271 21.4364ZM28.4714 25.085C28.3979 25.4607 28.61 25.7143 28.95 25.7143H31.755L31.1164 27.1429H26.9436C26.3914 27.1429 26.0414 26.6143 26.1579 25.9986L27.3579 20H29.4179L28.4714 25.085ZM22.5786 22.8572H25.7643L25.4557 24.2857H22.27L21.6871 27.1429H19.68L20.87 21.1122C20.9971 20.4943 21.5386 20 22.1014 20H26.4386L26.0936 21.4286H23.4814C23.1421 21.4286 22.8029 21.7564 22.7279 22.1336L22.5786 22.8572Z" fill="white"/>
</g>
<defs>
<clipPath id="clip0_344_137">
<rect width="40" height="40" rx="20" fill="white"/>
</clipPath>
</defs>
</svg>
