<svg width="40" height="40" viewBox="0 0 40 40" fill="none" xmlns="http://www.w3.org/2000/svg">
<g clip-path="url(#clip0_344_134)">
<path d="M0 0H40V40H0V0Z" fill="#F56600"/>
<path d="M9.75784 9.28571H16.5414L19.3271 14.2857H15.355L18.1657 19.2857H11.3821L8.57141 14.2857H12.3814L9.75784 9.28571ZM30.2921 9.28571H23.4836L20.6721 14.2857H24.67L21.8343 19.2857H28.6428L31.4286 14.2857H27.5621L30.2921 9.28571ZM9.78784 30.7143H16.5278L19.3278 25.7143H15.3707L18.17 20.7143H11.4043L8.57141 25.7143H12.3714L9.78784 30.7143ZM30.32 30.7143H23.4914L20.6721 25.7143H24.6821L21.8378 20.7143H28.6664L31.4286 25.7143H27.5821L30.32 30.7143Z" fill="white"/>
</g>
<defs>
<clipPath id="clip0_344_134">
<rect width="40" height="40" rx="20" fill="white"/>
</clipPath>
</defs>
</svg>
