<svg width="40" height="40" viewBox="0 0 40 40" fill="none" xmlns="http://www.w3.org/2000/svg">
<g clip-path="url(#clip0_344_32)">
<path d="M0 0H40V40H0V0Z" fill="#F2F2F7"/>
<path d="M5.71429 20.0143C5.71429 20.1429 5.76429 20.2714 5.85715 20.35L13.9857 28.5429C14.0143 28.5571 14.05 28.5714 14.0929 28.5714C14.1929 28.5714 14.2857 28.4929 14.2857 28.3786C14.2855 28.3582 14.281 28.3381 14.2723 28.3196C14.2637 28.3011 14.2512 28.2847 14.2357 28.2714C12.4286 26.0714 11.4286 23.3857 11.4286 20C11.4286 16.6143 12.4286 13.9214 14.2357 11.7286C14.2512 11.7153 14.2637 11.6989 14.2723 11.6804C14.281 11.6619 14.2855 11.6418 14.2857 11.6214C14.2857 11.5703 14.2654 11.5212 14.2292 11.4851C14.1931 11.4489 14.144 11.4286 14.0929 11.4286C14.0553 11.4292 14.0185 11.439 13.9857 11.4571L5.85715 19.65C5.76815 19.7508 5.71756 19.8798 5.71429 20.0143Z" fill="#EE1C25"/>
<path d="M15.7143 19.9857C15.6429 24.8714 17.0714 28.5714 20.2357 28.5714C21.5429 28.5714 23.0714 27.9429 23.8 26.4929C24.1428 25.8 23.4357 25.9786 23.4357 25.9786C22.0643 26 21.5429 24.9357 21.5429 23.9071C21.5419 23.5561 21.6107 23.2084 21.7452 22.8842C21.8797 22.56 22.0773 22.2657 22.3265 22.0185C22.5758 21.7713 22.8716 21.5761 23.1969 21.4441C23.5222 21.3122 23.8704 21.2462 24.2214 21.25C25.7214 21.25 26.9929 22.4214 27.0571 23.9C27.15 25.8429 26.5571 27.0429 25.8 28C25.7786 28.0143 25.7786 28.05 25.7786 28.0714C25.7786 28.1714 25.8571 28.2643 25.9571 28.2643C26 28.2643 26.0286 28.25 26.0643 28.2357L34.1429 20.3214C34.2214 20.25 34.2857 20.1214 34.2857 20C34.2869 19.9392 34.2748 19.8789 34.2501 19.8234C34.2254 19.7678 34.1888 19.7184 34.1429 19.6786L26.0714 11.7714C26.0372 11.7496 25.9977 11.7373 25.9571 11.7357C25.9331 11.7357 25.9093 11.7405 25.8871 11.75C25.865 11.7594 25.845 11.7732 25.8283 11.7905C25.8116 11.8079 25.7986 11.8284 25.7901 11.8509C25.7815 11.8734 25.7776 11.8974 25.7786 11.9214C25.7786 11.95 25.7786 11.9857 25.8 11.9929C26.7325 13.1488 27.1829 14.6201 27.0571 16.1C27.0133 16.8207 26.6948 17.4971 26.1673 17.99C25.6398 18.483 24.9434 18.755 24.2214 18.75C23.871 18.7538 23.5234 18.688 23.1985 18.5565C22.8737 18.4251 22.5782 18.2305 22.3291 17.984C22.08 17.7376 21.8822 17.4441 21.7473 17.1208C21.6123 16.7974 21.5428 16.4504 21.5429 16.1C21.5429 15.0643 22.0643 14 23.4357 14.0214C23.4357 14.0214 24.1429 14.2071 23.7929 13.5071C23.4452 12.8703 22.93 12.3407 22.303 11.9756C21.676 11.6105 20.9611 11.4238 20.2357 11.4357C17.0571 11.3857 15.7929 15.1 15.7143 19.9857Z" fill="#005BAA"/>
</g>
<defs>
<clipPath id="clip0_344_32">
<rect width="40" height="40" rx="20" fill="white"/>
</clipPath>
</defs>
</svg>
