<svg width="40" height="40" viewBox="0 0 40 40" fill="none" xmlns="http://www.w3.org/2000/svg">
<g clip-path="url(#clip0_344_272)">
<path d="M0 0H40V40H0V0Z" fill="#F2F2F7"/>
<path d="M27.5572 8.51428L25.4857 14.7714C14.3429 14.7143 15.0214 29.5571 24.0714 30.2214C24.7214 30.2643 25.0429 30.1786 24.1786 30.25C20.8929 30.2357 18.4429 29.1071 16.7 27.45C13.9857 24.8786 12.7072 20.7428 13.2357 17.0357C13.4565 15.3823 14.0628 13.8039 15.0058 12.4279C15.9488 11.0519 17.202 9.91686 18.6643 9.11428C21.1357 7.73571 24.15 7.42142 27.5572 8.51428Z" fill="#7FCC45"/>
<path d="M10.9286 11.8071L14.1857 13.8643C13.7071 14.8643 13.4 15.9286 13.2357 17.0357C12.7071 20.75 13.9857 24.8714 16.7 27.45C18.4357 29.0928 20.8643 30.2214 24.1286 30.25C24.7286 30.25 25.1786 30.1571 25.7714 30.0357L26.7214 29.8428C25.2956 30.4534 23.7581 30.7599 22.2071 30.7428C20.3301 30.6843 18.4893 30.2108 16.817 29.3561C15.1448 28.5015 13.6827 27.287 12.5357 25.8C10.9881 23.8256 10.032 21.4529 9.77856 18.9571C9.54284 16.55 9.97856 14.1571 10.9214 11.8143" fill="#009CD9"/>
<path d="M11.3714 24.0357L9.28571 25.2786C12.1143 30.5071 20.0428 34.6714 27.8571 30.3286L27.4714 29.5428L26.2 29.95L26.7214 29.8428C25.2956 30.4534 23.7581 30.7599 22.2071 30.7428C20.3301 30.6844 18.4893 30.2108 16.8171 29.3561C15.1448 28.5015 13.6827 27.287 12.5357 25.8C12.1071 25.2428 11.7143 24.6571 11.3714 24.0357Z" fill="#0578B5"/>
</g>
<defs>
<clipPath id="clip0_344_272">
<rect width="40" height="40" rx="20" fill="white"/>
</clipPath>
</defs>
</svg>
