<svg width="40" height="40" viewBox="0 0 40 40" fill="none" xmlns="http://www.w3.org/2000/svg">
<g clip-path="url(#clip0_312_2581)">
<rect width="40" height="40" fill="#F2F2F7"/>
<path d="M25.5156 14.4824C25.2316 14.188 24.9674 13.8657 24.6591 13.5993C24.1086 13.1188 23.5325 12.6691 22.9666 12.2063L22.815 12.1165C22.7414 12.0282 22.6855 11.9105 22.5942 11.856C21.8488 11.4145 21.1225 10.9273 20.3417 10.5734C18.5866 9.7823 16.7359 9.61305 14.8381 9.89783C12.6922 10.2194 10.826 11.0635 9.37048 12.7214C9.30836 12.7721 9.23888 12.8131 9.16443 12.8428C9.44112 12.4241 9.67954 11.9774 9.99965 11.5918C11.269 10.0428 12.8475 8.89189 14.6703 8.08169C15.9965 7.47886 17.4114 7.09443 18.8604 6.94328C19.5864 6.86266 20.3162 6.8209 21.0467 6.81818C23.0968 6.83805 24.9718 7.49519 26.746 8.48274C27.929 9.13039 29.006 9.95502 29.9397 10.9281C30.502 11.5219 30.9759 12.1989 31.4895 12.8413C31.5123 12.9473 31.5388 13.0518 31.5565 13.1585C31.6256 13.5721 31.7824 13.9959 31.7419 14.3992C31.6043 15.7687 30.3923 16.4265 29.2348 16.2845C28.0213 16.1373 27.0043 15.5383 26.0263 14.8525C25.9148 14.79 25.7975 14.7385 25.6761 14.6987L25.6025 14.6251L25.5156 14.4824Z" fill="#417FE2"/>
<path d="M28.4717 30.9734C28.0029 31.2913 27.5466 31.6291 27.0624 31.9219C25.7379 32.7233 24.2771 33.1825 22.7811 33.5033C21.5513 33.7647 20.2878 33.8293 19.0377 33.6947C17.8647 33.5722 16.7118 33.3022 15.6063 32.8911C14.43 32.4618 13.329 31.8491 12.3441 31.0757C11.7481 30.6054 11.1815 30.0947 10.6281 29.5745C10.3411 29.3044 10.113 28.9725 9.85614 28.6694C9.96262 28.7061 10.0656 28.7524 10.1637 28.8077C10.6789 29.1587 11.1594 29.5576 11.6958 29.8644C12.6966 30.4369 13.8056 30.6555 14.9455 30.7556C16.4393 30.8866 17.9177 30.8792 19.3446 30.3427C20.2681 29.9983 21.1659 29.5944 21.9444 28.9681C22.8556 28.5467 23.6528 27.9137 24.2698 27.1218L24.361 27.0482L24.4346 26.9746C24.5125 26.9497 24.5867 26.9145 24.6554 26.8701C25.0366 26.5449 25.3971 26.1946 25.7923 25.8885C26.4082 25.4116 27.0065 24.8921 27.6835 24.5219C28.5997 24.0208 29.7609 24.3174 30.3128 25.1187C30.7742 25.7869 30.8228 26.5618 30.7124 27.3411C30.5431 28.545 29.9081 29.4994 29.067 30.3391C28.9591 30.4632 28.8607 30.5953 28.7726 30.7342L28.6924 30.8218L28.6372 30.8763L28.4717 30.9734Z" fill="#004D86"/>
<path d="M21.9444 28.9681C21.1681 29.5973 20.2703 29.9983 19.3468 30.3457C17.9199 30.8821 16.4415 30.8895 14.9477 30.7585C13.8078 30.6584 12.6988 30.4399 11.6981 29.8674C11.1616 29.5605 10.6781 29.1616 10.166 28.8106C10.0678 28.7554 9.96484 28.7091 9.85836 28.6723L9.68616 28.4949L9.59344 28.3058C9.17252 27.6752 8.67948 27.0798 8.35201 26.4036C8.00938 25.6798 7.75015 24.9194 7.57934 24.1371C7.40013 23.3305 7.29812 22.5088 7.27469 21.6829C7.25555 21.0464 7.38065 20.4003 7.49545 19.7696C7.53372 19.5489 7.68825 19.3222 7.84573 19.1486C8.1938 18.7637 8.47196 18.7872 8.66844 19.2817C8.9179 19.9095 9.08716 20.5725 9.25714 21.2296C9.63686 22.7014 10.1534 24.1069 11.049 25.3505C12.0903 26.7958 13.4811 27.787 15.1162 28.4412C16.7315 29.0836 18.3975 29.5178 20.1548 29.3979C20.5963 29.3684 21.0283 29.2198 21.4632 29.119C21.6228 29.0741 21.7811 29.0152 21.9444 28.9681Z" fill="#76A7E3"/>
<path d="M9.16587 12.8524C9.24032 12.8226 9.3098 12.7817 9.37191 12.731C10.8275 11.073 12.6937 10.229 14.8395 9.90739C16.7403 9.62261 18.5881 9.79186 20.3431 10.5829C21.1268 10.9369 21.8502 11.427 22.5956 11.8656C22.6884 11.92 22.7428 12.0378 22.8164 12.1261C22.2417 11.909 21.6832 11.619 21.0893 11.491C19.9855 11.2533 18.8552 11.1231 17.7182 11.3092C16.9551 11.4358 16.1729 11.4903 15.4304 11.6963C14.045 12.0768 12.7752 12.794 11.7341 13.784C11.1778 14.3109 10.6303 14.8481 10.071 15.3705C9.88978 15.5441 9.68901 15.6959 9.47273 15.8231C8.8958 16.1476 8.35714 15.84 8.36523 15.1807C8.37406 14.3852 8.66915 13.6721 9.07609 13.001L9.1666 12.8538L9.16587 12.8524Z" fill="#014D86"/>
<path d="M28.7668 30.7386C28.8549 30.5997 28.9533 30.4676 29.0611 30.3435C29.9022 29.5038 30.5373 28.5494 30.7065 27.3455C30.8169 26.5662 30.7684 25.7913 30.307 25.1232C29.7551 24.3218 28.5938 24.0252 27.6777 24.5264C27.0007 24.8943 26.4024 25.416 25.7865 25.8929C25.3913 26.199 25.0307 26.5493 24.6495 26.8745C24.5809 26.919 24.5066 26.9541 24.4288 26.979C24.5318 26.809 24.6238 26.6317 24.7393 26.4713C25.3611 25.6066 25.9572 24.7206 26.6232 23.892C27.0846 23.318 27.5872 22.7448 28.1744 22.3121C29.4379 21.3797 31.1179 21.8551 31.8538 23.2489C32.4947 24.4616 32.3417 25.6662 31.8795 26.8753C31.3269 28.3213 30.3754 29.47 29.1958 30.4428C29.0626 30.5532 28.911 30.6408 28.7668 30.7386Z" fill="#407FE2"/>
<path d="M25.6761 14.6965C25.7976 14.7363 25.9149 14.7878 26.0264 14.8503C27.0043 15.5361 28.0213 16.1337 29.2348 16.2823C30.3923 16.4243 31.6043 15.7672 31.7419 14.397C31.7824 13.9937 31.6257 13.5699 31.5565 13.1563C31.5388 13.0496 31.5123 12.9451 31.4895 12.8391C32.0865 13.6259 32.4917 14.541 32.6728 15.5119C32.7895 16.1139 32.7178 16.7373 32.4675 17.2971C31.8104 18.8358 29.8728 19.284 28.5041 18.2442C27.7498 17.6731 27.2428 16.8997 26.6953 16.158C26.3406 15.6818 26.0146 15.1844 25.6761 14.6965Z" fill="#76A7E3"/>
</g>
<defs>
<clipPath id="clip0_312_2581">
<rect width="40" height="40" rx="20" fill="white"/>
</clipPath>
</defs>
</svg>
