<svg width="40" height="40" viewBox="0 0 40 40" fill="none" xmlns="http://www.w3.org/2000/svg">
<g clip-path="url(#clip0_344_46)">
<path d="M0 0H40V40H0V0Z" fill="#046EAB"/>
<path d="M9.20715 19.3857L9.60001 16.7428C9.05318 16.5595 8.48335 16.4537 7.90715 16.4286C7.12143 16.4286 4.49286 16.6786 3.72143 19.6C2.95001 22.5214 5.35715 23.5571 6.44286 23.5714C7.31429 23.5857 8.19286 23.4 8.52858 23.3071L8.97144 20.6786C8.75715 20.8928 8.13572 21.3214 7.48572 21.3214C6.67143 21.3214 6.09286 20.7714 6.27143 19.8786C6.44286 18.9857 7.42858 18.5928 7.90715 18.6357C8.42141 18.7075 8.8876 18.9764 9.20715 19.3857ZM12.3929 16.4286L8.90001 23.5714H11.5786L12.1214 22.1428H13.7714L13.9071 23.5714H16.6071L15.2214 16.4286H12.3929ZM13.6429 20.7143H12.6643L13.45 18.6286L13.6429 20.7143ZM28.0072 23.5714L31.4929 16.4286H34.3214L35.7143 23.5714H33.0143L32.8786 22.1428H31.2286L30.6857 23.5714H28.0072ZM31.7643 20.7143H32.75L32.5572 18.6286L31.7714 20.7143H31.7643ZM20.8 16.4286H18.1857L17.0857 23.5714H19.6929L20.8 16.4286ZM23.1214 20.3571H26.1786L27.8357 23.5714H24.7714L23.1214 20.3571Z" fill="white"/>
<path d="M26.15 20.3571H23.0928L19.7857 23.5714H22.8428L26.15 20.3571ZM29.6928 16.4286H26.6357L23.3286 19.6428H26.3857L29.6928 16.4286Z" fill="#F39200"/>
<path d="M21.6786 16.4286H24.7357L26.3929 19.6428H23.3286L21.6786 16.4286Z" fill="white"/>
</g>
<defs>
<clipPath id="clip0_344_46">
<rect width="40" height="40" rx="20" fill="white"/>
</clipPath>
</defs>
</svg>
