<svg width="40" height="40" viewBox="0 0 40 40" fill="none" xmlns="http://www.w3.org/2000/svg">
<g clip-path="url(#clip0_344_192)">
<path d="M0 0H40V40H0V0Z" fill="#CB2025"/>
<path fill-rule="evenodd" clip-rule="evenodd" d="M25 25.8928C25.001 25.9623 24.9882 26.0312 24.9625 26.0957C24.9368 26.1602 24.8987 26.219 24.8503 26.2687C24.8018 26.3185 24.7441 26.3582 24.6803 26.3856C24.6166 26.413 24.548 26.4276 24.4786 26.4286H15.5214C15.452 26.4276 15.3835 26.413 15.3197 26.3856C15.2559 26.3582 15.1982 26.3185 15.1498 26.2687C15.1013 26.219 15.0632 26.1602 15.0375 26.0957C15.0118 26.0312 14.9991 25.9623 15 25.8928V16.9643C14.9991 16.8949 15.0118 16.8259 15.0375 16.7614C15.0632 16.697 15.1013 16.6382 15.1498 16.5884C15.1982 16.5387 15.2559 16.4989 15.3197 16.4715C15.3835 16.4441 15.452 16.4295 15.5214 16.4286H24.4786C24.7643 16.4286 25 16.6714 25 16.9571V25.8928ZM11.4286 30V12.8571H28.5714V30H11.4286ZM20 6.42856L28.5714 11.4286H11.4286L20 6.42856Z" fill="white"/>
</g>
<defs>
<clipPath id="clip0_344_192">
<rect width="40" height="40" rx="20" fill="white"/>
</clipPath>
</defs>
</svg>
