<svg width="40" height="40" viewBox="0 0 40 40" fill="none" xmlns="http://www.w3.org/2000/svg">
<g clip-path="url(#clip0_344_218)">
<path d="M0 0H40V40H0V0Z" fill="#003CA4"/>
<path fill-rule="evenodd" clip-rule="evenodd" d="M20 8.57144H10.4C12.9803 15.972 12.9803 24.028 10.4 31.4286H20C23.0311 31.4286 25.938 30.2245 28.0812 28.0812C30.2245 25.938 31.4286 23.0311 31.4286 20C31.4286 16.969 30.2245 14.0621 28.0812 11.9188C25.938 9.77552 23.0311 8.57144 20 8.57144ZM19.2857 13.5714H15.7143V26.4286H19.2857C20.13 26.4286 20.9659 26.2623 21.7458 25.9392C22.5258 25.6162 23.2345 25.1426 23.8314 24.5457C24.4284 23.9488 24.9019 23.2401 25.225 22.4601C25.548 21.6802 25.7143 20.8442 25.7143 20C25.7143 19.1558 25.548 18.3199 25.225 17.5399C24.9019 16.76 24.4284 16.0513 23.8314 15.4543C23.2345 14.8574 22.5258 14.3839 21.7458 14.0608C20.9659 13.7377 20.13 13.5714 19.2857 13.5714Z" fill="white"/>
<path d="M10.4071 8.57144H11.05C10.45 9.00001 10.7857 9.52144 11.0285 9.72858L20.7143 20L10.8785 30.4214C10.45 30.9214 10.8071 31.3 11.0285 31.4286H10.4357C9.95712 31.3429 9.99283 30.8143 10.0785 30.5572L12.1428 20C12.1428 20 10.3 10.1714 10.0714 9.53573C9.85712 8.89287 10.2 8.62858 10.4071 8.57144Z" fill="#D1283C"/>
</g>
<defs>
<clipPath id="clip0_344_218">
<rect width="40" height="40" rx="20" fill="white"/>
</clipPath>
</defs>
</svg>
