<svg width="40" height="40" viewBox="0 0 40 40" fill="none" xmlns="http://www.w3.org/2000/svg">
<g clip-path="url(#clip0_344_105)">
<path d="M0 0H40V40H0V0Z" fill="#F2F2F7"/>
<path d="M9.28717 20.3571C9.28717 22.1929 10.7179 23.5714 12.5343 23.5714C13.8293 23.5943 14.9872 22.6221 15.51 21.4286H13.9429C13.625 21.8879 13.0793 22.1886 12.5343 22.1429C11.6265 22.1886 10.8972 21.6329 10.7157 20.7143H15.7143C15.7143 18.9286 14.3529 17.1429 12.5343 17.1429C10.7179 17.1429 9.28717 18.52 9.28717 20.3571ZM10.7157 19.645C10.9879 18.8879 11.7622 18.5486 12.5572 18.5714C13.3293 18.5486 14.06 18.9107 14.2872 19.645H10.7157ZM18.2143 23.5714H16.4286L21.7857 17.1429H23.5715L20.9043 20.2857L23.5715 23.5714H21.7857L20 21.4286L18.2143 23.5714ZM18.7715 19.79L16.5215 17.1429H18.2143L19.6286 18.7971L18.7715 19.79Z" fill="black"/>
<path fill-rule="evenodd" clip-rule="evenodd" d="M2.85712 23.57H5.60712C7.20569 23.6171 8.52783 22.2193 8.57069 20.4721C8.61354 18.725 7.33355 17.1893 5.73497 17.1429H2.85712V23.57ZM4.28569 22.1429V18.5714H5.54283C6.42855 18.5714 7.1214 19.3264 7.14283 20.3679C7.16426 21.4086 6.42854 22.1429 5.60712 22.1429H4.28569ZM30.7143 20.3579C30.7143 22.1936 32.1428 23.5714 33.9285 23.5714C35.7143 23.5714 37.1428 22.1943 37.1428 20.3579C37.1428 18.5221 35.7143 17.1443 33.9285 17.1443C32.1428 17.1443 30.7143 18.5214 30.7143 20.3579ZM32.1428 20.3879C32.1221 19.4071 32.9157 18.5929 33.8971 18.5714C34.8785 18.5507 35.6928 19.3443 35.7135 20.325C35.735 21.3064 34.9414 22.12 33.96 22.1414H33.9385C32.9785 22.1829 32.185 21.4314 32.1435 20.4714L32.1428 20.3879Z" fill="black"/>
<path d="M26.8543 23.57C25.0179 23.57 23.5714 22.1929 23.5714 20.3571C23.5714 18.5214 25.0179 17.1443 26.8543 17.1443C28.37 17.0986 29.6786 18.1743 30 19.6429H28.5714C28.3186 18.9086 27.6357 18.5486 26.8543 18.5714C25.7986 18.5714 25 19.3014 25 20.3571C25 21.4129 25.7986 22.1429 26.8543 22.1429C27.635 22.1657 28.3186 21.8029 28.5714 21.0686H30C29.8557 21.79 29.4606 22.4369 28.8848 22.8948C28.309 23.3527 27.5896 23.5919 26.8543 23.57Z" fill="black"/>
</g>
<defs>
<clipPath id="clip0_344_105">
<rect width="40" height="40" rx="20" fill="white"/>
</clipPath>
</defs>
</svg>
