<svg width="40" height="40" viewBox="0 0 40 40" fill="none" xmlns="http://www.w3.org/2000/svg">
<g clip-path="url(#clip0_344_59)">
<path d="M0 0H40V40H0V0Z" fill="#022662"/>
<path d="M11.2586 21.3672H9.98093L9.80516 22.0724H8.65924L10.0232 17.8006H11.2459L12.6107 22.0724H11.4369L11.2586 21.3672ZM11.0237 20.4431L10.6223 18.9076L10.2235 20.4431H11.0237ZM13.0705 17.8006H14.1927V21.02H15.9429V22.0724H13.0705V17.8006ZM15.5346 17.8006H18.9436V18.8559H17.7994V22.0724H16.678V18.8559H15.5346V17.8006ZM19.2377 19.939C19.2377 19.2418 19.4033 18.6987 19.733 18.3108C20.0634 17.9219 20.523 17.728 21.1121 17.728C21.7163 17.728 22.1819 17.919 22.5089 18.3009C22.8351 18.6818 22.9991 19.2169 22.9991 19.9042C22.9991 20.4035 22.9272 20.8132 22.7845 21.1325C22.6416 21.4517 22.4354 21.7004 22.1658 21.8784C21.8954 22.0565 21.5599 22.1449 21.1568 22.1449C20.7478 22.1449 20.4089 22.0684 20.1402 21.9152C19.8723 21.761 19.6552 21.5183 19.4879 21.1861C19.3214 20.854 19.2377 20.4383 19.2377 19.939L19.2377 19.939ZM20.3599 19.9449C20.3599 20.3766 20.4275 20.6859 20.5636 20.8749C20.6996 21.0628 20.8856 21.1573 21.1196 21.1573C21.3604 21.1573 21.5472 21.0649 21.6791 20.8808C21.8109 20.6958 21.8777 20.3647 21.8777 19.8872C21.8777 19.4844 21.8083 19.1911 21.6706 19.005C21.5329 18.8201 21.3461 18.7275 21.1095 18.7275C20.8839 18.7275 20.7021 18.8211 20.5653 19.01C20.4284 19.198 20.3599 19.5103 20.3599 19.9449V19.9449ZM23.6608 17.8006H24.7086L26.0751 20.1638V17.8006H27.1323V22.0724H26.0751L24.7154 19.7271V22.0724H23.6608V17.8006ZM30.2126 21.3672H28.9348L28.759 22.0724H27.6131L28.977 17.8007H30.1999L31.5646 22.0724H30.3909L30.2126 21.3672ZM29.9776 20.4432L29.5762 18.9076L29.1774 20.4432H29.9776Z" fill="#FEFEFE"/>
<path d="M20 12C21.6411 12 23.2166 12.1595 24.6787 12.4522C26.1658 12.7498 27.5385 13.1867 28.7469 13.7346H32.6862H33.0721V14.1204V17.0967C33.3624 17.5282 33.589 17.9781 33.7454 18.4427C33.9125 18.939 33.9999 19.4494 33.9999 19.9694C33.9999 20.4895 33.9125 20.9999 33.7454 21.4962C33.589 21.9608 33.3624 22.4106 33.0721 22.8422V25.8184V26.2043H32.6862H28.7469C27.5386 26.7523 26.1659 27.1891 24.6789 27.4867C23.2167 27.7793 21.6412 27.9388 20 27.9388C18.3587 27.9388 16.7833 27.7793 15.3212 27.4867C13.8341 27.1891 12.4614 26.7523 11.253 26.2043H7.55575H7.16984V25.8184V23.1798C6.80517 22.7044 6.51888 22.2031 6.32055 21.6811C6.1106 21.1286 6 20.5559 6 19.9695C6 19.383 6.1106 18.8104 6.32055 18.2578C6.51888 17.7358 6.80517 17.2344 7.16984 16.7591V14.1204V13.7346H7.55575H11.253C12.4614 13.1867 13.8341 12.7499 15.3212 12.4523C16.7833 12.1595 18.3587 12 20 12V12ZM24.5279 13.2089C23.1144 12.926 21.5899 12.7718 20 12.7718C18.4101 12.7718 16.8854 12.926 15.472 13.2089C14.0084 13.5018 12.6663 13.9317 11.4964 14.4701L11.4178 14.5063H11.3352H7.94161V16.8909V17.0249L7.85715 17.1306C7.50047 17.5773 7.22486 18.0454 7.04107 18.5292C6.86473 18.9933 6.77183 19.4752 6.77183 19.9694C6.77183 20.4637 6.86473 20.9456 7.04107 21.4097C7.22486 21.8934 7.50047 22.3616 7.85715 22.8083L7.94161 22.914V23.048V25.4326H11.3352H11.4178L11.4964 25.4687C12.6663 26.0071 14.0084 26.437 15.472 26.7299C16.8854 27.0129 18.4101 27.1671 20 27.1671C21.5899 27.1671 23.1146 27.0129 24.5281 26.7299C25.9917 26.437 27.3337 26.0071 28.5035 25.4687L28.5821 25.4326H28.6647H32.3003V22.7253V22.6063L32.3711 22.5053C32.653 22.103 32.8704 21.6838 33.0157 21.252C33.1551 20.8379 33.2281 20.4092 33.2281 19.9694C33.2281 19.5296 33.1551 19.1009 33.0157 18.6869C32.8704 18.255 32.653 17.8358 32.3711 17.4335L32.3003 17.3325V17.2135V14.5063H28.6647H28.5821L28.5035 14.4701C27.3336 13.9317 25.9915 13.5018 24.5279 13.2089V13.2089Z" fill="#FEFEFE"/>
</g>
<defs>
<clipPath id="clip0_344_59">
<rect width="40" height="40" rx="20" fill="white"/>
</clipPath>
</defs>
</svg>
