<svg width="40" height="40" viewBox="0 0 40 40" fill="none" xmlns="http://www.w3.org/2000/svg">
<g clip-path="url(#clip0_312_2550)">
<path d="M0 0H44V44H0V0Z" fill="#00AAFF"/>
<path d="M11.2157 23.8006C9.28319 24.2163 7.07263 23.7724 7.07263 22.405C7.07263 21.3722 8.02978 20.952 8.78547 20.8909C9.57671 20.828 10.1957 20.9939 10.5175 21.3248C10.7162 21.5317 10.6606 21.8134 10.2704 21.8362C9.91035 21.8581 9.23488 21.879 8.67335 21.9C8.3543 21.9118 8.18384 22.0823 8.18384 22.3129C8.18384 22.4952 8.32057 22.7031 8.68793 22.7049C9.21391 22.7049 10.5503 22.7158 11.213 22.7177C11.6505 22.7177 11.8666 22.4734 11.8666 21.9693C11.8666 21.1716 11.1428 19.9638 9.02704 19.9638C7.11274 19.9638 5.72351 20.9191 5.72351 22.4797C5.72351 24.693 8.98055 25.3685 11.3679 24.5463C11.594 24.4688 11.7991 24.3056 11.7326 24.0531C11.6733 23.8261 11.4901 23.7414 11.2157 23.8006Z" fill="white"/>
<path d="M17.7699 20.075C17.4837 20.075 17.3369 20.3066 17.2995 20.5901C17.2576 20.9036 17.0926 21.9893 17.0562 22.2646C17.0343 22.4305 17.0224 22.6028 16.862 22.6739C16.7016 22.745 16.5065 22.6356 16.3406 22.4916L13.7116 20.2564C13.5762 20.1385 13.4026 20.0737 13.223 20.0741C12.8511 20.0741 12.4938 20.3047 12.4938 20.869V24.3649C12.4903 24.4224 12.4986 24.48 12.5183 24.5341C12.5379 24.5882 12.5685 24.6378 12.608 24.6796C12.6476 24.7215 12.6953 24.7548 12.7482 24.7775C12.8012 24.8002 12.8582 24.8118 12.9158 24.8115C13.0306 24.8146 13.1422 24.7732 13.2272 24.6959C13.3121 24.6186 13.3639 24.5114 13.3716 24.3968C13.3716 24.3968 13.6451 22.7313 13.6751 22.5454C13.7134 22.3293 13.7472 22.1598 13.9559 22.0951C14.1446 22.0367 14.3205 22.1461 14.5885 22.3786C14.8565 22.611 17.068 24.6101 17.068 24.6101C17.1384 24.6786 17.2222 24.7319 17.3141 24.7666C17.406 24.8012 17.5041 24.8165 17.6022 24.8115C17.8201 24.8115 18.2157 24.7204 18.2157 24.0568V20.5746C18.2166 20.2519 18.0133 20.075 17.7699 20.075Z" fill="white"/>
<path d="M24.9539 21.8854C24.5164 21.8854 23.1654 21.8963 22.3013 21.8982C21.8819 21.8982 21.7771 22.1242 21.7771 22.3111C21.7771 22.4734 21.8901 22.683 22.2812 22.7031C22.8765 22.7341 23.6349 22.7696 23.9849 22.7879C24.4562 22.8116 24.4626 23.054 24.3031 23.2619C23.9831 23.6776 23.2046 23.9501 22.3979 23.9501C21.3423 23.9501 20.181 23.3503 20.181 22.4004C20.181 21.5071 21.1755 20.5235 24.128 20.9419C24.3878 20.9784 24.6431 20.9319 24.7069 20.6913C24.7753 20.436 24.6084 20.2719 24.273 20.1835C23.6644 20.0275 23.0379 19.9527 22.4097 19.9611C20.4216 19.9611 18.8282 20.91 18.8282 22.4433C18.8282 24.0841 20.4161 24.8808 22.3961 24.8808C24.6066 24.8808 25.6832 23.6776 25.6832 22.6256C25.685 22.0905 25.4125 21.8854 24.9539 21.8854Z" fill="white"/>
<path d="M26.1809 21.6721C26.2238 22.879 26.3377 23.8799 26.3696 24.2309C26.4106 24.6867 26.6431 24.8125 26.8792 24.8125C27.1153 24.8125 27.3441 24.6949 27.3851 24.2345C27.4234 23.848 27.5346 22.6584 27.5902 21.4734C27.5924 21.4614 27.5914 21.449 27.5874 21.4375C27.5834 21.426 27.5764 21.4157 27.5672 21.4077C27.558 21.3997 27.5469 21.3943 27.5349 21.3919C27.523 21.3895 27.5106 21.3902 27.499 21.3941L26.2411 21.5974C26.224 21.6009 26.2086 21.6103 26.1976 21.624C26.1867 21.6376 26.1808 21.6546 26.1809 21.6721Z" fill="white"/>
<path d="M26.8829 19.9611C26.7851 19.9549 26.6871 19.9695 26.5953 20.0038C26.5036 20.0382 26.4201 20.0915 26.3504 20.1604C26.2807 20.2292 26.2263 20.312 26.1908 20.4034C26.1553 20.4947 26.1396 20.5925 26.1445 20.6903C26.1445 20.7423 26.1509 20.8845 26.1591 21.0623C26.1597 21.0732 26.1626 21.0839 26.1677 21.0937C26.1727 21.1035 26.1798 21.112 26.1884 21.1188C26.197 21.1256 26.207 21.1305 26.2177 21.1332C26.2283 21.1359 26.2394 21.1362 26.2502 21.1343L27.5629 20.921C27.5802 20.9182 27.5961 20.9095 27.6077 20.8964C27.6194 20.8833 27.6261 20.8665 27.6267 20.849C27.6267 20.787 27.6267 20.7241 27.6322 20.694C27.6362 20.5953 27.6195 20.4968 27.583 20.4049C27.5465 20.3131 27.4912 20.2299 27.4206 20.1609C27.3499 20.0918 27.2656 20.0383 27.1729 20.0039C27.0803 19.9694 26.9815 19.9549 26.8829 19.9611Z" fill="white"/>
<path d="M33.6321 23.8006C31.7005 24.2163 29.489 23.7724 29.489 22.405C29.489 21.3722 30.4471 20.952 31.2019 20.8909C31.994 20.828 32.613 20.9939 32.9338 21.3248C33.1326 21.5317 33.077 21.8134 32.6859 21.8362C32.3267 21.8581 31.6513 21.879 31.0897 21.9C30.7707 21.9118 30.6002 22.0823 30.6002 22.3129C30.6002 22.4952 30.737 22.7031 31.1043 22.7049C31.6303 22.7049 32.9657 22.7158 33.6285 22.7177C34.0669 22.7177 34.282 22.4734 34.282 21.9693C34.282 21.1716 33.5592 19.9638 31.4434 19.9638C29.5291 19.9638 28.1399 20.9191 28.1399 22.4797C28.1399 24.693 31.3969 25.3685 33.7834 24.5463C34.0095 24.4688 34.2146 24.3056 34.148 24.0531C34.0897 23.8261 33.9065 23.7414 33.6321 23.8006Z" fill="white"/>
<path fill-rule="evenodd" clip-rule="evenodd" d="M34.5455 18.7223C30.6476 16.1197 25.5629 14.5455 20.0005 14.5455C14.4381 14.5455 9.35246 16.1197 5.45459 18.7223C9.33149 17.4333 13.8638 16.6339 20.0005 16.6339C26.1372 16.6339 30.6695 17.4333 34.5455 18.7223Z" fill="white"/>
</g>
<defs>
<clipPath id="clip0_312_2550">
<rect width="40" height="40" rx="20" fill="white"/>
</clipPath>
</defs>
</svg>
