<svg width="40" height="40" viewBox="0 0 40 40" fill="none" xmlns="http://www.w3.org/2000/svg">
<g clip-path="url(#clip0_344_284)">
<path d="M0 0H40V40H0V0Z" fill="#030365"/>
<path d="M8.92857 21.8786C8.92857 22.2429 8.78572 22.5071 8.47857 22.6786C8.24286 22.8143 7.9 22.8571 7.45 22.8571C7 22.8571 6.66429 22.8071 6.42143 22.6643C6.13572 22.4857 5.98572 22.2143 5.98572 21.8357V20.9214C6.38572 20.85 7.24286 20.7214 7.24286 20.7214V21.8643C7.24286 21.95 7.25715 22.0143 7.29286 22.0643C7.32857 22.1071 7.38572 22.1214 7.46429 22.1214C7.53572 22.1214 7.58572 22.1071 7.62143 22.0643C7.65857 22.0071 7.67612 21.9394 7.67143 21.8714V20.8857H8.92857V21.8857V21.8786ZM15.3429 22.8571H14.0929V22.6429C14.0214 22.7071 13.9286 22.7429 13.7857 22.7857C13.636 22.835 13.4791 22.8591 13.3214 22.8571C13.0571 22.8571 12.8357 22.7929 12.6643 22.6571C12.4929 22.5214 12.4 22.3857 12.4 22.1929V20.25L13.6571 20.1786V21.8929C13.6571 22.0357 13.7286 22.1143 13.8714 22.1143C13.9429 22.1143 14 22.1 14.0357 22.0643C14.0743 22.0156 14.0945 21.9549 14.0929 21.8929V20.1571L15.3429 20.1071V22.8571ZM17.1214 22.1143C17.1786 22.1143 17.2286 22.1 17.2643 22.0643C17.2866 22.0419 17.3039 22.0151 17.315 21.9855C17.3261 21.956 17.3307 21.9244 17.3286 21.8929V20.6214C17.2552 20.6389 17.1835 20.6628 17.1143 20.6929C17.0675 20.7088 17.024 20.733 16.9857 20.7643C16.9549 20.7936 16.9307 20.8292 16.9147 20.8686C16.8987 20.908 16.8912 20.9503 16.8929 20.9929V21.8929C16.8929 21.9643 16.9143 22.0214 16.95 22.0643C16.9857 22.1 17.0429 22.1143 17.1071 22.1143H17.1214ZM17.1071 22.8071C16.9929 22.8286 16.85 22.8571 16.6714 22.8571C16.2929 22.8571 16.0286 22.7714 15.8714 22.6429C15.7143 22.5214 15.6357 22.3571 15.6357 22.1071V21.1214C15.6357 20.7214 15.9214 20.3929 16.4786 20.1357L16.6429 20.0643L17.1071 20.0571L18.5857 20.0286V22.8571H17.4714V22.6143C17.4143 22.7286 17.3143 22.7571 17.1929 22.7857L17.1071 22.8071ZM12.1786 21.8786C12.1786 22.1929 12.0643 22.4357 11.8571 22.5929L12.1929 23.2H11.1571L10.9571 22.85L10.7 22.8571C10.25 22.8571 9.91429 22.8071 9.66429 22.6643C9.37143 22.4857 9.22143 22.2143 9.22143 21.8357V20.5L10.4786 20.3857V21.8643C10.4786 21.9357 10.4929 22.0071 10.5357 22.0571C10.5714 22.1 10.6286 22.1143 10.7 22.1143C10.7714 22.1143 10.8214 22.1 10.8571 22.0571C10.8963 22.0006 10.9164 21.933 10.9143 21.8643V20.3571L12.1714 20.2643V21.8786H12.1786ZM21.4286 22.8571H20.5643C20.0214 22.8571 19.6857 22.7357 19.5643 22.6C19.4357 22.4571 19.3786 22.1286 19.3786 21.6214V20.0286L20.0357 20.0214H20.6357V21.6143C20.6357 21.7571 20.6857 21.8571 20.7857 21.9143C20.8571 21.9571 20.9786 21.9786 21.1286 21.9786H21.4286V22.8571ZM26.0714 20.1643V22.8571H24.8143V20.1071L26.0714 20.1643ZM24.5714 21.8786C24.5714 22.25 24.4286 22.5214 24.1357 22.6786C23.9 22.8143 23.5643 22.8571 23.1143 22.8571C22.6643 22.8571 22.3071 22.8071 22.0643 22.6643C21.7714 22.4857 21.6214 22.2143 21.6214 21.8357V20.0286L22.8786 20.05V21.8714C22.8786 21.9429 22.9 22.0143 22.9357 22.0643C22.9714 22.1071 23.0214 22.1214 23.0929 22.1214C23.1643 22.1214 23.2286 22.1071 23.2643 22.0643C23.301 22.0069 23.3185 21.9394 23.3143 21.8714V20.0643C23.7429 20.0643 24.1571 20.0857 24.5714 20.1V21.8857V21.8786ZM29.2857 22.8571H28.0286V20.2714L29.2857 20.3643V22.8571ZM31.0071 22.1143H31.0143C31.0857 22.1143 31.1286 22.1 31.1571 22.0643C31.2027 22.0189 31.2284 21.9572 31.2286 21.8929V20.6214C31.1548 20.6376 31.083 20.6616 31.0143 20.6929C30.968 20.7098 30.9246 20.7339 30.8857 20.7643C30.8545 20.7933 30.8301 20.8288 30.814 20.8683C30.798 20.9078 30.7908 20.9503 30.7929 20.9929V21.8929C30.7929 21.9643 30.8071 22.0214 30.85 22.0643C30.8857 22.1 30.9429 22.1143 31.0071 22.1143ZM31.0071 22.8071C30.9 22.8286 30.75 22.8571 30.5643 22.8571C30.1929 22.8571 29.9214 22.7714 29.7714 22.6429C29.6143 22.5214 29.5357 22.3571 29.5357 22.1071V21.1214C29.5357 20.8571 29.6571 20.6214 29.9071 20.4214C30.7658 20.4967 31.6231 20.5872 32.4786 20.6929V22.8571H31.3714V22.6143C31.3071 22.7286 31.2143 22.7571 31.0857 22.7857L31.0143 22.8071H31.0071ZM34.05 22.8571H32.7857V20.7357C33.2143 20.7857 33.6429 20.85 34.0429 20.9143V22.8571H34.05Z" fill="white"/>
<path d="M14.0929 19.7143V17.8571H15.3429V19.6428L15.6786 19.6286V18.8571C15.6786 18.4928 15.8286 18.2286 16.1429 18.0571C16.3715 17.9357 16.7 17.8714 17.1072 17.8643C17.0857 17.8643 17.1357 17.8643 17.1072 17.8643C17.5572 17.8643 17.9643 17.9357 18.1786 18.0786C18.45 18.2428 18.5857 18.5214 18.5857 18.9V19.5643L19.3786 19.5571V18.5714H18.8215V17.8571H19.3786V17.1428H20.6357V17.8571H21.3143V18.5714H20.6357V19.55L21.6215 19.5571V18.8928C21.6215 18.5286 21.7643 18.25 22.0643 18.0786C22.3813 17.9143 22.7364 17.8378 23.0929 17.8571C23.5072 17.8571 23.8715 17.9428 24.1429 18.1143C24.4286 18.2786 24.5715 18.5286 24.5715 18.85V19.6357L24.8143 19.65V17.8571H26.0715V18.05L26.2857 17.9428C26.4699 17.8817 26.6632 17.8527 26.8572 17.8571C27.1143 17.8571 27.3286 17.9286 27.5 18.0643C27.6786 18.2 27.7572 18.3643 27.7572 18.5571V19.8286L28.0215 19.85V17.8571H29.2857V19.9571L30.5 20.0857C30.9786 19.85 31.2286 19.6857 31.2286 19.5857V18.8571C31.2286 18.7857 31.2072 18.7143 31.1715 18.6786C31.1502 18.6568 31.1246 18.6398 31.0962 18.6287C31.0679 18.6176 31.0376 18.6127 31.0072 18.6143C30.9787 18.6156 30.9507 18.6226 30.925 18.6349C30.8992 18.6471 30.8762 18.6644 30.8572 18.6857C30.8143 18.7214 30.7929 18.7786 30.7929 18.8571V19.8286H29.5786V18.8571C29.5786 18.4928 29.7357 18.2286 30.0429 18.0571C30.3656 17.9117 30.7177 17.8432 31.0715 17.8571C31.5215 17.8571 31.8572 17.9286 32.0715 18.0714C32.3429 18.2357 32.4715 18.5143 32.4715 18.8928V20.3428L32.5429 20.3571L32.7786 20.3928V16.4286H34.0429V20.6143C35.3357 20.8643 36.3929 21.15 37.1357 21.4714C34.9413 20.9298 32.7086 20.5573 30.4572 20.3571C29.8554 20.2958 29.253 20.2411 28.65 20.1928C26.7982 20.0472 24.9428 19.9519 23.0857 19.9071C21.0908 19.8565 19.0949 19.8565 17.1 19.9071C14.5835 19.965 12.0699 20.1151 9.56432 20.3571C8.85827 20.4292 8.15342 20.5125 7.45003 20.6071C5.65003 20.8428 4.10717 21.1357 2.8786 21.4643C3.6286 21.15 4.6786 20.8643 5.9786 20.6143V18.9C5.9786 18.5286 6.12146 18.2571 6.40717 18.0786C6.65003 17.9286 7.00003 17.8571 7.44289 17.8571C7.88574 17.8571 8.2286 17.9286 8.47146 18.05C8.77146 18.2143 8.92146 18.4786 8.92146 18.85V20.1571L9.21431 20.1214V18.8928C9.21431 18.5286 9.35717 18.25 9.65717 18.0786C9.97624 17.913 10.334 17.8365 10.6929 17.8571C11.1 17.8571 11.4572 17.9428 11.7429 18.1143C12.0215 18.2786 12.1715 18.5286 12.1715 18.85V19.8357L12.3857 19.8214V17.8571H13.65V19.7357L14.0786 19.7071L14.0929 19.7143ZM26.2857 18.6357C26.2143 18.6357 26.1572 18.65 26.1215 18.6857C26.0857 18.7214 26.0715 18.7786 26.0715 18.85V19.7143L26.2857 19.7286L26.5 19.7428V18.8571C26.5 18.7143 26.4286 18.6357 26.2857 18.6357ZM23.0929 19.5928H23.3072V18.8571C23.3072 18.7857 23.3 18.7143 23.2572 18.6786C23.2359 18.6568 23.2103 18.6398 23.182 18.6287C23.1536 18.6176 23.1233 18.6127 23.0929 18.6143C23.0378 18.6188 22.9867 18.6444 22.95 18.6857C22.9271 18.7079 22.909 18.7346 22.8967 18.7641C22.8844 18.7936 22.8783 18.8252 22.8786 18.8571V19.5857H23.0929V19.5928ZM17.1072 19.5857H17.3215V18.8571C17.3215 18.7857 17.3072 18.7143 17.2715 18.6786C17.2502 18.6568 17.2246 18.6398 17.1962 18.6287C17.1679 18.6176 17.1376 18.6127 17.1072 18.6143C17.0775 18.6146 17.0481 18.6212 17.0211 18.6335C16.994 18.6458 16.9698 18.6635 16.95 18.6857C16.9143 18.7214 16.8929 18.7786 16.8929 18.8571V19.5928L17.1072 19.5857ZM10.7 19.9643L10.9143 19.9428V18.8571C10.9143 18.7857 10.8929 18.7143 10.8572 18.6786C10.8367 18.6577 10.8123 18.6412 10.7852 18.6302C10.7582 18.6191 10.7292 18.6137 10.7 18.6143C10.6704 18.6151 10.6412 18.6218 10.6142 18.634C10.5872 18.6463 10.563 18.6639 10.5429 18.6857C10.5 18.7214 10.4786 18.7786 10.4786 18.8571V19.9857L10.6929 19.9643H10.7ZM7.45717 19.9857H7.67146V18.8571C7.67146 18.7857 7.65717 18.7143 7.62146 18.6786C7.60103 18.6577 7.57655 18.6412 7.54953 18.6302C7.5225 18.6191 7.49351 18.6137 7.46432 18.6143C7.43467 18.6151 7.40549 18.6218 7.3785 18.634C7.3515 18.6463 7.32725 18.6639 7.30717 18.6857C7.26432 18.7214 7.24289 18.7786 7.24289 18.8571V19.9857H7.45717ZM28.65 17.3214H28.0215V16.4286H29.2857V17.3214H28.6572H28.65Z" fill="white"/>
</g>
<defs>
<clipPath id="clip0_344_284">
<rect width="40" height="40" rx="20" fill="white"/>
</clipPath>
</defs>
</svg>
