<svg width="40" height="40" viewBox="0 0 40 40" fill="none" xmlns="http://www.w3.org/2000/svg">
<g clip-path="url(#clip0_406_2)">
<path d="M0 0H40V40H0V0Z" fill="url(#paint0_linear_406_2)"/>
<path d="M7.49284 15.7143C4.99998 15.7143 3.57141 17.6214 3.57141 20C3.57141 21.2429 3.92141 22.3143 4.59284 23.0786C5.80713 24.4643 8.30713 24.95 10.3857 23.7714C10.6 23.6572 10.7143 23.4286 10.7143 23.1857V22.5C10.7143 21.7572 9.7857 22.2429 9.50713 22.3786C8.39998 22.9072 6.7857 23.05 6.12855 22.0357C5.88502 21.6364 5.74735 21.1816 5.72855 20.7143H9.2857C10.4143 20.7143 11.0714 19.8 11.0714 18.6714C11.0714 16.5929 9.29284 15.7143 7.49284 15.7143ZM8.04998 19.2857H5.71427C5.71427 18.1429 6.42855 17.5 7.49284 17.5C7.97141 17.5 8.92855 17.6286 8.92855 18.4072C8.92855 18.8929 8.5357 19.2857 8.04998 19.2857ZM24.2786 15.7143C21.7857 15.7143 20.3571 17.6214 20.3571 20C20.3571 21.2429 20.7071 22.3143 21.3786 23.0786C22.5928 24.4643 25.0928 24.95 27.1714 23.7714C27.3857 23.6572 27.5 23.4286 27.5 23.1857V22.5C27.5 21.7572 26.5714 22.2429 26.2928 22.3786C25.1857 22.9072 23.5714 23.05 22.9143 22.0357C22.6707 21.6364 22.5331 21.1816 22.5143 20.7143H26.0714C27.2 20.7143 27.8571 19.8 27.8571 18.6714C27.8571 16.5929 26.0786 15.7143 24.2786 15.7143ZM24.8357 19.2857H22.5C22.5 18.1429 23.2143 17.5 24.2786 17.5C24.7571 17.5 25.7143 17.6286 25.7143 18.4072C25.7143 18.8929 25.3214 19.2857 24.8357 19.2857ZM12.1428 16.0714C12.1428 15.8714 12.3 15.7143 12.5 15.7143H13.9286C14.1286 15.7143 14.2857 15.8714 14.2857 16.0714V23.9286C14.2857 24.0233 14.2481 24.1141 14.1811 24.1811C14.1141 24.2481 14.0233 24.2857 13.9286 24.2857H12.5C12.4053 24.2857 12.3144 24.2481 12.2474 24.1811C12.1805 24.1141 12.1428 24.0233 12.1428 23.9286V16.0714Z" fill="#397880"/>
<path d="M15 19.95L17.9786 16C18.0451 15.9113 18.1314 15.8393 18.2306 15.7897C18.3297 15.7401 18.4391 15.7143 18.55 15.7143H20.1571C20.2235 15.7143 20.2885 15.7328 20.3449 15.7676C20.4013 15.8025 20.4469 15.8524 20.4766 15.9117C20.5062 15.971 20.5188 16.0375 20.5128 16.1035C20.5069 16.1696 20.4827 16.2327 20.4429 16.2857L15 23.5072V19.95Z" fill="#2A5273"/>
<path d="M29.2857 16.0714C29.2857 15.8714 29.4428 15.7143 29.6428 15.7143H31.0714C31.2714 15.7143 31.4286 15.8714 31.4286 16.0714V23.9286C31.4286 24.0233 31.3909 24.1141 31.324 24.1811C31.257 24.2481 31.1661 24.2857 31.0714 24.2857H29.6428C29.5481 24.2857 29.4573 24.2481 29.3903 24.1811C29.3233 24.1141 29.2857 24.0233 29.2857 23.9286V16.0714ZM31.4286 16.0071V17.8571C32.6071 16.9714 34.2857 17.5 34.2857 19.2857V23.9286C34.2857 24.1286 34.4428 24.2857 34.6428 24.2857H36.0714C36.1661 24.2857 36.257 24.2481 36.324 24.1811C36.3909 24.1141 36.4286 24.0233 36.4286 23.9286V18.4428C36.4291 17.9011 36.2756 17.3704 35.986 16.9126C35.6964 16.4548 35.2826 16.0887 34.7928 15.8571C33.6857 15.3286 32.5 15.7143 31.4286 16.0071Z" fill="#397880"/>
</g>
<defs>
<linearGradient id="paint0_linear_406_2" x1="7.44286" y1="6.93572" x2="48.6786" y2="54.3" gradientUnits="userSpaceOnUse">
<stop stop-color="#1A1E21"/>
<stop offset="1" stop-color="#06060A"/>
</linearGradient>
<clipPath id="clip0_406_2">
<rect width="40" height="40" rx="20" fill="white"/>
</clipPath>
</defs>
</svg>
