<svg width="40" height="40" viewBox="0 0 40 40" fill="none" xmlns="http://www.w3.org/2000/svg">
<g clip-path="url(#clip0_432_54)">
<path d="M0 0H40V40H0V0Z" fill="#F2F2F7"/>
<path d="M25.9316 17.0214C16.7722 12.5125 10.5864 20.3975 9.38647 23.2818C15.2891 14.4204 21.773 17.1183 24.769 18.907C25.328 19.2423 26.0509 19.0709 26.3714 18.4971C26.6695 17.9754 26.4757 17.2972 25.9316 17.0289V17.0214Z" fill="#A71C20"/>
<path d="M28.0631 17.3568C27.4385 15.7743 26.4233 14.3758 25.1123 13.2915C23.8013 12.2073 22.2371 11.4726 20.5656 11.1561V15.0613C19.5296 15.1433 18.5384 15.2625 17.5845 15.5308V8.04825C20.1582 7.82627 22.7399 8.37359 25.0021 9.62081C27.2644 10.868 29.1053 12.759 30.2915 15.0539L28.0631 17.3568ZM17.5845 27.5074V17.6176C18.5533 17.4984 19.5073 17.6027 20.4165 17.707L20.5656 17.722V28.5881C19.4934 28.4996 18.4643 28.1265 17.5845 27.5074Z" fill="#231F20"/>
<path d="M9.34173 26.0094C18.0764 37.919 32.4453 30.2575 31.3721 18.8101C31.3721 24.027 27.3104 29.2141 21.5121 29.3334C18.7546 29.3855 15.7064 27.9397 12.7849 23.9152C12.4693 23.4619 11.991 23.1478 11.4497 23.0381C10.9083 22.9285 10.3455 23.0317 9.87833 23.3264C9.66247 23.4635 9.47661 23.6429 9.33197 23.8537C9.18733 24.0646 9.08691 24.3026 9.03676 24.5533C8.98661 24.804 8.98778 25.0623 9.0402 25.3126C9.09261 25.5628 9.19519 25.7999 9.34173 26.0094Z" fill="#BCBDC0"/>
</g>
<defs>
<clipPath id="clip0_432_54">
<rect width="40" height="40" rx="20" fill="white"/>
</clipPath>
</defs>
</svg>
