<svg width="40" height="40" viewBox="0 0 40 40" fill="none" xmlns="http://www.w3.org/2000/svg">
<g clip-path="url(#clip0_344_143)">
<path d="M0 0H40V40H0V0Z" fill="#ED0F69"/>
<path d="M12.2643 13.5714H11.3643C9.90001 13.5714 8.44287 13.8036 8.01787 16.0164C8.01787 16.0164 7.80001 17.1236 7.64358 17.8572C7.55287 17.8764 7.24215 18.0786 7.11072 18.1672L6.91001 19.2857H7.40715C7.29715 19.7893 6.55929 23.3764 6.55929 23.3764C6.29358 24.7157 6.17001 25.1286 5.71429 25.4564L6.45429 26.4286C7.01644 26.0964 7.41501 25.6157 7.74072 24.2743L8.76215 19.2857H10.2793L10.525 17.8572H9.00215C9.00215 17.8572 9.18787 16.9307 9.31787 16.275C9.44787 15.62 9.70144 15 10.785 15H12.2522L12.4043 14.0636C12.4493 13.75 12.3964 13.6014 12.2643 13.5714Z" fill="white"/>
<path d="M12.1786 22.3643C12.1786 22.3643 13.5036 15.2786 13.58 14.9179C13.5864 14.8893 13.5822 14.8364 13.5207 14.7372C13.4279 14.5879 12.6422 13.6464 12.2972 13.575C12.2907 13.5736 12.2829 13.5722 12.2679 13.5714H12.265C12.3964 13.6014 12.4493 13.75 12.4043 14.0636L12.2522 14.8943L12.2479 14.9179L10.8979 22.185C10.5979 23.635 11.2307 24.2993 12.2479 24.2857C12.4522 24.2829 13.1464 24.2093 13.6886 23.9843L13.0429 22.8572C12.1736 22.9929 12.1143 22.7986 12.18 22.3643H12.1786ZM31.1643 22.2843C31.1179 19.4736 30.59 17.8579 30.59 17.8579C29.3307 17.6864 28.2272 17.9143 27.4614 18.6936L27.4029 18.7479L27.5493 17.8572H26.1164L24.9072 24.2857H26.3729L27.11 20.5586C27.4029 19.5893 28.2664 19.2922 29.4157 19.2857C29.6693 20.8757 30.0372 23.4572 30.0372 23.6964C29.7979 24.4107 28.97 25.2136 28.1922 25.5279L28.8943 26.4286C31.7357 25.68 33.5679 19.8986 34.28 17.8572H32.8622C31.88 20.8393 31.1643 22.2843 31.1643 22.2843ZM17.6643 19.8986C17.6643 19.5322 17.4357 19.2857 16.9764 19.2857C16.2222 19.2857 15.7836 19.8693 15.61 20.6014C15.7714 20.6143 15.9429 20.6114 16.0814 20.6114C17.5207 20.6114 17.6643 20.2036 17.6643 19.8986ZM19.0657 19.5893C19.0657 20.8957 18.0014 21.6464 15.9593 21.6464C15.7972 21.6464 15.6093 21.6393 15.4464 21.6279C15.4236 21.7493 15.4236 21.8229 15.4236 21.8843C15.4236 22.5857 15.61 22.8572 16.3557 22.8572C16.8557 22.8572 17.27 22.7443 17.6643 22.5414L18.3164 23.545C17.659 24.0215 16.8691 24.2805 16.0572 24.2857C14.8507 24.2857 14.0293 23.4714 14.0293 21.8843C14.0293 19.9679 14.8536 17.8572 16.9764 17.8572C18.4157 17.8572 19.0657 18.6614 19.0657 19.5893ZM23.5164 17.8572H24.9072L23.7157 24.2857H22.3072L22.4429 23.4993L22.3736 23.5722C22.1143 23.9843 21.5386 24.2857 20.9593 24.2857C19.8686 24.2857 19.0936 23.2722 19.3493 22.0057L20.0229 17.8572H21.4236L20.7936 21.6929C20.6629 22.4086 20.7729 22.8572 21.5386 22.8572C22.1429 22.8572 22.6357 22.4629 22.7743 21.6929L23.5164 17.8572Z" fill="#C9C9C9"/>
</g>
<defs>
<clipPath id="clip0_344_143">
<rect width="40" height="40" rx="20" fill="white"/>
</clipPath>
</defs>
</svg>
