<svg width="40" height="40" viewBox="0 0 40 40" fill="none" xmlns="http://www.w3.org/2000/svg">
<g clip-path="url(#clip0_379_12)">
<path d="M20 40C31.0457 40 40 31.0457 40 20C40 8.95431 31.0457 0 20 0C8.95431 0 0 8.95431 0 20C0 31.0457 8.95431 40 20 40Z" fill="#025698"/>
<path d="M30.3153 29.1847C30.3153 29.1847 25.6976 28.9612 20.0023 28.9612C14.3035 28.9612 9.68822 29.1847 9.68822 29.1847C9.68822 29.1847 14.3035 29.4082 20.0023 29.4082C25.6976 29.4082 30.3153 29.1847 30.3153 29.1847ZM11.0623 30.8035C11.0623 30.8035 15.0623 31.0329 19.9929 31.0329C24.9388 31.0329 28.9341 30.8035 28.9341 30.8035C28.9341 30.8035 24.9388 30.5882 19.9929 30.5882C15.0623 30.5882 11.0623 30.8035 11.0623 30.8035ZM26.4765 32.7247C26.4765 32.7247 23.5788 32.5012 20.0023 32.5012C16.4259 32.5012 13.5259 32.7247 13.5259 32.7247C13.5259 32.7247 16.427 32.9435 20.0035 32.9435C23.58 32.9435 26.4765 32.7247 26.4765 32.7247ZM29.9117 26.6953H28.7V28.2353H28.4647V26.4706H30.1423V28.2353H29.9117V26.6953ZM8.23528 15.5388V22.467C8.23528 24.0494 8.57646 25.1682 9.06822 25.8823H12.2435C11.6459 25.2 10.5882 23.9035 10.5882 21.8529V13.7176C10.5882 12.1353 10.347 11.0247 9.85057 10.3153C9.01492 11.2194 8.29851 12.2268 7.71881 13.3129C7.93646 13.9247 8.2341 14.6576 8.2341 15.54L8.23528 15.5388Z" fill="white"/>
<path d="M7.05886 25.8776H8.58474C8.10239 25.1282 7.6365 24.0188 7.6365 22.4659V15.5388C7.64068 14.9166 7.5559 14.297 7.38474 13.6988C6.39594 15.6957 5.88179 17.894 5.88239 20.1223C5.88239 22.1706 6.30709 24.1141 7.05886 25.8776ZM14.1177 21.3541V12.7706C14.1177 9.94941 13.0624 8.40588 12.6906 8.02823C11.7819 8.61916 10.9439 9.31231 10.193 10.0941C10.7342 10.8353 11.2965 12.0141 11.2965 13.7153C11.2871 13.7565 11.2871 16.9718 11.2871 18.1635V21.8518C11.2871 23.9953 12.193 25.2718 12.7742 25.8776H16.4577C16.4183 25.8447 16.3748 25.817 16.3283 25.7953C16.2977 25.7765 14.1177 24.4871 14.1177 21.3553V21.3541ZM31.7647 15.5388V19.2541L31.7671 20.4259V22.4671C31.7671 24.0494 31.4165 25.1682 30.9259 25.8823H27.753C28.353 25.2 29.4118 23.9035 29.4118 21.8529V13.7176C29.4118 12.1353 29.653 11.0247 30.1447 10.3153C30.98 11.2188 31.7036 12.2165 32.2812 13.3129C32.0612 13.9247 31.7636 14.6576 31.7636 15.54L31.7647 15.5388Z" fill="white"/>
<path d="M32.9341 25.8776H31.4153C31.8976 25.1282 32.3635 24.0188 32.3635 22.4659V15.5388C32.3635 14.8306 32.4623 14.2247 32.6094 13.6988C33.6008 15.695 34.117 17.8935 34.1176 20.1223C34.1176 22.1706 33.6894 24.1141 32.9341 25.8776ZM25.64 21.3541V12.7706C25.64 9.94941 26.9388 8.40588 27.3047 8.02823C28.216 8.61665 29.0551 9.31002 29.8047 10.0941C29.2671 10.8353 28.7047 12.0141 28.7047 13.7153C28.7082 13.7565 28.7082 16.9718 28.7082 18.1635V21.8518C28.7082 23.9953 27.8035 25.2718 27.2259 25.8776H23.54C23.5807 25.8465 23.624 25.819 23.6694 25.7953C23.7047 25.7765 25.64 24.4859 25.64 21.3541ZM30.3282 26.4706H32.9447L32.4482 28.2353H30.3282V26.4706ZM28.3788 26.4706H7.14587C7.49411 27.4259 7.85764 28.0447 7.99646 28.2353H27.5729V27.2118L28.3788 26.4706Z" fill="white"/>
</g>
<defs>
<clipPath id="clip0_379_12">
<rect width="40" height="40" fill="white"/>
</clipPath>
</defs>
</svg>
