<svg width="40" height="40" viewBox="0 0 40 40" fill="none" xmlns="http://www.w3.org/2000/svg">
<g clip-path="url(#clip0_564_12)">
<path fill-rule="evenodd" clip-rule="evenodd" d="M0 40H40V0H0V40Z" fill="#003365"/>
<path fill-rule="evenodd" clip-rule="evenodd" d="M19.6767 26.9542H17.0968V25.7059C16.1391 26.6103 14.7899 27.3332 12.9294 27.3332C7.95004 27.3332 5.45456 23.1707 5.45456 19.5813C5.45456 15.9936 7.92543 11.8182 12.8549 11.8182C17.7843 11.8182 19.6484 16.3145 19.6484 16.3145L17.4174 17.6796C17.4174 17.6796 15.88 14.7068 12.9049 14.7068C9.93017 14.7068 8.20257 17.3307 8.20257 19.5813C8.20257 21.8329 9.95518 24.4304 12.9561 24.4304C15.0347 24.4304 16.2174 23.1389 16.7483 22.3466H12.9278V19.5692H19.6767V26.9542Z" fill="white"/>
<path fill-rule="evenodd" clip-rule="evenodd" d="M20.3232 19.569H27.0713V22.3466H23.2522C23.7823 23.1389 24.9648 24.4302 27.0439 24.4302C30.0446 24.4302 31.7972 21.8324 31.7972 19.5811C31.7972 17.3302 30.0691 14.7066 27.0946 14.7066C24.1202 14.7066 22.5819 17.6795 22.5819 17.6795L20.3508 16.315C20.3508 16.315 22.2154 11.8182 27.1455 11.8182C32.074 11.8182 34.5455 15.9937 34.5455 19.5811C34.5455 23.1702 32.0498 27.3332 27.0697 27.3332C25.2095 27.3332 23.8603 26.61 22.9005 25.7052V26.9534H20.3232V19.569Z" fill="white"/>
</g>
<defs>
<clipPath id="clip0_564_12">
<rect width="40" height="40" rx="20" fill="white"/>
</clipPath>
</defs>
</svg>
