<svg width="40" height="40" viewBox="0 0 40 40" fill="none" xmlns="http://www.w3.org/2000/svg">
<g clip-path="url(#clip0_312_2404)">
<path d="M0 0H40V40H0V0Z" fill="#19237D"/>
<path d="M32.1634 15.2355L25.9622 17.1054C25.7812 16.5812 25.4986 16.0978 25.1305 15.683C24.7624 15.2682 24.3161 14.9302 23.8171 14.6881C22.8578 14.254 21.7984 14.0894 20.7526 14.2119C19.3891 14.3026 18.0769 14.767 16.96 15.5543C15.8431 16.3416 14.9646 17.4213 14.4209 18.675C13.0235 21.6879 14.2254 25.3726 18.5119 25.6779C19.7917 25.7995 21.0816 25.5965 22.2622 25.0876C22.8262 24.8701 23.3349 24.53 23.7516 24.0919C24.1682 23.6539 24.4824 23.1288 24.6714 22.5546H19.655C19.9203 21.2473 20.1569 20.0822 20.4057 18.8564H32.7273C32.4241 21.0376 31.5177 23.0907 30.1102 24.7843C27.715 27.5668 24.5905 28.9721 21.0248 29.4876C18.5644 29.8728 16.0506 29.7366 13.6462 29.088C13.0489 28.924 12.465 28.7148 11.8995 28.4622C8.11487 26.7535 6.53301 23.404 7.5976 19.397C8.2615 16.7688 9.89594 14.4894 12.1722 13.0174C16.8081 9.96217 21.8638 9.30209 27.1972 10.6982C28.332 10.9925 29.3778 11.5597 30.2434 12.3505C31.1089 13.1413 31.7681 14.1317 32.1634 15.2355Z" fill="white"/>
</g>
<defs>
<clipPath id="clip0_312_2404">
<rect width="40" height="40" rx="20" fill="white"/>
</clipPath>
</defs>
</svg>
