<svg width="40" height="40" viewBox="0 0 40 40" fill="none" xmlns="http://www.w3.org/2000/svg">
<g clip-path="url(#clip0_386_14)">
<path d="M0 20C0 8.95431 8.95431 0 20 0C31.0457 0 40 8.95431 40 20C40 31.0457 31.0457 40 20 40C8.95431 40 0 31.0457 0 20Z" fill="#00A74B"/>
<path fill-rule="evenodd" clip-rule="evenodd" d="M4.10855 17.1429C4.24999 17.1461 4.38472 17.2038 4.48475 17.3038C4.58479 17.4038 4.64243 17.5386 4.6457 17.68C4.64243 17.8214 4.58479 17.9562 4.48475 18.0562C4.38472 18.1562 4.24999 18.2139 4.10855 18.2171C3.96712 18.2139 3.83239 18.1562 3.73236 18.0562C3.63232 17.9562 3.57468 17.8214 3.57141 17.68C3.57141 17.3936 3.7857 17.1429 4.10855 17.1429ZM3.57141 18.73L4.64284 18.5714V22.8571H3.57141V18.73ZM5.71427 22.8571H6.7857V20.3571C6.7857 19.89 7.07998 19.5 7.49998 19.5C7.91998 19.5 8.21427 19.89 8.21427 20.3571V22.8571H9.2857V20.3571C9.2857 19.2664 8.4807 18.5714 7.49998 18.5714C6.51927 18.5714 5.71427 19.2664 5.71427 20.3571V22.8571ZM9.99998 17.34L11.0714 17.1429V18.5714H12.1428V19.6429H11.0714V21.0193C11.0714 21.0193 10.9964 21.9129 12.1428 21.7857C12.1428 21.7857 12.5943 22.3779 12.8571 22.5371C12.8571 22.5371 12.6693 22.8571 11.88 22.8571C10.7143 22.8571 9.99998 22.1379 9.99998 21.1786V17.34ZM17.8571 22.8571H18.9286V17.1429L17.8571 17.3843V22.8571ZM17.1557 21.14L16.3607 20.9293C15.2971 22.3214 14.2857 21.4286 14.2857 21.4286L17.0228 19.8686C16.8539 19.4809 16.5749 19.1513 16.2204 18.9207C15.8659 18.6901 15.4515 18.5687 15.0286 18.5714C13.8428 18.5714 12.8571 19.5457 12.8571 20.7143C12.8571 21.8829 13.8043 22.8571 15.0278 22.8571C16.0678 22.8571 16.9557 22.135 17.1557 21.14ZM15.8571 19.605L13.9286 20.7143C13.8643 20.2907 14.3978 19.025 15.8571 19.605ZM21.0714 18.8743V17.1429L20 17.3879V20.7193C20 21.8857 20.9736 22.8571 22.1428 22.8571C23.3114 22.8571 24.2857 21.8857 24.2857 20.7193C24.2857 19.5529 23.3114 18.5814 22.1428 18.5814C21.7543 18.5814 21.3878 18.6886 21.0714 18.8743ZM22.1428 19.66C21.5586 19.66 21.0714 20.1171 21.0714 20.7386C21.0714 21.3607 21.5293 21.8179 22.1528 21.8179C22.7371 21.8179 23.2143 21.3607 23.2143 20.7393C23.1757 20.1557 22.7271 19.66 22.1428 19.66ZM26.0714 22.8571V20.3643C26.0714 20.3643 26.2786 19.2929 27.1428 19.6429L27.8571 18.9286C27.8571 18.9286 27.4814 18.5714 26.8043 18.5714C26.1286 18.5714 25 19.2336 25 20.2857V22.8571H26.0714ZM30 18.5714C28.8314 18.5714 27.8571 19.5457 27.8571 20.7143C27.8571 21.8829 28.8314 22.8571 30 22.8571C30.3878 22.8571 30.755 22.75 31.0714 22.5636V22.8571H32.1428V20.7143C32.1428 19.5457 31.2071 18.5714 30 18.5714ZM31.0714 20.7143C31.0714 20.13 30.5843 19.6429 30 19.6429C29.4157 19.6429 28.9286 20.0907 28.9286 20.7143C28.9286 21.3379 29.3764 21.7857 30 21.7857C30.5828 21.7857 31.0686 21.34 31.0714 20.7193V20.7143ZM36.4286 18.5714L36.23 19.6429H34.2071C33.8893 19.6429 33.81 20.2229 34.2071 20.2229H35.1593C35.1593 20.2229 36.4286 20.3014 36.4286 21.4414C36.4286 22.5821 35.595 22.8571 35.4364 22.8571H32.8571L33.0557 21.7857H35C35.3171 21.7857 35.4364 21.1664 35 21.1664H34.2064C34.2064 21.1664 32.8571 21.1664 32.8571 19.9479C32.8571 18.7286 33.9686 18.5714 34.0871 18.5714H36.4286Z" fill="#F0F3FA"/>
</g>
<defs>
<clipPath id="clip0_386_14">
<rect width="40" height="40" fill="white"/>
</clipPath>
</defs>
</svg>
