<svg width="40" height="40" viewBox="0 0 40 40" fill="none" xmlns="http://www.w3.org/2000/svg">
<g clip-path="url(#clip0_344_245)">
<path d="M0 0H40V40H0V0Z" fill="#00488E"/>
<path d="M10.0157 22.9171L9.99997 22.3257V17.5907C10.7178 17.5771 11.2571 17.4164 11.7214 18.1764C11.8485 18.3921 11.9443 18.6278 12.0143 18.855H12.2943L12.1457 17.1428H6.43283L6.28783 18.8543H6.56783C6.63926 18.6286 6.73426 18.3921 6.85783 18.1764C7.32497 17.4164 7.8564 17.5771 8.5714 17.5907V22.3257L8.54426 22.9171C8.39497 23.2528 8.22569 23.3214 7.85712 23.3007V23.5714H10.7143V23.3007C10.3428 23.3221 10.1607 23.2528 10.0157 22.9171ZM2.85712 17.1428V17.4171H2.89783C3.00926 17.4171 3.17497 17.4578 3.30212 17.53C3.56926 17.6457 3.56283 18.125 3.56283 18.33L3.56997 20.3507L3.56283 22.3736C3.56283 22.5814 3.56997 23.0614 3.30212 23.1743C3.17497 23.2457 3.00926 23.2871 2.89783 23.2871H2.85712V23.5714H5.71426V23.2871H5.68212C5.56783 23.2871 5.39855 23.2457 5.27497 23.1743C5.00355 23.0614 5.01069 22.5814 5.01069 22.3736L5.00355 20.3507L5.01069 18.3307C5.01069 18.125 5.00355 17.6457 5.27497 17.53C5.39855 17.4578 5.56783 17.4171 5.68212 17.4171H5.71426V17.1428H2.85712ZM23.8535 15.7386C24.0164 15.6114 23.9807 15.2536 23.8035 15.1128C23.6807 15.0336 23.5071 14.9471 23.2771 15.0407C22.6364 15.57 22.1871 16.0521 21.6457 16.6364C22.1664 16.4614 23.04 16.1514 23.6707 15.8721C23.7371 15.8593 23.8185 15.7793 23.8535 15.7386ZM22.8571 17.4421L23.1671 17.4893C23.3985 17.5443 23.505 17.7328 23.5493 17.945L23.5714 20.7086C23.5714 21.5814 23.6571 22.4943 22.8785 22.925C22.3857 23.1678 21.6707 23.1571 21.2535 22.8886C20.8778 22.6793 20.7143 22.2678 20.7143 21.8993V17.9493C20.7443 17.7136 20.8221 17.5421 20.9785 17.4936C21.1235 17.4014 21.2143 17.4464 21.4285 17.4464V17.1621L18.5714 17.155V17.4393L18.8614 17.4864C19.0593 17.565 19.255 17.7436 19.2857 17.9493V21.9564C19.2857 22.4278 19.5864 22.8921 19.9928 23.21C20.8557 23.7857 22.4214 23.9043 23.3571 23.3057C24.3543 22.775 24.2857 21.8057 24.2857 20.7314V17.945C24.2857 17.945 24.2907 17.695 24.6371 17.4893C24.8343 17.4421 24.8014 17.4421 25 17.4421V17.1457H22.8571V17.4421ZM18.1807 22.8764L15.6714 17.1428H15.2464L12.9321 22.5957C12.8395 22.7766 12.7069 22.9341 12.5444 23.0562C12.3819 23.1784 12.1938 23.262 11.9943 23.3007V23.5714H14.2028V23.3007C14.0507 23.3221 13.8914 23.2936 13.6478 23.1878C13.2864 22.7157 13.6628 22.3193 13.8221 21.895H16.3135C16.4621 22.3114 16.8464 22.6786 16.5735 23.12C16.415 23.2943 16.185 23.2736 15.9614 23.3007V23.5714H18.9028L18.9243 23.3007C18.6335 23.2528 18.3328 23.14 18.1814 22.8764H18.1807ZM14.0885 21.4328L15.0385 18.9093H15.0878C15.4135 19.6964 15.7735 20.645 16.085 21.4328H14.0885ZM36.4235 22.8764L33.9135 17.1428H33.4893L31.175 22.5957C31.0823 22.7766 30.9497 22.9341 30.7873 23.0562C30.6248 23.1784 30.4367 23.262 30.2371 23.3007V23.5714H32.4457V23.3007C32.2928 23.3221 32.1335 23.2936 31.89 23.1878C31.5293 22.7157 31.9057 22.3193 32.065 21.895H34.5557C34.7043 22.3114 35.0893 22.6786 34.8164 23.12C34.6571 23.2943 34.4278 23.2736 34.2043 23.3007V23.5714H37.145L37.1664 23.3007C36.8757 23.2528 36.575 23.14 36.4235 22.8764ZM32.3307 21.4328L33.2807 18.9093H33.3307C33.6557 19.6964 34.0164 20.645 34.3271 21.4328H32.3307ZM29.0057 20.0457C28.2628 19.5221 27.3678 19.3814 26.8364 18.5671C26.745 18.2928 26.7521 17.9543 26.9507 17.7421C27.2471 17.4986 27.6007 17.31 28.0543 17.4236C28.8714 17.5771 29.445 18.3236 29.6543 19.0664H30V17.1328H29.6471C29.4871 17.2007 29.4585 17.4786 29.1657 17.3721C28.6235 17.1664 28.0657 16.9478 27.4278 16.975C26.6771 17.0264 25.9135 17.4236 25.6621 18.17C25.5171 18.6764 25.605 19.2378 25.9378 19.6414C26.8685 20.6314 28.3521 20.7714 28.9885 22.0171C29.1957 22.4928 28.7721 23.2278 28.1743 23.2871C27.3107 23.3286 26.8278 22.8221 26.3214 22.1157C26.2007 21.9621 26.0414 21.51 26.0414 21.51H25.7143V23.5571H26.0414C26.1943 23.2528 26.4028 23.2321 26.5414 23.2871C27.37 23.6428 28.1985 23.9136 29.0985 23.4957C29.6643 23.225 30.1807 22.6571 30.2307 22.0407C30.3093 21.2028 29.6857 20.5007 29.0057 20.0457Z" fill="white"/>
</g>
<defs>
<clipPath id="clip0_344_245">
<rect width="40" height="40" rx="20" fill="white"/>
</clipPath>
</defs>
</svg>
