<svg width="40" height="40" viewBox="0 0 40 40" fill="none" xmlns="http://www.w3.org/2000/svg">
<g clip-path="url(#clip0_312_2536)">
<path d="M0 0H40V40H0V0Z" fill="#FF6200"/>
<path d="M5.69 16.4012H8.39978V25.6701C7.49726 25.7221 6.59252 25.7221 5.69 25.6701V16.4012Z" fill="#FFFEFD"/>
<path d="M5.45872 13.8459C5.39188 12.9372 6.14701 12.3175 6.922 12.2757C7.9752 12.2193 8.64 12.9754 8.64723 13.8023C8.65231 14.0113 8.61563 14.2192 8.53935 14.4136C8.46308 14.6081 8.34877 14.7851 8.2032 14.9343C8.05763 15.0834 7.88377 15.2016 7.69193 15.2819C7.50009 15.3622 7.29417 15.4029 7.08639 15.4017C6.15965 15.4253 5.40091 14.7637 5.45872 13.8459Z" fill="#FFFEFD"/>
<path d="M13.5302 18.4731C13.5302 18.5676 13.5176 18.633 13.5194 18.6966C13.5278 19.9773 13.5381 21.258 13.5501 22.5387C13.5473 22.6721 13.5582 22.8055 13.5826 22.9367C13.6327 23.1549 13.753 23.3503 13.9248 23.4926C14.0967 23.6349 14.3104 23.7162 14.5329 23.7236C14.8544 23.7236 15.176 23.6946 15.4994 23.6764C15.5644 23.6764 15.6294 23.6637 15.6908 23.6564C15.7505 23.8381 15.7703 25.2794 15.7179 25.721C15.503 25.7573 15.279 25.8119 15.0513 25.8319C14.6792 25.8628 14.3034 25.8809 13.9295 25.8864C13.4329 25.8917 12.9406 25.7927 12.4843 25.5956C12.1375 25.4503 11.8269 25.2299 11.5746 24.95C11.3223 24.6701 11.1345 24.3376 11.0246 23.9763C10.8866 23.5548 10.8189 23.1133 10.8241 22.6695C10.8241 21.3719 10.8241 20.0761 10.8114 18.7784V18.4749H9.47461V16.3903H10.806V14.0277L13.5158 13.5443V16.3903H15.8426V18.4713C15.0875 18.4786 14.3269 18.464 13.5302 18.4731Z" fill="#FFFEFE"/>
<path d="M22.3244 19.8725C22.3334 19.5569 22.2409 19.2468 22.0605 18.9884C21.8802 18.73 21.6217 18.5372 21.3236 18.4386C21.0699 18.3633 20.8075 18.3223 20.5431 18.3168C19.5685 18.2881 18.5977 18.4511 17.6852 18.7966L17.2282 18.9493C17.2282 18.9038 17.2137 18.8748 17.2137 18.8439C17.2137 18.2241 17.2137 17.6044 17.2137 16.9865C17.2137 16.7684 17.2228 16.7738 17.4179 16.7029C18.0433 16.4768 18.6915 16.3202 19.3508 16.2359C20.1421 16.1184 20.9455 16.1098 21.7391 16.2104C22.4799 16.2925 23.1788 16.5979 23.7443 17.0864C24.1838 17.4874 24.5098 17.9985 24.6891 18.5676C24.8263 18.9775 24.8958 19.4073 24.895 19.8398C24.895 21.7408 24.9095 23.64 24.9167 25.5393C24.9167 25.5883 24.9167 25.6356 24.9023 25.6937H22.3948C22.3786 25.3939 22.3623 25.1049 22.3442 24.7687L22.1889 24.9322C21.8152 25.3775 21.3134 25.695 20.7527 25.8409C20.3203 25.926 19.8781 25.9486 19.4394 25.9082C18.9464 25.885 18.4673 25.7369 18.0465 25.4775C17.6845 25.2683 17.3784 24.9737 17.1547 24.6191C16.9309 24.2645 16.7962 23.8605 16.7621 23.4419C16.735 23.1771 16.7386 22.9099 16.7729 22.6459C16.894 21.7008 17.4179 21.0357 18.2181 20.5668C18.89 20.1966 19.6316 19.9724 20.395 19.9089C21.0364 19.8495 21.6812 19.8374 22.3244 19.8725ZM22.3442 21.5936C21.693 21.504 21.0308 21.5367 20.3914 21.6899C19.8928 21.8553 19.4701 22.1043 19.3707 22.6968C19.3406 22.9114 19.3733 23.1302 19.4647 23.3264C19.5561 23.5226 19.7024 23.6878 19.8856 23.8018C20.1845 23.9501 20.5182 24.0129 20.8502 23.9835C21.1677 23.9763 21.4747 23.8679 21.7269 23.6739C21.9792 23.4798 22.1637 23.2103 22.2539 22.904C22.3822 22.4751 22.3171 22.0389 22.3442 21.5936Z" fill="#FFFEFE"/>
<path d="M31.8357 16.4031H34.5455V25.6719C34.3395 25.7355 32.2783 25.7301 31.9477 25.661L31.9134 24.7832L31.861 24.7669C31.6948 24.9395 31.5376 25.1303 31.3588 25.283C30.9602 25.6463 30.4505 25.8623 29.9136 25.8955C29.5327 25.9221 29.1503 25.9179 28.77 25.8827C28.3138 25.8266 27.8819 25.6449 27.5217 25.3575C26.8848 24.8569 26.4657 24.1272 26.3529 23.322C26.309 23.0589 26.2866 22.7927 26.2861 22.526C26.2716 20.5668 26.2614 18.6082 26.2554 16.6502V16.4103H28.985V16.6739C28.985 18.4149 28.985 20.156 28.9977 21.8953C28.9934 22.1871 29.0249 22.4783 29.0916 22.7622C29.1491 23.0174 29.2845 23.248 29.4789 23.4217C29.6733 23.5955 29.9169 23.7036 30.1755 23.7309C30.4742 23.7755 30.7791 23.7199 31.0433 23.5728C31.3074 23.4256 31.5161 23.195 31.637 22.9167C31.7584 22.6409 31.82 22.3423 31.8176 22.0407C31.8176 21.5464 31.8213 21.0526 31.8285 20.5595C31.8285 19.2691 31.8285 17.9806 31.8285 16.692L31.8357 16.4031Z" fill="#FFFEFD"/>
<path d="M32.8023 15.1181H28.3094V13.5642C28.6545 13.457 32.5909 12.7755 32.8023 12.79V15.1181Z" fill="#FFFCFA"/>
</g>
<defs>
<clipPath id="clip0_312_2536">
<rect width="40" height="40" rx="20" fill="white"/>
</clipPath>
</defs>
</svg>
