<svg width="40" height="40" viewBox="0 0 40 40" fill="none" xmlns="http://www.w3.org/2000/svg">
<g clip-path="url(#clip0_312_2444)">
<path d="M0 0H40V40H0V0Z" fill="#2B3772"/>
<path d="M4.28571 16.4286V23.5714H5.71428V17.8571H7.85713V23.5714H9.28571V17.8571H11.4286V23.5714H12.8571V16.4286H4.28571ZM14.2857 16.4286V23.5714H15.7143V22.1429H17.8571V23.5714H19.2857V16.4286H14.2857ZM17.8571 20H15.7143V17.8571H17.8571V20ZM24.2857 16.4286V19.2857H22.1428V16.4286H20.7143V23.5714H22.1428V20.7143H24.2857V23.5714H25.7143V16.4286H24.2857ZM28.5714 22.1429V16.4286H27.1428V23.5714H30.7143V22.1429H28.5714ZM33.5714 22.1429V20.7143H35.7143V19.2857H33.5714V17.8571H35.7143V16.4286H32.1428V23.5714H35.7143V22.1429H33.5714Z" fill="white"/>
</g>
<defs>
<clipPath id="clip0_312_2444">
<rect width="40" height="40" rx="20" fill="white"/>
</clipPath>
</defs>
</svg>
