<svg width="40" height="40" viewBox="0 0 40 40" fill="none" xmlns="http://www.w3.org/2000/svg">
<g clip-path="url(#clip0_344_166)">
<path d="M0 0H40V40H0V0Z" fill="#00347A"/>
<path d="M25.1321 14.0307C26.4666 14.9139 27.5605 16.115 28.3156 17.5259C29.0707 18.9368 29.4632 20.5133 29.4578 22.1136C29.464 24.4735 28.6077 26.7543 27.05 28.5271H28.6343C30.4445 26.403 31.4356 23.7016 31.4286 20.9107C31.4286 15.7228 28.0878 11.3286 23.475 9.83285C24.2093 10.9857 24.7821 12.4186 25.1321 14.0307ZM21.8757 9.44142C21.2559 9.33754 20.6285 9.28546 20 9.28571C13.6878 9.28571 8.57141 14.4907 8.57141 20.9107C8.57141 23.8243 9.62498 26.4871 11.3657 28.5271H12.95C11.3921 26.7541 10.5358 24.473 10.5421 22.1129C10.5421 16.8 14.7764 12.4928 20 12.4928C20.8664 12.4928 21.7057 12.6114 22.5028 12.8328C22.4043 11.6007 22.1871 10.4521 21.8757 9.44142Z" fill="#FBFDFE"/>
<path d="M22.9128 9.61429C23.5878 9.86 24.2128 10.1136 24.7714 10.3557C25.8457 12.2864 26.5021 14.87 26.5021 17.7086C26.5021 23.6864 23.5914 28.9329 20 28.9329C16.4086 28.9329 13.4971 23.6864 13.4971 17.7086C13.4971 17.1686 13.5214 16.6371 13.5671 16.1186C13.9796 15.7199 14.4213 15.3527 14.8886 15.02C15.0578 19.7257 16.9286 23.7164 19.2114 23.7164C21.6057 23.7164 23.5471 19.3286 23.5471 14.3293C23.5471 12.6021 23.315 10.9879 22.9128 9.615V9.61429Z" fill="#60A93C"/>
</g>
<defs>
<clipPath id="clip0_344_166">
<rect width="40" height="40" rx="20" fill="white"/>
</clipPath>
</defs>
</svg>
