<svg width="40" height="40" viewBox="0 0 40 40" fill="none" xmlns="http://www.w3.org/2000/svg">
<g clip-path="url(#clip0_344_110)">
<path d="M0 0H40V40H0V0Z" fill="#F2F2F7"/>
<path d="M14.2857 24.5714C14.2857 24.3857 14.3571 24.2143 14.4857 24.0786L28.3571 8.79285C28.4244 8.72234 28.5053 8.66632 28.595 8.62824C28.6846 8.59016 28.7811 8.57082 28.8786 8.57142H30.7143C30.9037 8.57142 31.0854 8.64668 31.2194 8.78063C31.3533 8.91459 31.4286 9.09627 31.4286 9.28571V30.7143C31.4286 30.9037 31.3533 31.0854 31.2194 31.2194C31.0854 31.3533 30.9037 31.4286 30.7143 31.4286H15C14.8106 31.4286 14.6289 31.3533 14.4949 31.2194C14.361 31.0854 14.2857 30.9037 14.2857 30.7143V24.5714Z" fill="url(#paint0_linear_344_110)"/>
<path d="M21.4286 24.4143C21.4286 24.244 21.3678 24.0794 21.2571 23.95L10.8428 11.6857C10.7765 11.606 10.6935 11.5417 10.5998 11.4973C10.506 11.4529 10.4037 11.4294 10.3 11.4286H9.2857C9.09626 11.4286 8.91458 11.5038 8.78062 11.6378C8.64667 11.7717 8.57141 11.9534 8.57141 12.1429V27.1429C8.57141 27.3323 8.64667 27.514 8.78062 27.6479C8.91458 27.7819 9.09626 27.8571 9.2857 27.8571H20.7143C20.9037 27.8571 21.0854 27.7819 21.2193 27.6479C21.3533 27.514 21.4286 27.3323 21.4286 27.1429V24.4143Z" fill="url(#paint1_linear_344_110)"/>
<path d="M14.4857 24.0786C14.3564 24.2128 14.2846 24.3922 14.2857 24.5786V27.8571H20.7143C20.9037 27.8571 21.0854 27.7819 21.2194 27.6479C21.3533 27.514 21.4286 27.3323 21.4286 27.1428V24.4071C21.4286 24.2369 21.3678 24.0722 21.2571 23.9428L18.0429 20.1571L14.4857 24.0714V24.0786Z" fill="url(#paint2_linear_344_110)"/>
</g>
<defs>
<linearGradient id="paint0_linear_344_110" x1="22.5" y1="8.57142" x2="22.5" y2="31.4286" gradientUnits="userSpaceOnUse">
<stop stop-color="#FFAE00"/>
<stop offset="1" stop-color="#FF8715"/>
</linearGradient>
<linearGradient id="paint1_linear_344_110" x1="15" y1="11.4286" x2="15" y2="27.8571" gradientUnits="userSpaceOnUse">
<stop stop-color="#20D765"/>
<stop offset="1" stop-color="#01D17C"/>
</linearGradient>
<linearGradient id="paint2_linear_344_110" x1="15.5714" y1="20.1643" x2="15.5857" y2="27.8571" gradientUnits="userSpaceOnUse">
<stop stop-color="#336326"/>
<stop offset="1" stop-color="#338B2E"/>
</linearGradient>
<clipPath id="clip0_344_110">
<rect width="40" height="40" rx="20" fill="white"/>
</clipPath>
</defs>
</svg>
