<svg width="40" height="40" viewBox="0 0 40 40" fill="none" xmlns="http://www.w3.org/2000/svg">
<g clip-path="url(#clip0_344_323)">
<mask id="mask0_344_323" style="mask-type:luminance" maskUnits="userSpaceOnUse" x="0" y="0" width="40" height="40">
<path d="M40 20C40 8.9543 31.0457 0 20 0C8.9543 0 0 8.9543 0 20C0 31.0457 8.9543 40 20 40C31.0457 40 40 31.0457 40 20Z" fill="white"/>
</mask>
<g mask="url(#mask0_344_323)">
<path d="M0 0H40V40H0V0Z" fill="#2F2F2F"/>
<path d="M16.8522 11.1398C17.3014 11.4801 17.686 11.7701 18.0125 11.9986C18.3651 12.2611 18.7436 12.4789 19.1423 12.6478C19.306 12.7119 19.4785 12.746 19.6525 12.7487C19.8281 12.7459 20.0014 12.7118 20.1658 12.6478C20.4068 12.5509 20.6389 12.43 20.8598 12.2869C21.402 11.9497 21.5671 11.8142 22.5319 11.0909L22.3638 10.6056L22.2678 10.6214C21.46 11.2312 21.0889 11.5117 20.6158 11.8048C20.4216 11.9296 20.2171 12.0351 20.0052 12.1199C19.7835 12.2156 19.5365 12.2156 19.3149 12.1199C18.9571 11.9653 18.6165 11.7671 18.2996 11.529C17.956 11.2894 17.5565 10.9901 17.0694 10.6214L16.8522 11.1398ZM26.3118 8.95581C26.7692 8.95733 27.2214 9.06475 27.6386 9.27096C28.0121 9.45336 28.355 9.70205 28.654 10.0068L28.7335 10.0966C29.0199 10.4243 29.2564 10.7999 29.4328 11.2091C29.6424 11.6794 29.7548 12.1943 29.7608 12.7171C29.7585 13.3784 29.5548 14.0203 29.1805 14.5418C28.767 15.139 28.3929 15.6794 28.056 16.1759C27.487 16.9756 26.97 17.8181 26.5103 18.697C26.1809 19.3762 26.0462 19.8883 26.0462 20.3406C26.0462 20.7928 26.1652 21.2103 26.4591 21.7666C26.8703 22.4849 27.3419 23.1601 27.8678 23.7836C28.2374 24.2468 28.6622 24.7589 29.1471 25.3388C29.5599 25.8248 29.7875 26.4628 29.7838 27.124C29.7757 27.6257 29.6715 28.1199 29.4773 28.5753C29.3138 28.9726 29.101 29.3436 28.8451 29.6783L28.831 29.6973L28.8147 29.7147C28.7217 29.817 28.6264 29.9241 28.5245 30.0298L28.5119 30.0423L28.497 30.055C28.2032 30.3257 27.8738 30.5478 27.5196 30.7136C27.1188 30.911 26.6844 31.0157 26.2449 31.0209H26.2284C25.6364 31.0203 25.063 30.7978 24.604 30.3906L23.9242 29.7949L23.6743 30.2897L24.0589 30.6253L24.2633 30.8066L24.2798 30.8192C24.8279 31.3102 25.5166 31.5801 26.227 31.5834C26.7454 31.5802 27.2571 31.459 27.7302 31.2273C28.1259 31.04 28.4955 30.7917 28.8265 30.4899C28.8444 30.4742 28.8622 30.4573 28.8785 30.4394C28.9916 30.3212 29.0935 30.2093 29.1873 30.1054C29.2014 30.0919 29.2148 30.0771 29.2267 30.0613L29.2409 30.0423C29.5264 29.6704 29.7638 29.258 29.946 28.8164C30.1705 28.2907 30.2895 27.7193 30.297 27.1398C30.3022 26.3494 30.0344 25.5857 29.5458 25C29.5399 24.993 29.5346 24.9857 29.5302 24.9779C29.0236 24.3729 28.6131 23.8749 28.2561 23.4338C27.7525 22.8368 27.3003 22.1912 26.9045 21.505C26.671 21.0464 26.5699 20.6982 26.5699 20.3469C26.5699 19.9954 26.6971 19.5306 26.9745 18.9649C27.2645 18.3724 27.7258 17.6146 28.4799 16.5051C28.8147 16.0103 29.1873 15.4714 29.6009 14.8774C30.0411 14.2578 30.2784 13.4967 30.277 12.714C30.2695 12.1189 30.1423 11.5328 29.9058 10.9964C29.705 10.5326 29.4372 10.107 29.1121 9.7358L29.0816 9.70586L29.0207 9.63811L28.9902 9.60659C28.654 9.26231 28.2672 8.98162 27.8462 8.77617C27.3635 8.53411 26.8399 8.40729 26.3088 8.4043H26.3013C25.6103 8.40821 24.9358 8.63649 24.3653 9.05981C23.7271 9.52307 24.2812 9.11181 23.4831 9.70902L23.5918 10.281V10.2905C24.0543 9.94381 24.0559 9.95169 24.6464 9.5215C25.1336 9.15989 25.7085 8.96455 26.2984 8.96054L26.3118 8.95581ZM22.604 28.6668C22.1324 28.2704 21.6348 27.9123 21.1149 27.5952C20.5578 27.2801 20.1286 27.143 19.7165 27.143C19.3045 27.143 18.8604 27.2769 18.2922 27.6047C17.5565 28.0602 16.8552 28.5771 16.1932 29.1504C15.7581 29.5129 15.268 29.9273 14.7212 30.3921C14.2564 30.797 13.6784 31.0192 13.0826 31.0224H13.0708C12.6066 31.017 12.15 30.9019 11.7304 30.6852C11.3571 30.4978 11.0112 30.249 10.707 29.9478C10.643 29.8848 10.5962 29.8311 10.5619 29.7902L10.5091 29.7319L10.5024 29.7224C10.2324 29.3918 10.0093 29.0202 9.83824 28.6194C9.63444 28.1631 9.5251 27.6641 9.51766 27.1571C9.51544 26.8197 9.57494 26.485 9.69246 26.1726C9.81072 25.8602 9.98403 25.5762 10.2034 25.3372C10.681 24.8062 11.0967 24.3161 11.4568 23.8544C11.9446 23.2541 12.3642 22.5917 12.7055 21.8816C12.954 21.364 13.0879 20.7903 13.0953 20.2066C13.0834 19.5882 12.9465 18.9803 12.6936 18.426C12.4586 17.8874 12.1804 17.3722 11.8629 16.8864L11.4352 17.1891C11.7394 17.6521 12.0049 18.1434 12.2295 18.6576C12.4496 19.1399 12.571 19.6684 12.5835 20.2066C12.5739 20.7059 12.4579 21.1961 12.2459 21.639C11.9283 22.2991 11.5385 22.9154 11.0856 23.4747C11.0796 23.4797 11.0752 23.4854 11.0707 23.492C10.7226 23.9348 10.321 24.4091 9.83973 24.9463C9.5727 25.237 9.36221 25.5824 9.2194 25.9627C9.07734 26.3428 9.00594 26.7499 9.00966 27.1603C9.01784 27.7457 9.14279 28.3221 9.37709 28.8496C9.56825 29.2963 9.81741 29.7108 10.1179 30.0802L10.1439 30.1149L10.196 30.1716C10.2034 30.1716 10.2079 30.1858 10.2153 30.192L10.2399 30.2188C10.2719 30.255 10.3105 30.296 10.3559 30.3433L10.3715 30.359C10.7167 30.7007 11.1079 30.9819 11.5319 31.1926C12.0183 31.443 12.5486 31.5759 13.0871 31.5818C13.7968 31.583 14.4862 31.3224 15.0419 30.8428H15.0508L15.3409 30.597C15.7685 30.233 16.159 29.9021 16.5182 29.6074C16.5228 29.6018 16.5286 29.597 16.5346 29.5933C17.1698 29.0428 17.8422 28.546 18.5473 28.1073C19.0278 27.8316 19.393 27.7087 19.7336 27.7087C20.0751 27.7087 20.4283 27.8284 20.894 28.0963C21.4191 28.419 21.9212 28.7834 22.3972 29.1868L22.604 28.6668ZM10.8342 15.4306C10.6281 15.1594 10.408 14.8759 10.1715 14.5828C9.76609 14.0814 9.54369 13.4363 9.54667 12.7691C9.55337 12.284 9.65229 11.8056 9.83675 11.3636C9.99072 10.9748 10.1945 10.6114 10.4415 10.2842L10.4556 10.2653L10.472 10.2479L10.762 9.93277L10.7806 9.91229L10.7992 9.89653C11.424 9.31371 12.2154 8.98408 13.0388 8.9637C13.6286 8.96589 14.2043 9.16079 14.6908 9.52308C14.9809 9.73895 15.2642 9.94381 15.5253 10.1392L15.77 9.64913C15.5209 9.46163 15.2583 9.26623 14.9779 9.06139C14.4066 8.63822 13.7305 8.41099 13.0388 8.40903C12.0964 8.42829 11.189 8.8013 10.4705 9.46477L10.4586 9.47265C10.4429 9.48684 10.4266 9.50417 10.411 9.51992L10.3931 9.54041L10.341 9.59714C10.2644 9.68065 10.1848 9.7689 10.106 9.85871L10.0703 9.89969L10.048 9.92646C9.7713 10.2939 9.54222 10.7018 9.36965 11.1382C9.15842 11.6494 9.04685 12.2026 9.04164 12.7628C9.0394 13.5651 9.30717 14.3408 9.79436 14.9437C10.0108 15.2126 10.2109 15.4683 10.3946 15.711L10.8342 15.4306ZM23.0495 12.9236L23.1305 12.7817L22.903 12.3531L21.9286 13.0748C21.4986 13.3961 21.0353 13.6607 20.5473 13.8627C19.9746 14.0917 19.3454 14.0917 18.7726 13.8627C18.4618 13.7416 18.1628 13.5886 17.8786 13.4057C17.4353 13.1284 16.9452 12.7676 16.3516 12.3216C16.3516 12.3216 16.3516 12.309 16.3398 12.3121C16.249 12.4702 16.1686 12.635 16.0995 12.8053C16.6796 13.245 17.1743 13.6059 17.6235 13.8879C17.9359 14.0889 18.2654 14.2567 18.6068 14.389C19.2866 14.6558 20.0312 14.6558 20.7118 14.389C21.2369 14.1738 21.7382 13.893 22.2038 13.5522L23.0495 12.9236ZM12.8706 16.2452C13.2024 16.765 13.494 17.3143 13.7409 17.8871C14.063 18.6097 14.2363 19.3994 14.2496 20.2019C14.2408 20.981 14.066 21.7472 13.7394 22.441C13.3579 23.2441 12.8863 23.9929 12.3359 24.6707C11.9529 25.1591 11.5206 25.6697 11.0305 26.2164C10.9175 26.3368 10.8275 26.4809 10.7672 26.6399C10.707 26.7989 10.6772 26.9694 10.6795 27.1413C10.6869 27.4616 10.7583 27.7762 10.8892 28.0632C11.0112 28.3464 11.1704 28.6092 11.3608 28.8432L11.3972 28.8873L11.3883 28.8763C11.4374 28.9282 11.4723 28.9692 11.4984 28.9929C11.7111 29.2059 11.9535 29.381 12.2169 29.5113C12.4839 29.6521 12.7762 29.7283 13.0738 29.7351C13.4136 29.7358 13.7439 29.6089 14.008 29.3758C14.5516 28.9141 15.0373 28.4949 15.4948 28.1152C16.2059 27.4996 16.9608 26.9449 17.7514 26.456C18.4216 26.0716 19.0568 25.8461 19.7195 25.8461C20.4039 25.8668 21.0718 26.0743 21.6631 26.4497C22.1993 26.772 22.7133 27.1363 23.2004 27.5401L23.4712 27.0673C22.9743 26.6583 22.4492 26.2898 21.9025 25.9643C21.2399 25.5474 20.4915 25.3182 19.727 25.2978C19.0203 25.2978 18.3182 25.5106 17.5194 25.9707C16.7064 26.4714 15.9306 27.0393 15.1988 27.6692C15.1958 27.6686 15.1928 27.6686 15.1899 27.6692C14.8448 27.9498 14.4832 28.2587 14.0934 28.5896L13.6963 28.9267H13.6889C13.5141 29.0817 13.2946 29.1654 13.0693 29.1631C12.8483 29.1553 12.6312 29.0968 12.4325 28.9913C12.2199 28.8853 12.0242 28.7433 11.8524 28.5706L11.8294 28.5501L11.758 28.4713L11.7453 28.4571L11.7364 28.4461C11.5824 28.2569 11.4545 28.0447 11.3563 27.8159C11.2574 27.6033 11.2023 27.37 11.1942 27.1319C11.1912 27.03 11.2083 26.9286 11.2448 26.8344C11.2804 26.7403 11.3355 26.6559 11.4046 26.5868C11.9008 26.0352 12.33 25.5279 12.71 25.041C12.7174 25.0333 12.7242 25.0249 12.7301 25.0158C13.311 24.302 13.8071 23.5122 14.208 22.6647C14.5673 21.8946 14.7599 21.0449 14.7695 20.1813C14.757 19.2994 14.568 18.431 14.2154 17.6366C13.9522 17.0266 13.6412 16.4424 13.2858 15.8907L12.8706 16.2452ZM24.4783 28.61C24.752 28.848 25.0391 29.1017 25.3485 29.371C25.603 29.6043 25.9258 29.7311 26.259 29.7288C26.5401 29.7213 26.8168 29.6528 27.0727 29.5271C27.3159 29.41 27.5428 29.2572 27.7473 29.0732C27.8224 28.9944 27.9012 28.9157 27.9809 28.8212C28.1623 28.5816 28.3125 28.3166 28.4286 28.0332C28.5558 27.7432 28.6257 27.4278 28.6346 27.1068C28.6399 26.7636 28.5209 26.432 28.3029 26.1833L28.288 26.1644L28.3029 26.1818C27.8172 25.6003 27.3888 25.0788 27.008 24.606C26.4322 23.9198 25.9161 23.1777 25.4661 22.389C25.1091 21.7672 24.9134 21.0524 24.8985 20.3201C24.8985 19.5794 25.118 18.8562 25.4965 18.0762C25.9845 17.1384 26.5326 16.2391 27.1367 15.3849C27.4773 14.8822 27.8544 14.3386 28.2694 13.7398C28.4806 13.4479 28.5967 13.0883 28.6004 12.7171C28.596 12.3891 28.5253 12.0663 28.3929 11.7717C28.2724 11.4908 28.111 11.2331 27.9139 11.009L27.8432 10.9334C27.6409 10.7291 27.4096 10.5615 27.1582 10.437C26.8919 10.3022 26.6025 10.2302 26.3088 10.2259C25.9459 10.2283 25.5918 10.3496 25.2935 10.5741L24.491 11.2296L24.6233 11.425L24.6873 11.6929L25.5776 11.0358C25.7933 10.873 26.0492 10.7845 26.3118 10.7821C26.5312 10.7866 26.7469 10.8402 26.947 10.9397C27.1463 11.0393 27.33 11.1728 27.4907 11.3352L27.5353 11.384C27.6922 11.5634 27.8209 11.7694 27.9169 11.9939C28.018 12.2146 28.0723 12.4566 28.0783 12.703C28.0783 12.9649 27.9958 13.2192 27.8448 13.423L27.8239 13.4514C27.4148 14.0408 27.0452 14.5764 26.709 15.0728C26.0909 15.9498 25.53 16.8723 25.0294 17.8336C24.581 18.7569 24.3704 19.5527 24.3704 20.3374C24.3839 21.1677 24.604 21.9784 25.0072 22.6837C25.3501 23.3281 25.8142 23.9947 26.6025 24.9858C26.9641 25.438 27.3732 25.9312 27.8879 26.549L27.9028 26.5663C27.9696 26.6408 28.0218 26.7294 28.0568 26.8267C28.0917 26.9239 28.1073 27.0278 28.1043 27.1319C28.0931 27.3702 28.0396 27.6038 27.9444 27.819C27.8492 28.0482 27.7272 28.2632 27.5822 28.4587C27.5152 28.5312 27.4513 28.6021 27.3888 28.6668C27.2251 28.8127 27.0436 28.934 26.8495 29.0276C26.6584 29.1236 26.4509 29.1772 26.2403 29.1852C26.0277 29.1859 25.8223 29.1044 25.6602 28.955C25.3441 28.6778 25.06 28.4272 24.79 28.1956L24.4783 28.61ZM14.6156 11.6567L14.9793 11.2769C14.6892 11.0579 14.3746 10.8246 14.04 10.5804C13.7416 10.3556 13.3876 10.2352 13.0246 10.2353H13.0158C12.4742 10.2591 11.9559 10.4812 11.5452 10.8656L11.3206 11.1114C11.151 11.3421 11.0119 11.5966 10.9056 11.8678C10.7881 12.15 10.7248 12.4549 10.7181 12.7643C10.7137 13.1217 10.8319 13.4679 11.0506 13.735C11.3408 14.0896 11.5973 14.4268 11.8428 14.7546L12.2645 14.4394C12.0153 14.1038 11.7409 13.7492 11.4366 13.371C11.2969 13.2034 11.2216 12.9841 11.2262 12.7581C11.2343 12.5272 11.2834 12.3003 11.3712 12.09C11.4582 11.8714 11.572 11.6664 11.7089 11.4801L11.8725 11.2989L11.8993 11.2706C12.2154 10.9862 12.6081 10.8204 13.0186 10.7979C13.2828 10.7967 13.5415 10.8842 13.758 11.0484C14.1016 11.3016 14.4238 11.5411 14.7242 11.7669" fill="#F6C76B"/>
<path d="M15.3564 30.2409C15.5469 30.638 15.7625 31.1028 16.0214 31.6686C16.3561 32.4383 16.8397 33.1204 17.4399 33.6681C17.9865 34.1666 18.6604 34.4721 19.3714 34.5443H19.3849C19.402 34.5459 19.4191 34.5459 19.4369 34.5443H19.4845H19.585H19.695H19.8297H19.8542C19.8698 34.5459 19.8854 34.5459 19.9011 34.5443H19.9271C20.6359 34.4667 21.3068 34.1611 21.8542 33.6666C22.4538 33.1197 22.9402 32.4408 23.2801 31.6748C23.7605 30.6427 24.1348 29.8722 24.4568 29.2498C25.037 28.12 25.5078 27.3968 26.0128 26.8341C26.4457 26.3616 26.9329 25.9521 27.4632 25.6161L27.2371 25.1134C26.6584 25.4813 26.1267 25.9294 25.6543 26.4466C25.1047 27.0579 24.6144 27.8269 24.0187 28.9771C23.6691 29.6516 23.2801 30.4568 22.8309 31.4228C22.5237 32.1192 22.0841 32.7364 21.5397 33.2332C21.0718 33.6603 20.4961 33.9243 19.8877 33.9912H19.8371H19.637H19.605H19.492H19.4205C18.8121 33.927 18.235 33.6632 17.7671 33.2348C17.2249 32.7372 16.7883 32.118 16.487 31.4196C16.2244 30.846 15.9864 30.3339 15.7619 29.8738L15.3564 30.2409ZM11.9514 25.7342C12.4675 26.0668 12.9451 26.4662 13.3728 26.924C13.8399 27.4586 14.2445 28.0533 14.5778 28.6951L14.9823 28.3484C14.6372 27.6899 14.2184 27.0798 13.7365 26.5317C13.285 26.0477 12.7808 25.6244 12.2355 25.271L11.9514 25.7342ZM28.6004 15.7094C29.0355 15.9616 29.5258 16.2342 30.0664 16.5351C30.7389 16.8867 31.3287 17.3997 31.7913 18.0352C32.1811 18.5776 32.4057 19.2386 32.434 19.9261V19.8899V19.9576C32.434 19.9481 32.434 19.9371 32.434 19.9261V19.9497V20.1499C32.396 20.8362 32.1632 21.4929 31.7675 22.0298C31.3087 22.646 30.7277 23.142 30.068 23.481C29.5183 23.7772 29.0297 24.0419 28.593 24.2878L28.9902 24.6912C29.3748 24.4768 29.8024 24.2437 30.2955 23.9789C31.0244 23.6028 31.6663 23.0529 32.1729 22.3701C32.6333 21.7427 32.904 20.975 32.9457 20.1736V20.1483V19.9576C32.9472 19.9303 32.9472 19.903 32.9457 19.8757C32.9092 19.0826 32.6497 18.3208 32.2019 17.6932C31.6969 16.9919 31.052 16.4241 30.3164 16.0324C29.8069 15.7504 29.3532 15.4967 28.9425 15.262L28.6004 15.7094ZM19.6875 6.00132H19.753H19.8371H19.849C20.4678 6.06295 21.0547 6.32788 21.5314 6.76083C22.0827 7.2632 22.5244 7.89307 22.8234 8.60444C23.231 9.5231 23.5805 10.2873 23.9057 10.9318C24.4858 12.0821 24.9819 12.8542 25.5673 13.4908C26.0804 14.0353 26.6532 14.509 27.2728 14.9011L27.5852 14.4552C26.985 14.0808 26.4301 13.6266 25.9332 13.1032C25.3948 12.517 24.9179 11.789 24.3579 10.6702C24.0678 10.1093 23.7651 9.44274 23.289 8.36809C22.9565 7.58281 22.4679 6.88787 21.8572 6.3338C21.3009 5.8324 20.6181 5.52586 19.8981 5.45454H19.8617H19.7775H19.6847H19.515H19.4235H19.3581C18.6395 5.53124 17.9598 5.84337 17.4079 6.34957C16.8099 6.90598 16.3331 7.59973 16.0125 8.38069C15.596 9.34662 15.2598 10.0746 14.9563 10.6718C14.426 11.7212 13.941 12.4587 13.4018 13.0653C12.7785 13.7363 12.0704 14.3073 11.2983 14.7609L11.2782 14.7734C10.707 15.1296 9.99448 15.5282 9.03349 16.0246C8.30234 16.3791 7.65747 16.9126 7.14798 17.583C6.68905 18.1929 6.41534 18.942 6.36476 19.7276C6.36328 19.7512 6.36328 19.7749 6.36476 19.7986V20.0159C6.38931 20.8384 6.65038 21.632 7.11153 22.285C7.61508 22.9944 8.25921 23.5708 8.99704 23.971L9.08259 24.0214C9.55118 24.2878 9.96993 24.5257 10.347 24.7448L10.7606 24.3556C10.3098 24.0908 9.80183 23.804 9.22911 23.4762C8.55821 23.1148 7.9721 22.5933 7.51318 21.951C7.11674 21.3902 6.89136 20.7087 6.86905 20.0018V19.9766C6.86905 19.9024 6.86905 19.8473 6.86905 19.819V19.8017V19.7843C6.91145 19.1048 7.14798 18.4564 7.54516 17.9297C8.00556 17.3278 8.58722 16.849 9.24473 16.5304C10.144 16.0577 10.8922 15.6543 11.5267 15.2588C12.3457 14.7776 13.0975 14.171 13.7588 13.4578C14.3501 12.799 14.8492 12.0191 15.3944 10.9365C15.7283 10.2795 16.0764 9.51838 16.4662 8.6139C16.7548 7.907 17.184 7.27879 17.724 6.77501C18.1918 6.34224 18.7705 6.0741 19.3819 6.00605H19.4221H19.6645H19.6801L19.6875 6.00132ZM16.6953 29.0828C16.9482 29.6059 17.2189 30.1858 17.5194 30.8476C17.7485 31.3804 18.0788 31.8546 18.4879 32.239C18.7757 32.5031 19.129 32.6678 19.5031 32.7117H19.515H19.6237H19.791C20.1659 32.6646 20.5199 32.496 20.8062 32.2279C21.2198 31.8462 21.553 31.3728 21.7851 30.8397C22.2388 29.8611 22.6338 29.0433 22.996 28.3406C23.6185 27.143 24.1652 26.27 24.8131 25.5468C25.2705 25.041 25.78 24.5947 26.3319 24.2169L26.0879 23.7252C25.4907 24.1319 24.9395 24.6137 24.4463 25.1608C23.8052 25.8746 23.24 26.7364 22.5519 28.0663C22.2128 28.7219 21.8268 29.5223 21.3291 30.5876C21.1283 31.0492 20.8404 31.4602 20.4857 31.7946C20.2804 31.9879 20.029 32.1126 19.7604 32.1539H19.6237H19.5299C19.2643 32.1141 19.0152 31.9909 18.8129 31.7993C18.4611 31.4649 18.1777 31.0542 17.9805 30.5939C17.6354 29.8391 17.3624 29.2529 17.1238 28.7613L16.6953 29.0828ZM12.9755 24.2737C13.5491 24.6579 14.0809 25.1126 14.5591 25.6288C15.0597 26.1914 15.4978 26.816 15.8645 27.4897L16.2795 27.1619C15.895 26.4656 15.4375 25.8196 14.9177 25.2363C14.4252 24.7026 13.8785 24.232 13.2872 23.834L12.9755 24.2737ZM27.7592 17.2946C28.2204 17.561 28.7321 17.8477 29.3108 18.1691C29.7519 18.3964 30.1409 18.7276 30.4495 19.1382C30.6325 19.3839 30.7389 19.6862 30.7538 20.0018V20.0727C30.7329 20.3812 30.6235 20.6749 30.4407 20.9126C30.1393 21.3039 29.7638 21.619 29.3383 21.8359C29.3331 21.8381 29.3287 21.8413 29.3242 21.8453C28.6465 22.2093 28.0828 22.5167 27.5837 22.8019L27.8023 23.3046C28.3163 23.0099 28.8905 22.6978 29.5429 22.3418C30.0457 22.0882 30.4882 21.715 30.8393 21.2498C31.0884 20.9244 31.2364 20.5228 31.2648 20.101V19.9907C31.2477 19.5586 31.1055 19.1432 30.8587 18.8042C30.5039 18.3258 30.0545 17.9398 29.5443 17.6743C28.9731 17.3592 28.4613 17.0709 27.9958 16.8014L27.7592 17.2946ZM12.1083 16.3681C11.4352 16.792 10.6579 17.2142 9.74382 17.687C9.24771 17.9232 8.80812 18.28 8.45854 18.7301C8.21309 19.0494 8.06582 19.4447 8.0383 19.86C8.0383 19.9134 8.0383 19.9576 8.0383 19.9844C8.05243 20.422 8.19301 20.8437 8.43994 21.1899C8.79473 21.6786 9.24473 22.0752 9.7587 22.3512C10.44 22.7357 11.0321 23.0712 11.5557 23.3818L11.8458 22.909C11.3192 22.5938 10.7286 22.2613 10.0324 21.8674L10.0019 21.8517C9.55861 21.6138 9.16812 21.2727 8.85945 20.8527C8.6735 20.5983 8.56415 20.288 8.54705 19.9639V19.86C8.57383 19.5663 8.68316 19.2887 8.85945 19.0641C9.16069 18.6836 9.53779 18.3816 9.96174 18.1802C11.0157 17.6334 11.7298 17.2348 12.3457 16.8518L12.3604 16.8423C13.4702 16.1617 14.2735 15.5093 14.9668 14.7436C15.66 13.9778 16.2401 13.0843 16.8723 11.8379C17.1944 11.2076 17.5395 10.4528 17.9924 9.40807C18.177 8.9484 18.4514 8.53807 18.7972 8.20578C19.0018 8.01181 19.2532 7.88694 19.5224 7.84651H19.5804H19.695H19.753C20.0268 7.88649 20.2841 8.01244 20.4923 8.20893C20.8472 8.54282 21.1305 8.95624 21.3239 9.42068C21.7457 10.3661 22.0997 11.154 22.4463 11.8331C23.1164 13.1647 23.7011 14.0533 24.3943 14.8066C24.9744 15.4249 25.6201 15.9656 26.3185 16.4169L26.5409 15.9127C25.8938 15.491 25.2943 14.9881 24.7551 14.4142C24.0633 13.6626 23.5025 12.7722 22.8933 11.5652C22.5504 10.8861 22.1957 10.1077 21.7821 9.17959C21.559 8.63971 21.228 8.16062 20.813 7.77718C20.5207 7.50529 20.1591 7.33656 19.7761 7.29343H19.7211H19.6817H19.4815C19.106 7.34096 18.7527 7.51004 18.4663 7.77875C18.0602 8.1608 17.7381 8.63747 17.5254 9.17329C17.126 10.0888 16.7712 10.8751 16.4187 11.5716C15.9307 12.5837 15.3178 13.5183 14.5971 14.3496C13.8607 15.1483 13.0224 15.8281 12.1083 16.3681Z" fill="#F6C76B"/>
</g>
</g>
<defs>
<clipPath id="clip0_344_323">
<rect width="40" height="40" fill="white"/>
</clipPath>
</defs>
</svg>
