<svg width="40" height="40" viewBox="0 0 40 40" fill="none" xmlns="http://www.w3.org/2000/svg">
<g clip-path="url(#clip0_344_310)">
<path d="M0 0H40V40H0V0Z" fill="#0066FF"/>
<path d="M12.0143 12.3786C11.3 13.0643 10.6357 14.3071 10.7286 16.5643C10.8915 19.9952 11.8136 23.3472 13.4286 26.3786C15.1286 29.4214 17.4572 31.4286 20.3572 31.4286C22.6643 31.4286 24.8786 29.4143 26.6072 26.2357C28.2929 23.1286 29.2643 19.3286 29.2857 16.6C29.3 14.5 28.6643 13.2429 27.9715 12.5143C27.4512 11.9385 26.7513 11.5558 25.9857 11.4286C24.6572 11.4429 23.6715 12.1 22.65 13.3714C21.9857 14.1929 21.1215 14.8571 20.0429 14.8857C18.9572 14.9071 18.0286 14.2786 17.2786 13.3857C16.2357 12.1429 15.3357 11.4286 14.25 11.4286C13.6786 11.4286 12.7643 11.6571 12.0143 12.3786ZM10.5286 10.8357C11.5264 9.86834 12.8534 9.31456 14.2429 9.28572C16.3857 9.28572 17.85 10.7429 18.9215 12.0143C19.4715 12.6571 19.8286 12.7429 19.9929 12.7429C20.1643 12.7429 20.4929 12.6286 20.9786 12.0286C22.2286 10.4714 23.7786 9.28572 26.0429 9.28572H26.1429C27.1143 9.37858 28.4429 9.88572 29.5357 11.05C30.65 12.2357 31.4429 14.0429 31.4286 16.6214C31.4072 19.7286 30.3215 23.8786 28.4857 27.2572C26.7 30.5643 23.9286 33.5714 20.3572 33.5714C16.3215 33.5714 13.4215 30.7571 11.5572 27.4214C9.68574 24.0643 8.70003 19.9214 8.5786 16.65C8.4786 13.9 9.29288 12.0214 10.5286 10.8357Z" fill="white"/>
</g>
<defs>
<clipPath id="clip0_344_310">
<rect width="40" height="40" rx="20" fill="white"/>
</clipPath>
</defs>
</svg>
