<svg width="40" height="40" viewBox="0 0 40 40" fill="none" xmlns="http://www.w3.org/2000/svg">
<g clip-path="url(#clip0_383_6)">
<path d="M0 20C0 8.95431 8.95431 0 20 0C31.0457 0 40 8.95431 40 20C40 31.0457 31.0457 40 20 40C8.95431 40 0 31.0457 0 20Z" fill="#F2F2F7"/>
<path d="M30.7143 20.4128C30.7143 26.02 26.38 30.6578 21.0264 31.4286V27.6493C21.0264 25.2621 21.6521 22.0171 22.4428 20.4257C23.2464 18.8214 24.31 17.5043 25.5957 16.4971C26.8814 15.5021 28.3528 14.6393 29.9721 14.2543C30.2169 14.1983 30.4647 14.1563 30.7143 14.1286V20.4128ZM30.7143 12.7457L30.3557 12.7957C25.8678 13.3671 22.2578 15.2036 19.6486 17.4914C16.2864 20.4257 14.8364 24.5036 14.7986 29.6128V30.31C11.2514 28.4321 8.57141 24.6593 8.57141 20.3571C8.57141 14.215 13.5286 9.28571 19.6364 9.28571H30.7143V12.7457Z" fill="url(#paint0_linear_383_6)"/>
</g>
<defs>
<linearGradient id="paint0_linear_383_6" x1="8.77284" y1="20.3621" x2="30.4371" y2="20.3621" gradientUnits="userSpaceOnUse">
<stop stop-color="#006F44"/>
<stop offset="1" stop-color="#78BE20"/>
</linearGradient>
<clipPath id="clip0_383_6">
<rect width="40" height="40" fill="white"/>
</clipPath>
</defs>
</svg>
