<svg width="40" height="40" viewBox="0 0 40 40" fill="none" xmlns="http://www.w3.org/2000/svg">
<g clip-path="url(#clip0_344_64)">
<path d="M0 0H40V40H0V0Z" fill="#004877"/>
<path d="M12.9979 12.1429C12.4167 12.1551 11.8436 12.2818 11.3115 12.5157C10.7657 12.7564 10.2579 13.1079 9.80859 13.5179C9.36467 13.9316 8.96709 14.3924 8.62288 14.8921C8.27716 15.3893 7.97431 15.9143 7.71288 16.4443C7.45002 16.9714 7.23002 17.5086 7.03431 18.0329C6.84894 18.535 6.68404 19.0445 6.54002 19.56C6.40955 20.0206 6.29331 20.4851 6.19145 20.9529C6.03828 21.6525 5.91199 22.3578 5.81288 23.0671C5.77859 23.3221 5.75359 23.5207 5.73931 23.66C5.72288 23.7971 5.71502 23.8729 5.71502 23.8729C5.71331 23.8841 5.71386 23.8956 5.71665 23.9067C5.71944 23.9177 5.7244 23.9281 5.73125 23.9372C5.7381 23.9463 5.7467 23.954 5.75655 23.9598C5.7664 23.9655 5.77729 23.9692 5.78859 23.9707C5.80021 23.9731 5.81219 23.973 5.82379 23.9706C5.83539 23.9682 5.84637 23.9634 5.85607 23.9566C5.86576 23.9498 5.87396 23.941 5.88017 23.9309C5.88638 23.9208 5.89046 23.9096 5.89216 23.8979C5.89216 23.8979 5.90717 23.8264 5.92859 23.69C6.06832 22.7935 6.25187 21.9043 6.47859 21.0257C6.59002 20.6014 6.72574 20.1421 6.88217 19.6636C7.03717 19.1879 7.21359 18.6907 7.42574 18.185C7.63574 17.6821 7.87288 17.17 8.14717 16.6707C8.41859 16.17 8.72931 15.6779 9.07574 15.2221C9.41151 14.7697 9.79649 14.356 10.2236 13.9886C10.6436 13.6329 11.1057 13.3429 11.5807 13.1571C12.0318 12.9814 12.5132 12.8964 12.9972 12.9071C13.4543 12.9193 13.8872 13.0129 14.2686 13.1514C14.6515 13.2914 14.9822 13.4707 15.27 13.6464C15.5572 13.825 15.8 13.9936 15.9915 14.1464L16.0586 14.2021C16.04 14.2093 16.0207 14.2129 16.0036 14.2207C15.7907 14.3064 15.5893 14.4143 15.3922 14.5321C15.195 14.6464 15.0043 14.7771 14.8243 14.9171C14.6457 15.0564 14.4722 15.2114 14.3107 15.3693C14.1486 15.525 13.9965 15.6836 13.8529 15.8514C13.5629 16.1871 13.3136 16.5443 13.0886 16.8964C12.6892 17.5384 12.3577 18.2202 12.0993 18.9307C11.8715 19.555 11.7372 20.0971 11.6779 20.4821C11.6479 20.675 11.6329 20.8221 11.6293 20.9286C11.6257 20.9843 11.6293 20.9879 11.6293 21.0143V21.0443C11.6293 21.0879 11.665 21.1214 11.7079 21.1243C11.7536 21.1264 11.7929 21.0929 11.7936 21.0507C11.7936 21.0507 11.7922 21.0329 11.7936 21.0079L11.8007 20.9407C11.8086 20.8436 11.8286 20.6979 11.8672 20.5129C11.9407 20.1464 12.0929 19.625 12.3436 19.0286C12.5936 18.4343 12.94 17.7571 13.4007 17.0979C13.6293 16.7679 13.8893 16.4429 14.1765 16.1386C14.4607 15.832 14.776 15.5558 15.1172 15.3143C15.2872 15.1929 15.4665 15.08 15.6486 14.9843C15.8293 14.8871 16.0143 14.8057 16.205 14.74C16.2979 14.7043 16.3972 14.6771 16.4922 14.6479C16.5143 14.6421 16.5315 14.635 16.5529 14.63C16.6279 14.6121 16.7043 14.5929 16.7793 14.5807C16.875 14.5621 16.9715 14.5521 17.0665 14.5379C17.1129 14.5314 17.1593 14.525 17.2072 14.52C17.2429 14.5164 17.2786 14.5157 17.3172 14.5136H17.3529C17.5415 14.5021 17.7279 14.5229 17.91 14.5379C18.0893 14.5621 18.2607 14.5921 18.4286 14.6357C18.7679 14.7214 19.08 14.8407 19.3572 14.9714C19.6372 15.1043 19.8836 15.245 20.0965 15.3814C20.2015 15.4521 20.3 15.5164 20.3893 15.5829C20.4786 15.6471 20.5607 15.7086 20.6343 15.7664C20.7043 15.8221 20.7736 15.8693 20.83 15.9129C20.8843 15.9571 20.9272 15.9957 20.9643 16.0286C21.0407 16.0921 21.0857 16.1264 21.0857 16.1264L21.0929 16.1386C21.0965 16.1421 21.1057 16.1421 21.1107 16.145C21.1976 16.2083 21.3058 16.235 21.4121 16.2194C21.5184 16.2037 21.6143 16.1469 21.6792 16.0613C21.744 15.9756 21.7727 15.8679 21.759 15.7613C21.7452 15.6548 21.6902 15.5578 21.6057 15.4914C21.6057 15.4914 21.5557 15.4593 21.4715 15.3936C21.4196 15.356 21.3686 15.3171 21.3186 15.2771L21.0986 15.1243C21.0089 15.0605 20.9171 14.9995 20.8236 14.9414C20.725 14.8743 20.6129 14.8107 20.4936 14.74C20.2222 14.5811 19.9407 14.4403 19.6507 14.3186C19.3043 14.1713 18.9443 14.0586 18.5757 13.9821C18.1615 13.9005 17.7381 13.8757 17.3172 13.9086C17.2636 13.9129 17.21 13.915 17.1579 13.9207C17.13 13.8979 17.0893 13.8614 17.0293 13.8107C16.9617 13.7542 16.8926 13.6994 16.8222 13.6464C16.7379 13.5821 16.6465 13.5093 16.535 13.4321C16.2712 13.2382 15.9957 13.0607 15.71 12.9007C15.3329 12.6888 14.9357 12.5149 14.5243 12.3814C14.0316 12.2215 13.5159 12.141 12.9979 12.1429ZM32.205 18.1C31.9743 18.1 31.6465 18.1964 31.4722 18.2829L31.3865 18.3257L31.4415 18.57C30.134 21.0982 28.8288 23.6274 27.5257 26.1579C27.3929 26.3886 27.2993 26.5736 27.2993 26.5736C27.2636 26.635 27.2622 26.6914 27.2872 26.7321C27.3143 26.78 27.3729 26.8 27.4707 26.8H28.155C28.3957 26.8 28.4393 26.74 28.5093 26.6164L29.7129 24.2093H31.32C31.6915 24.2 32.0265 23.8221 32.0343 23.3964V23.275H30.2079L31.8636 19.9879L33.0915 26.4821C33.1593 26.8007 33.1893 26.8486 33.3536 26.8486C33.5043 26.8486 33.8143 26.7629 34.0386 26.6957L34.1479 26.6593C34.2493 26.6286 34.2993 26.5593 34.2829 26.4757L32.6515 18.5214C32.5486 18.1457 32.3486 18.1 32.205 18.1ZM25.32 18.1057C24.7129 18.1057 23.7429 18.2493 23.4265 18.3629L23.4143 18.3686C23.2172 18.5107 23.0636 18.8471 23.0415 19.0343C23.0415 19.0843 23.0793 19.1386 23.1515 19.1386C23.16 19.1386 23.225 19.13 23.3157 19.12H23.3286C23.4257 19.1107 23.5465 19.0929 23.6465 19.0836C23.5479 19.6229 23.3443 20.9871 23.1207 22.425C22.8593 24.14 22.5829 25.9079 22.4493 26.6343C22.4443 26.6585 22.4443 26.6836 22.4495 26.7078C22.4547 26.732 22.4648 26.7549 22.4793 26.775C22.5215 26.8336 22.5936 26.8443 22.6257 26.8486H23.4079C23.5615 26.8486 23.6486 26.7329 23.6765 26.6286C23.6857 26.5621 24.6715 20.0214 24.85 18.9736C24.9615 18.9664 25.1622 18.9671 25.2529 18.9671C25.8293 18.9671 26.2957 19.1379 26.6029 19.4564C26.8972 19.7629 27.0457 20.1971 27.0243 20.7207C26.97 22.0907 26.3072 22.7857 25.0572 22.7857C24.8815 22.7857 24.7572 22.775 24.63 22.725C24.5515 22.69 24.505 22.725 24.5014 22.8107C24.4843 23.0693 24.5757 23.3107 24.7457 23.4579C24.8943 23.5843 25.0372 23.6221 25.3872 23.6221C26.5043 23.6221 28.1943 22.8593 28.2772 20.745C28.31 19.9693 28.1107 19.3443 27.6786 18.8943C27.1779 18.3729 26.3822 18.1057 25.32 18.1057ZM19.4129 18.1121C15.72 18.1121 14.2472 20.9429 14.1586 22.8471C14.095 24.0371 14.4036 25.0329 15.0565 25.7243C15.7443 26.4529 16.8086 26.8421 18.1293 26.8486H18.1843C18.9422 26.8486 19.6507 26.7464 20.4693 26.5186L20.5365 26.5L20.555 26.4271C20.5907 26.2293 20.6572 25.85 20.7379 25.4064C20.9179 24.4264 21.1415 23.1993 21.1965 22.9264C21.2072 22.8364 21.2129 22.7214 21.1415 22.6393C21.0879 22.575 21.0043 22.5493 20.8915 22.5479C20.8107 22.5479 20.4129 22.5864 20.3415 22.5964C19.9029 22.6571 19.3143 22.8093 19.3086 22.8107L19.2965 22.8164C19.075 22.9764 18.8672 23.5479 18.8443 23.7086C18.84 23.7343 18.8372 23.7543 18.85 23.7693C18.8772 23.805 18.9215 23.8307 18.9722 23.8307L19.1743 23.8057C19.3172 23.7921 19.6822 23.7357 19.8215 23.7143C19.8157 23.7436 19.8122 23.7814 19.8036 23.8307C19.6959 24.5048 19.5756 25.1768 19.4429 25.8464C19.1163 25.9363 18.7795 25.9836 18.4407 25.9871C17.5215 25.9814 16.7665 25.7007 16.2657 25.1743C15.7493 24.6271 15.505 23.8364 15.5515 22.8836C15.6565 20.6307 17.25 19.0529 19.43 19.0529H19.455C20.1193 19.0571 20.7236 19.2979 20.9215 19.3764C20.9987 19.4099 21.0816 19.4285 21.1657 19.4314C21.5115 19.4314 21.7029 19.1214 21.7707 18.8329L21.7886 18.76L21.7336 18.7107C21.3322 18.3636 20.3929 18.1171 19.4493 18.1121H19.4129Z" fill="white"/>
</g>
<defs>
<clipPath id="clip0_344_64">
<rect width="40" height="40" rx="20" fill="white"/>
</clipPath>
</defs>
</svg>
