<svg width="40" height="40" viewBox="0 0 40 40" fill="none" xmlns="http://www.w3.org/2000/svg">
<g clip-path="url(#clip0_312_2560)">
<rect width="40" height="40" fill="#008542"/>
<path fill-rule="evenodd" clip-rule="evenodd" d="M40 12.381H0V17.1429H10.5944L7.37676 28.2985H14.0266C16.6691 28.2985 17.3095 27.734 17.8485 27.2589C17.8976 27.2157 17.9458 27.1731 17.9947 27.1319C18.7749 26.4721 19.1955 24.9145 18.8419 23.8273C18.592 23.0576 17.8666 22.5935 17.7875 22.569C18.6895 22.1536 19.2138 21.2313 19.2747 21.0969C19.6099 20.4006 19.8659 19.1422 19.037 18.1283C18.5818 17.5713 17.8419 17.281 17.1108 17.1429H23.1201L19.8903 28.3168H23.1878L24.3947 24.041H26.2782C27.5013 24.041 27.5317 24.7214 27.5499 25.1285C27.5521 25.1778 27.5541 25.2231 27.5581 25.2627L27.6678 28.4085H30.7337C30.7337 28.4085 30.5935 24.8779 30.5814 24.6213C30.5387 23.7113 29.9414 23.3081 29.4294 23.3081C30.4107 23.0454 31.264 22.1475 31.6054 21.5794C32.0015 20.9198 32.2941 19.8692 31.9041 18.8246C31.5076 17.7536 30.6632 17.3146 29.8427 17.1429H40V12.381ZM28.1311 19.3072H25.7296C25.7113 19.3682 25.0286 21.8299 25.0346 21.8299H27.4789C28.8625 21.8299 29.3135 20.8159 29.3135 20.3028C29.3135 20.0829 29.2709 19.3072 28.1311 19.3072ZM14.2217 23.5402H12.0274C12.0274 23.5463 11.3265 25.9774 11.3265 25.9774H13.7645C15.0106 25.9774 15.3057 25.3925 15.4452 25.116C15.4592 25.0882 15.4717 25.0635 15.4834 25.0428C15.587 24.8596 15.6541 24.3342 15.5078 24.0838C15.4942 24.0614 15.4813 24.0387 15.4684 24.0159C15.3365 23.7833 15.1986 23.5402 14.2217 23.5402ZM15.7699 19.2889H13.2282L12.6431 21.3778H15.3615C16.16 21.3778 16.733 20.8709 16.733 20.1501C16.733 19.6126 16.2758 19.2889 15.7699 19.2889Z" fill="white"/>
<path d="M40 0H0V12.381H40V0Z" fill="#FDC82F"/>
</g>
<defs>
<clipPath id="clip0_312_2560">
<rect width="40" height="40" rx="20" fill="white"/>
</clipPath>
</defs>
</svg>
