<svg width="40" height="40" viewBox="0 0 40 40" fill="none" xmlns="http://www.w3.org/2000/svg">
<g clip-path="url(#clip0_344_277)">
<path d="M0 0H40V40H0V0Z" fill="#F0F3FA"/>
<path d="M20 15C21.3261 15 22.5979 15.5268 23.5355 16.4645C24.4732 17.4021 25 18.6739 25 20C25 21.3261 24.4732 22.5979 23.5355 23.5355C22.5979 24.4732 21.3261 25 20 25C18.6739 25 17.4021 24.4732 16.4645 23.5355C15.5268 22.5979 15 21.3261 15 20C15 18.6739 15.5268 17.4021 16.4645 16.4645C17.4021 15.5268 18.6739 15 20 15Z" fill="#F4821A"/>
<path d="M14.6429 14.9857C15.4054 14.9847 16.156 14.796 16.8282 14.4361C17.5005 14.0762 18.0738 13.5563 18.4974 12.9222C18.921 12.2882 19.182 11.5596 19.2572 10.8008C19.3324 10.0419 19.2195 9.27628 18.9286 8.57143C16.5 8.71428 13.0643 10.0857 10.8857 13.0714C11.3149 13.6643 11.8786 14.1469 12.5305 14.4796C13.1823 14.8124 13.9038 14.9858 14.6357 14.9857H14.6429ZM14.6429 25.0143C15.4054 25.0153 16.156 25.204 16.8282 25.5639C17.5005 25.9238 18.0738 26.4437 18.4974 27.0778C18.921 27.7118 19.182 28.4404 19.2572 29.1992C19.3324 29.9581 19.2195 30.7237 18.9286 31.4286C16.5 31.2857 13.0643 29.9143 10.8786 26.9286C11.3085 26.3348 11.8733 25.8515 12.5265 25.5187C13.1797 25.1859 13.9026 25.013 14.6357 25.0143H14.6429ZM11.2572 23.9929C12.3317 23.389 13.123 22.3838 13.4577 21.1976C13.7925 20.0113 13.6433 18.7407 13.0429 17.6643C12.689 17.0243 12.1887 16.4771 11.5829 16.0674C10.9771 15.6578 10.2829 15.3972 9.55716 15.3071C8.90789 16.7613 8.57233 18.336 8.57233 19.9286C8.57233 21.5211 8.90789 23.0958 9.55716 24.55C10.1547 24.477 10.7323 24.2877 11.2572 23.9929ZM26.95 17.6643C26.5793 18.3309 26.3779 19.0784 26.3637 19.841C26.3495 20.6037 26.5228 21.3581 26.8684 22.0381C27.2141 22.7181 27.7214 23.3028 28.3459 23.7408C28.9704 24.1788 29.693 24.4566 30.45 24.55C31.0982 23.0968 31.4332 21.5234 31.4332 19.9321C31.4332 18.3409 31.0982 16.7675 30.45 15.3143C29.7224 15.4015 29.0258 15.6599 28.4174 16.0684C27.809 16.4769 27.3061 17.0238 26.95 17.6643ZM20.7143 10.3357C20.7134 10.946 20.8328 11.5505 21.0657 12.1147C21.2986 12.6788 21.6404 13.1914 22.0716 13.6233C22.5029 14.0552 23.015 14.3978 23.5788 14.6316C24.1425 14.8654 24.7468 14.9857 25.3572 14.9857C26.0884 14.9867 26.8095 14.8143 27.4614 14.4828C28.1132 14.1513 28.6772 13.6701 29.1072 13.0786C28.1595 11.8017 26.9522 10.7399 25.5648 9.96305C24.1773 9.18621 22.6411 8.71194 21.0572 8.57143C20.8292 9.13163 20.7128 9.73092 20.7143 10.3357ZM25.3572 25.0143C24.5934 25.0129 23.8411 25.2 23.167 25.5589C22.4928 25.9178 21.9176 26.4375 21.4923 27.0718C21.067 27.7062 20.8048 28.4357 20.7289 29.1957C20.653 29.9556 20.7658 30.7226 21.0572 31.4286C23.4857 31.2857 26.9286 29.9143 29.1072 26.9286C28.678 26.3357 28.1143 25.8531 27.4624 25.5204C26.8105 25.1876 26.0891 25.0142 25.3572 25.0143Z" fill="black"/>
</g>
<defs>
<clipPath id="clip0_344_277">
<rect width="40" height="40" rx="20" fill="white"/>
</clipPath>
</defs>
</svg>
