<svg width="40" height="40" viewBox="0 0 40 40" fill="none" xmlns="http://www.w3.org/2000/svg">
<g clip-path="url(#clip0_435_2)">
<path d="M0 0H40V40H0V0Z" fill="#F2F2F7"/>
<path d="M30.9639 14C30.5746 14 30.1594 14.0778 29.7961 14.2335C29.4328 14.3633 29.0955 14.5968 28.81 14.8563C28.5246 15.1418 28.317 15.4791 28.1613 15.8424C28.0056 16.2057 27.9277 16.595 27.9277 16.9842V19.9944H26.7081V25.9629H29.7442C30.5487 25.9629 31.3272 25.6515 31.8981 25.1066C32.469 24.5357 32.7804 23.7831 32.7804 22.9787V19.9944H34V14H30.9639Z" fill="#00BEDD"/>
<path d="M23.646 14C22.8415 14 22.089 14.3114 21.5181 14.8823C20.9472 15.4272 20.6098 16.2057 20.6098 16.9842V19.9944H19.3902V14H16.354C15.5496 14 14.7711 14.3114 14.2002 14.8563C13.6293 15.4272 13.3179 16.2057 13.2919 16.9842V19.9944H12.0982V14H9.03614C8.2317 14 7.47915 14.3114 6.90825 14.8563C6.33735 15.4272 6 16.2057 6 16.9842V19.9944H9.65894V25.9629H12.6951C13.0843 25.9629 13.4995 25.8851 13.8628 25.7553C14.2261 25.5996 14.5635 25.392 14.8489 25.1066C15.1344 24.8211 15.342 24.4838 15.4977 24.1205C15.6534 23.7572 15.7312 23.3679 15.7312 22.9787V19.9944H16.9509V25.9629H20.013C20.7915 25.9629 21.57 25.6515 22.1409 25.1066C22.7118 24.5357 23.0491 23.7831 23.0491 22.9787V19.9944H26.7081V14H23.646Z" fill="#001C43"/>
</g>
<defs>
<clipPath id="clip0_435_2">
<rect width="40" height="40" rx="20" fill="white"/>
</clipPath>
</defs>
</svg>
