<svg width="40" height="40" viewBox="0 0 40 40" fill="none" xmlns="http://www.w3.org/2000/svg">
<g clip-path="url(#clip0_344_269)">
<path d="M0 0H40V40H0V0Z" fill="#F2F2F7"/>
<path fill-rule="evenodd" clip-rule="evenodd" d="M10.7714 10H29.2286C29.6286 10 30 10.3429 30 10.7857V29.2143C30 29.6214 29.6643 30 29.2286 30H10.7714C10.5655 29.9963 10.3693 29.9118 10.2251 29.7649C10.0808 29.6179 9.99997 29.4202 10 29.2143V10.7857C10 10.3429 10.3357 10 10.7714 10ZM11.1071 11.3C11.8143 11.2643 20.2714 10.9571 25.1357 15.8571C25.1357 15.8571 21.2786 12.9143 12.55 14.2143C12.2009 13.183 11.7156 12.2029 11.1071 11.3ZM13.6214 18.25C16.2429 17.5357 24.8 16.0286 27.4143 19.0786C25.7357 13.6643 14.8643 15.1 12.9857 15.3786C13.2571 16.2357 13.4571 17.1929 13.6286 18.25H13.6214ZM13.7929 19.6571C15.8714 19.0786 27.55 16.0643 28.7214 21.75C25.0357 19.2143 16.2429 22.0571 13.9286 22.9143C13.9571 22.2214 13.9286 21.5 13.9 20.7143L13.8929 20.6143L13.7929 19.6571ZM27.5143 27.2286C34.3286 18.4571 18.7929 22.4 13.8286 24.5143C13.6214 26.3 13.1571 27.7071 12.55 28.8C14.5 27.8429 22.35 24.4143 26.1429 24.2143C28.1571 24.0714 28.9929 24.45 27.5143 27.2286Z" fill="#019EE0"/>
</g>
<defs>
<clipPath id="clip0_344_269">
<rect width="40" height="40" rx="20" fill="white"/>
</clipPath>
</defs>
</svg>
