<svg width="40" height="40" viewBox="0 0 40 40" fill="none" xmlns="http://www.w3.org/2000/svg">
<g clip-path="url(#clip0_379_2)">
<path d="M0 20C0 8.95431 8.95431 0 20 0C31.0457 0 40 8.95431 40 20C40 31.0457 31.0457 40 20 40C8.95431 40 0 31.0457 0 20Z" fill="#022C6A"/>
<path d="M23.6428 17.8571C23.0428 17.8571 22.3571 18.1786 22.1428 18.8071V16.4286L21.4285 16.6071V22.8571H22.1428V21.9714C22.2831 22.2415 22.4956 22.4673 22.7566 22.6237C23.0177 22.7801 23.3171 22.8609 23.6214 22.8571C25.05 22.8571 25.7143 21.7357 25.7143 20.4428C25.7285 19.1714 25.05 17.8571 23.6357 17.8571H23.6428ZM23.6428 22.1428C22.4285 22.1428 22.1357 21.1071 22.1428 20.3571C22.15 19.6071 22.4285 18.5714 23.6428 18.5714C24.7214 18.5714 25 19.6214 25 20.3571C25 21.0928 24.7214 22.1428 23.6428 22.1428ZM5.28569 16.4286H2.85712V22.8571H3.5714V20H5.29283C5.53294 20.0096 5.77251 19.9705 5.99709 19.885C6.22167 19.7995 6.42659 19.6694 6.59949 19.5025C6.77239 19.3356 6.90967 19.1354 7.00306 18.914C7.09644 18.6926 7.14399 18.4546 7.14283 18.2143C7.15712 17.2428 6.39997 16.4286 5.29283 16.4286H5.28569ZM5.16426 19.2857H3.5714V17.1428H5.1714C5.98569 17.1428 6.41426 17.5714 6.42855 18.2143C6.44283 18.8571 5.98569 19.2857 5.1714 19.2857H5.16426ZM30.7143 22.8571H31.4285V17.1428L30.7143 17.3143V22.8571ZM32.1428 22.8571H32.8571V17.1428L32.1428 17.3143V22.8571ZM9.28569 17.8571C7.89997 17.8571 7.14283 19 7.14283 20.3571C7.14283 21.7071 7.89997 22.8571 9.28569 22.8571C10.6714 22.8571 11.4285 21.7143 11.4285 20.3571C11.4285 19 10.6714 17.8571 9.28569 17.8571ZM9.28569 22.1428C8.34997 22.1357 7.85712 21.3571 7.85712 20.3571C7.85712 19.3571 8.35712 18.5714 9.28569 18.5714C10.2143 18.5714 10.7143 19.3571 10.7143 20.3571C10.7143 21.3571 10.2214 22.15 9.28569 22.1428ZM18.9285 17.8571C17.5428 17.8571 16.7857 19 16.7857 20.3571C16.7857 21.7071 17.5428 22.8571 18.9285 22.8571C20.3143 22.8571 21.0714 21.7143 21.0714 20.3571C21.0714 19 20.3143 17.8571 18.9285 17.8571ZM18.9285 22.1428C18 22.1357 17.5 21.3571 17.5 20.3571C17.5 19.3571 18.0071 18.5714 18.9285 18.5714C19.8571 18.5714 20.3571 19.3571 20.3571 20.3571C20.3571 21.3571 19.8714 22.15 18.9285 22.1428ZM35.7143 17.8571C34.3285 17.8571 33.5714 19 33.5714 20.3571C33.5714 21.7071 34.3285 22.8571 35.7143 22.8571C37.1 22.8571 37.8571 21.7143 37.8571 20.3571C37.8571 19 37.1 17.8571 35.7143 17.8571ZM35.7143 22.1428C34.7785 22.1357 34.2857 21.3571 34.2857 20.3571C34.2857 19.3571 34.7857 18.5714 35.7143 18.5714C36.6428 18.5714 37.1428 19.3571 37.1428 20.3571C37.1428 21.3571 36.65 22.15 35.7143 22.1428ZM15.7143 18.5714V17.1428L15 17.3143V22.8571H15.7143V19.2857H16.6785L16.85 18.5714H15.7143ZM28.2285 17.8571C26.8285 17.8571 26.2428 19.1143 26.2428 20.3571C26.2428 21.7071 26.9571 22.8571 28.2285 22.8571C29.1857 22.8571 29.8714 22.4286 30.1214 21.4286H29.4571C29.15 21.9286 28.9643 22.1428 28.2285 22.1428C27.4928 22.1428 26.9643 21.55 26.9571 20.7143H30.1714C30.2071 19.3786 29.6428 17.8571 28.2285 17.8571ZM26.9571 20C27.0428 19.1428 27.4785 18.5714 28.2285 18.5714C28.9785 18.5714 29.4285 19.1428 29.4571 20H26.9571ZM14.1643 17.8571C13.4714 17.8571 13.0928 18.2643 12.8571 19.0357V17.8571H12.1428V22.8571H12.8571V20.3857C12.8571 19.3714 13.3285 18.5571 14.1857 18.5714H14.2857V17.8571H14.1643Z" fill="white"/>
</g>
<defs>
<clipPath id="clip0_379_2">
<rect width="40" height="40" fill="white"/>
</clipPath>
</defs>
</svg>
