<svg width="40" height="40" viewBox="0 0 40 40" fill="none" xmlns="http://www.w3.org/2000/svg">
<g clip-path="url(#clip0_312_2421)">
<path d="M0 0H40V40H0V0Z" fill="#171A88"/>
<path d="M34.5454 19.9219C34.5454 20.7693 33.8584 21.4563 33.011 21.4563C32.1636 21.4563 31.4767 20.7693 31.4767 19.9219C31.4767 19.0746 32.1636 18.3876 33.011 18.3876C33.8584 18.3876 34.5454 19.0746 34.5454 19.9219Z" fill="white" stroke="white" stroke-width="0.7"/>
<path d="M19.9836 11.2779C18.274 11.2779 16.6028 11.7848 15.1814 12.7346C13.7599 13.6845 12.652 15.0344 11.9978 16.6138C11.3435 18.1933 11.1723 19.9313 11.5059 21.608C11.8394 23.2847 12.6626 24.8249 13.8715 26.0338C15.0803 27.2426 16.6205 28.0659 18.2973 28.3994C19.974 28.7329 21.712 28.5618 23.2914 27.9075C24.8709 27.2533 26.2209 26.1454 27.1706 24.724C28.1205 23.3025 28.6274 21.6313 28.6274 19.9217C28.6274 18.7866 28.4038 17.6626 27.9694 16.6138C27.5351 15.5651 26.8983 14.6123 26.0957 13.8096C25.2931 13.007 24.3401 12.3703 23.2914 11.9359C22.2427 11.5015 21.1187 11.2779 19.9836 11.2779ZM19.9836 25.7333C18.8341 25.7333 17.7104 25.3924 16.7545 24.7538C15.7987 24.1151 15.0538 23.2074 14.6139 22.1453C14.174 21.0833 14.0589 19.9146 14.2832 18.7872C14.5075 17.6596 15.0611 16.6241 15.874 15.8113C16.6869 14.9984 17.7226 14.4449 18.85 14.2207C19.9775 13.9965 21.1461 14.1117 22.2082 14.5516C23.2701 14.9916 24.1779 15.7366 24.8164 16.6925C25.455 17.6484 25.7958 18.7722 25.7957 19.9217C25.7957 20.6849 25.6453 21.4407 25.3533 22.1459C25.0612 22.851 24.633 23.4917 24.0934 24.0313C23.5536 24.571 22.9129 24.9991 22.2078 25.2911C21.5026 25.5831 20.7468 25.7333 19.9836 25.7333Z" fill="#FFB61E"/>
<path d="M8.52322 20.0785C8.52322 20.9259 7.83628 21.6128 6.98888 21.6128C6.14148 21.6128 5.45453 20.9259 5.45453 20.0785C5.45453 19.231 6.14148 18.5441 6.98888 18.5441C7.83628 18.5441 8.52322 19.231 8.52322 20.0785Z" fill="white" stroke="white" stroke-width="0.7"/>
<path d="M21.6127 33.0111C21.6127 33.8585 20.9258 34.5454 20.0784 34.5454C19.231 34.5454 18.5441 33.8585 18.5441 33.0111C18.5441 32.1636 19.231 31.4767 20.0784 31.4767C20.9258 31.4767 21.6127 32.1636 21.6127 33.0111Z" fill="white" stroke="white" stroke-width="0.7"/>
<path d="M21.4564 6.98889C21.4564 7.83629 20.7694 8.52324 19.922 8.52324C19.0746 8.52324 18.3876 7.83629 18.3876 6.98889C18.3876 6.1415 19.0746 5.45454 19.922 5.45454C20.7694 5.45454 21.4564 6.1415 21.4564 6.98889Z" fill="white" stroke="white" stroke-width="0.7"/>
<path d="M29.2555 30.9554C30.2553 30.9554 31.0658 30.1448 31.0658 29.1449C31.0658 28.1451 30.2553 27.3345 29.2555 27.3345C28.2556 27.3345 27.4451 28.1451 27.4451 29.1449C27.4451 30.1448 28.2556 30.9554 29.2555 30.9554Z" fill="#FFB61E"/>
<path d="M12.2784 10.8555C12.2784 11.7029 11.5915 12.3899 10.7441 12.3899C9.89666 12.3899 9.20972 11.7029 9.20972 10.8555C9.20972 10.0081 9.89666 9.32116 10.7441 9.32116C11.5915 9.32116 12.2784 10.0081 12.2784 10.8555Z" fill="white" stroke="white" stroke-width="0.7"/>
<path d="M12.3898 29.2555C12.3898 30.1029 11.7028 30.7898 10.8555 30.7898C10.0081 30.7898 9.32111 30.1029 9.32111 29.2555C9.32111 28.4081 10.0081 27.7212 10.8555 27.7212C11.7028 27.7212 12.3898 28.4081 12.3898 29.2555Z" fill="white" stroke="white" stroke-width="0.7"/>
<path d="M30.6793 10.7445C30.6793 11.5919 29.9924 12.2789 29.145 12.2789C28.2976 12.2789 27.6106 11.5919 27.6106 10.7445C27.6106 9.89713 28.2976 9.21017 29.145 9.21017C29.9924 9.21017 30.6793 9.89713 30.6793 10.7445Z" fill="white" stroke="white" stroke-width="0.7"/>
</g>
<defs>
<clipPath id="clip0_312_2421">
<rect width="40" height="40" rx="20" fill="white"/>
</clipPath>
</defs>
</svg>
