<svg width="40" height="40" viewBox="0 0 40 40" fill="none" xmlns="http://www.w3.org/2000/svg">
<g clip-path="url(#clip0_312_2407)">
<path d="M0 0H40V40H0V0Z" fill="#82008F"/>
<path fill-rule="evenodd" clip-rule="evenodd" d="M17.5528 14.2182L15.6037 15.1055V16.0855L17.5528 15.4782V14.2182ZM31.7528 16.4655C31.1455 16.4655 30.6546 16.6746 30.1873 17.1182V16.5927H28.8218V22.1618H30.2237V19.2091C30.2237 18.4382 30.5618 17.7964 31.5073 17.7964C32.3837 17.7964 32.6291 18.4382 32.6291 19.2091V22.1618H34.0182V18.7764C34.0182 17.5036 33.26 16.4655 31.7528 16.4655ZM24.0455 18.7073C24.2437 18.0182 24.7691 17.6909 25.4109 17.6909C26.0764 17.6909 26.5673 17.9818 26.7418 18.7073H24.0455ZM25.4 16.4655C23.7418 16.4655 22.6091 17.76 22.6091 19.3491C22.6091 20.9491 23.7528 22.2327 25.4 22.2327C26.7309 22.2327 27.6418 21.4964 27.9928 20.4236H26.5437C26.3455 20.7618 26.0309 20.9491 25.4818 20.9491C24.6528 20.9491 24.1746 20.5273 24.0346 19.8164H28.1437C28.1564 19.6764 28.1673 19.5709 28.1673 19.4309C28.1673 17.5036 26.9291 16.4655 25.4 16.4655ZM20.0055 24.4855C19.2582 24.4855 18.7564 23.9382 18.7564 23.2127C18.7564 22.4891 19.2582 21.94 20.0055 21.94C20.7418 21.94 21.2546 22.4891 21.2546 23.2127C21.2546 23.9382 20.7418 24.4855 20.0055 24.4855ZM20.46 19.5473L22.4346 17.7964V16.5927H17.6928V17.8891H20.4255L18.6746 19.4182L19.8418 20.7727C18.3237 20.8673 17.3891 21.94 17.3891 23.2255C17.3891 24.6727 18.5691 25.7818 20.0164 25.7818C21.4528 25.7818 22.6564 24.6727 22.6564 23.2255C22.6564 22.4546 22.4455 21.8818 21.9673 21.3218L20.46 19.5473ZM7.3473 17.1418V16.5927H5.98184V22.1618H7.38366V19.22C7.38366 18.4491 7.72184 17.8546 8.74911 17.8546H9.16911V16.5236H8.86548C8.25821 16.5236 7.81457 16.6982 7.3473 17.1418ZM15.6382 22.1618H17.0509V16.3946L15.6382 16.7455V22.1618ZM12.0764 20.8782C11.2255 20.8782 10.6291 20.26 10.6291 19.3491C10.6291 18.4382 11.2255 17.8073 12.0764 17.8073C12.9291 17.8073 13.5255 18.4382 13.5255 19.3491C13.5255 20.26 12.9291 20.8782 12.0764 20.8782ZM12.1 16.4655C10.4782 16.4655 9.2273 17.7491 9.2273 19.3491C9.2273 21.0182 10.3255 22.2327 11.9491 22.2327C12.4982 22.2327 13.1164 22.0109 13.56 21.5436V22.1618H14.9255V19.22C14.9255 17.6909 13.7346 16.4655 12.1 16.4655Z" fill="white"/>
</g>
<defs>
<clipPath id="clip0_312_2407">
<rect width="40" height="40" rx="20" fill="white"/>
</clipPath>
</defs>
</svg>
