<svg width="40" height="40" viewBox="0 0 40 40" fill="none" xmlns="http://www.w3.org/2000/svg">
<g clip-path="url(#clip0_312_2512)">
<path d="M0 0H40V40H0V0Z" fill="#343F04"/>
<path d="M35.1572 22.0571H35.1072C35.0452 22.0518 34.9848 22.0342 34.9297 22.0054C34.8745 21.9765 34.8256 21.9371 34.7857 21.8893C34.7459 21.8415 34.7159 21.7862 34.6975 21.7268C34.6791 21.6673 34.6727 21.6048 34.6786 21.5429C34.8867 19.5504 34.6154 17.5371 33.8873 15.6708C33.1592 13.8045 31.9953 12.1394 30.4929 10.8143C30.4458 10.7735 30.4075 10.7236 30.3805 10.6676C30.3534 10.6115 30.338 10.5505 30.3353 10.4883C30.3327 10.4261 30.3427 10.364 30.3649 10.3058C30.3871 10.2477 30.4209 10.1946 30.4643 10.15C30.5522 10.0591 30.6716 10.0055 30.7979 10.0002C30.9242 9.99486 31.0477 10.0383 31.1429 10.1214C32.5714 11.3857 33.6929 12.8929 34.4786 14.5929C35.505 16.7918 35.9054 19.2312 35.6357 21.6429C35.6201 21.7583 35.5628 21.8641 35.4747 21.9404C35.3866 22.0167 35.2737 22.0582 35.1572 22.0571ZM29.2143 30C29.1437 29.9997 29.074 29.9842 29.01 29.9546C28.9459 29.9251 28.8889 29.8821 28.8429 29.8286C28.8031 29.7813 28.7733 29.7265 28.7553 29.6674C28.7373 29.6083 28.7314 29.5461 28.7381 29.4847C28.7448 29.4233 28.7638 29.3639 28.7941 29.31C28.8244 29.2562 28.8653 29.209 28.9143 29.1714C30.2659 28.1286 31.3607 26.79 32.1148 25.2584C32.8688 23.7268 33.262 22.0429 33.2643 20.3357C33.2643 17.6714 32.2929 15.0786 30.5357 13.0429C30.4947 12.9963 30.4635 12.9419 30.4439 12.883C30.4242 12.8241 30.4166 12.7619 30.4214 12.7C30.4265 12.6375 30.4443 12.5768 30.4738 12.5215C30.5032 12.4662 30.5438 12.4175 30.5929 12.3786C30.7929 12.2143 31.0929 12.2357 31.2714 12.4357C33.174 14.6284 34.2237 17.4327 34.2286 20.3357C34.2286 24.0643 32.5143 27.55 29.5143 29.8929C29.4292 29.9613 29.3235 29.999 29.2143 30Z" fill="#3EB69F"/>
<path d="M28.3572 28.7786C28.2865 28.7787 28.2167 28.7635 28.1525 28.7339C28.0884 28.7043 28.0314 28.661 27.9857 28.6071C27.9455 28.5603 27.9152 28.5059 27.8967 28.4471C27.8781 28.3882 27.8716 28.3262 27.8776 28.2648C27.8836 28.2035 27.902 28.1439 27.9316 28.0898C27.9612 28.0357 28.0015 27.9881 28.05 27.95C29.2073 27.0362 30.1446 25.8743 30.7929 24.55C31.4357 23.2286 31.7643 21.7929 31.7643 20.3357L31.7143 19.3857C31.7044 19.2617 31.7439 19.1389 31.8242 19.0439C31.9044 18.9489 32.019 18.8895 32.1429 18.8786C32.4143 18.8571 32.6429 19.0429 32.6714 19.3C32.8446 21.0736 32.5676 22.8623 31.8659 24.5004C31.1642 26.1385 30.0605 27.5731 28.6571 28.6714C28.572 28.7399 28.4664 28.7776 28.3572 28.7786ZM30.2643 23.6429C30.2135 23.6434 30.1629 23.6361 30.1143 23.6214C30.0552 23.6028 30.0005 23.5726 29.9533 23.5326C29.9061 23.4925 29.8674 23.4434 29.8394 23.3882C29.8115 23.3329 29.7948 23.2727 29.7905 23.2109C29.7862 23.1492 29.7943 23.0872 29.8143 23.0286C30.2696 21.7297 30.3892 20.3368 30.1619 18.9794C29.9346 17.6219 29.3679 16.344 28.5143 15.2643C28.4756 15.2157 28.4473 15.1597 28.431 15.0998C28.4147 15.0399 28.4107 14.9772 28.4194 14.9157C28.4281 14.8543 28.4492 14.7952 28.4815 14.7421C28.5138 14.6891 28.5565 14.6431 28.6071 14.6071C28.8214 14.45 29.1143 14.4929 29.2786 14.7C30.2258 15.9006 30.8541 17.3212 31.1051 18.8298C31.3562 20.3384 31.2217 21.8859 30.7143 23.3286C30.6802 23.422 30.6178 23.5024 30.5359 23.5587C30.454 23.615 30.3566 23.6444 30.2572 23.6429H30.2643Z" fill="#5CC240"/>
<path d="M26.5714 26.4429C26.5013 26.4439 26.4318 26.4298 26.3677 26.4014C26.3036 26.373 26.2464 26.3311 26.2 26.2786C26.1594 26.2322 26.1286 26.1781 26.1095 26.1196C26.0903 26.061 26.0832 25.9992 26.0885 25.9378C26.0939 25.8764 26.1115 25.8168 26.1405 25.7624C26.1695 25.708 26.2092 25.6601 26.2572 25.6214C27.0709 24.9583 27.7207 24.1162 28.1558 23.1609C28.591 22.2055 28.7997 21.1626 28.7658 20.1134C28.732 19.0641 28.4564 18.0369 27.9606 17.1116C27.4647 16.1863 26.762 15.3879 25.9072 14.7786C25.8428 14.7341 25.7909 14.6739 25.7564 14.6036C25.722 14.5333 25.7062 14.4554 25.7105 14.3773C25.7148 14.2991 25.7391 14.2234 25.781 14.1574C25.8229 14.0913 25.8811 14.0371 25.95 14C26.0322 13.9516 26.1269 13.9285 26.2222 13.9336C26.3174 13.9387 26.4091 13.9717 26.4857 14.0286C27.468 14.7448 28.2741 15.6755 28.8429 16.75C29.4072 17.8067 29.7143 18.9816 29.7391 20.1793C29.7639 21.377 29.5058 22.5637 28.9857 23.6429C28.4885 24.6837 27.7693 25.6028 26.8786 26.3357C26.7897 26.4072 26.6784 26.4452 26.5643 26.4429H26.5714Z" fill="#91C823"/>
<path d="M4.28571 17.8571H5.71428V23.5714H4.28571V17.8571ZM7.85713 23.5714H6.42856V20.1C6.42856 19.5071 6.57856 18.8429 7.06428 18.45C7.77856 17.8571 9.09285 17.8643 10.0857 17.8571L9.83571 19.2857C9.41129 19.2598 8.98535 19.2766 8.56428 19.3357C8.17142 19.4786 7.85713 19.9071 7.85713 20.2786V23.5714ZM16.4286 23.5714V19.9571C16.4286 18.35 17.5357 17.8571 18.9286 17.8571C20.3714 17.8571 21.4286 18.4143 21.4286 19.9571V23.5643H20V20.0857C20 19.4929 19.5571 19.2857 18.9286 19.2857C18.3428 19.2857 17.8571 19.45 17.8571 20.0857V23.5643H16.4286V23.5714ZM13.2571 22.4286H12.7214C12.3071 22.4286 11.8643 22.2857 11.8643 21.8071C11.8643 21.1643 12.3786 21.1286 12.9357 21.1286C13.4214 21.1286 13.9286 21.2643 13.9286 21.8071C13.9286 22.2143 13.5786 22.4286 13.2571 22.4286ZM14.8428 18.4714C14.2892 18.0626 13.6167 17.8468 12.9286 17.8571H11.1L10.8571 19.2857H12.8214C13.4857 19.2857 13.9286 19.6429 13.9286 20.3143C13.5 20.0857 12.9786 20.0286 12.5 20.0286C11.3571 20.0286 10.4714 20.5357 10.4714 21.8071C10.4714 23.15 11.2143 23.5714 12.4357 23.5714H13.9357C14.9071 23.5714 15.3571 23.0429 15.3571 22.2143V20.0286C15.3571 19.3 15.2571 18.7857 14.8428 18.4714ZM22.8571 17.8571H24.2857V23.5929H22.8571V17.8571Z" fill="white"/>
<path d="M4.99999 17.1429C5.39448 17.1429 5.71428 16.8231 5.71428 16.4286C5.71428 16.0341 5.39448 15.7143 4.99999 15.7143C4.6055 15.7143 4.28571 16.0341 4.28571 16.4286C4.28571 16.8231 4.6055 17.1429 4.99999 17.1429Z" fill="white"/>
<path d="M23.5714 17.1429C23.9659 17.1429 24.2857 16.8231 24.2857 16.4286C24.2857 16.0341 23.9659 15.7143 23.5714 15.7143C23.1769 15.7143 22.8571 16.0341 22.8571 16.4286C22.8571 16.8231 23.1769 17.1429 23.5714 17.1429Z" fill="white"/>
</g>
<defs>
<clipPath id="clip0_312_2512">
<rect width="40" height="40" rx="20" fill="white"/>
</clipPath>
</defs>
</svg>
