<svg width="40" height="40" viewBox="0 0 40 40" fill="none" xmlns="http://www.w3.org/2000/svg">
<g clip-path="url(#clip0_344_306)">
<path d="M0 0H40V40H0V0Z" fill="url(#paint0_linear_344_306)"/>
<path fill-rule="evenodd" clip-rule="evenodd" d="M36.4285 16.4286H3.5714V23.5714H36.4285V16.4286ZM2.85712 15.7143V24.2857H37.1428V15.7143H2.85712Z" fill="white"/>
<path fill-rule="evenodd" clip-rule="evenodd" d="M4.28571 17.1429H35.7143V22.8571H4.28571V17.1429ZM5.02856 17.8571H7.77856C8.10655 17.9059 8.40535 18.073 8.61853 18.327C8.83172 18.581 8.94454 18.9042 8.93571 19.2357C8.9292 19.5354 8.83132 19.826 8.65516 20.0685C8.479 20.311 8.23297 20.494 7.94999 20.5929L9.19999 22.1429H7.77142L6.12856 20.1429V22.1429H5.02856V17.8571ZM6.12142 18.5714H7.38571C7.55713 18.5714 7.84999 18.7857 7.85713 19.1714C7.86428 19.5714 7.59999 19.7929 7.38571 19.7929H6.12142V18.5714ZM11.5286 17.8571L9.79285 22.1429H11.0428L11.3643 21.4286H12.8643L13.2143 22.1429H14.5L12.7143 17.8571H11.5286ZM12.1143 19.1143L11.6 20.7143H12.6857L12.1143 19.1143ZM15.1714 22.1429V17.8571H16.75L18.3857 20.5929V17.8571H19.4571V22.1429H17.8143L16.2928 19.4571V22.1429H15.1714ZM30.7357 17.8571V22.1429H31.8571V19.4571L33.3714 22.1429H35.0143V17.8571H33.9429V20.5929L32.3071 17.8571H30.7357ZM20.5714 17.8571H22.4071C23.1786 17.8429 24.6786 18.2357 24.6786 19.9C24.6786 20.8071 24.4143 22.1357 22.4071 22.1429H20.5714V17.8571ZM21.6428 18.5714H22.4786C22.8357 18.5643 23.5143 18.8214 23.5143 19.9357C23.5143 20.5357 23.3928 21.4214 22.4786 21.4286H21.65V18.5714H21.6428ZM25.4714 19.6429C25.4714 19.1693 25.6596 18.715 25.9944 18.3802C26.3293 18.0453 26.7835 17.8571 27.2571 17.8571H27.9428C28.4164 17.8571 28.8707 18.0453 29.2055 18.3802C29.5404 18.715 29.7286 19.1693 29.7286 19.6429V20.3571C29.7286 20.8307 29.5404 21.2849 29.2055 21.6198C28.8707 21.9547 28.4164 22.1429 27.9428 22.1429H27.2571C26.7835 22.1429 26.3293 21.9547 25.9944 21.6198C25.6596 21.2849 25.4714 20.8307 25.4714 20.3571V19.6429ZM26.7214 19.45C26.7214 19.217 26.814 18.9935 26.9787 18.8288C27.1435 18.664 27.367 18.5714 27.6 18.5714C27.833 18.5714 28.0565 18.664 28.2212 18.8288C28.386 18.9935 28.4786 19.217 28.4786 19.45V20.55C28.4896 20.6715 28.4751 20.7941 28.4361 20.9097C28.3972 21.0254 28.3345 21.1316 28.2522 21.2217C28.1699 21.3118 28.0697 21.3838 27.958 21.433C27.8463 21.4823 27.7256 21.5077 27.6036 21.5077C27.4815 21.5077 27.3608 21.4823 27.2491 21.433C27.1375 21.3838 27.0373 21.3118 26.9549 21.2217C26.8726 21.1316 26.81 21.0254 26.771 20.9097C26.732 20.7941 26.7176 20.6715 26.7286 20.55V19.45H26.7214Z" fill="white"/>
</g>
<defs>
<linearGradient id="paint0_linear_344_306" x1="7.44286" y1="6.93572" x2="48.6786" y2="54.3" gradientUnits="userSpaceOnUse">
<stop stop-color="#1A1E21"/>
<stop offset="1" stop-color="#06060A"/>
</linearGradient>
<clipPath id="clip0_344_306">
<rect width="40" height="40" rx="20" fill="white"/>
</clipPath>
</defs>
</svg>
