<svg width="40" height="40" viewBox="0 0 40 40" fill="none" xmlns="http://www.w3.org/2000/svg">
<g clip-path="url(#clip0_426_2)">
<path d="M0 0H40V40H0V0Z" fill="#F2F2F7"/>
<path fill-rule="evenodd" clip-rule="evenodd" d="M12.9962 10.2759L10.4955 10.8783L10.4281 10.1538L8.79543 10.5537L9.14579 11.4576L8.79543 11.9674L8.80836 14.4615C7.32435 14.6317 5.93153 15.8443 6.00261 17.4633C6.05789 18.7384 7.21594 19.5145 8.44579 18.7578C8.60302 19.569 8.49389 19.788 8.80836 20.2051L11.5962 18.7692L17.4869 23.7949V27.3846H18.5969L19.9969 30.2564L17.1969 32.4103L19.989 35.2821C21.0013 35.0502 20.4614 34.0544 21.1808 33.4513C21.6984 33.0105 22.351 32.6867 22.868 32.1303C23.5629 31.38 23.4976 30.9744 23.4976 30.2564C23.4976 29.5385 23.9083 29.2355 25.388 28.6999C27.5921 27.8886 27.6825 29.2097 29.3475 26.5913C30.3598 25.0154 31.0418 22.5909 31.1998 22.359C32.1913 21.0337 33.9711 19.513 33.9998 17.6923C34.0199 16.3634 32.65 16.0008 31.5738 15.2118C29.415 13.5892 28.9196 14.4472 27.1872 13.5203C27.0077 13.427 26.1978 12.6861 25.4555 12.2452C24.5559 11.7355 23.4502 12.0765 22.7976 11.5897L22.0976 8.72872H21.7149L21.114 9.74246L16.4962 10.1538C15.8895 9.38564 16.4962 8 15.8457 8C15.6511 8.00503 15.3439 8.10267 14.8592 8.42144C14.2296 8.83857 13.2848 8.67631 12.9244 8.81559C12.0248 9.20975 12.9962 10.23 12.9962 10.2759Z" fill="#0F9139"/>
<path d="M26.523 21.641L25.7972 24.179C25.51 25.1935 25.6694 25.6989 26.8203 25.6989L26.7542 25.9487H21.7946L21.8607 25.6989C22.9914 25.6989 23.2851 25.2301 23.5766 24.202L25.291 17.6672C25.3844 17.258 25.3844 16.9744 25.3844 16.6233C25.3844 16.2564 24.731 16.1473 24.3677 16.1473L24.4338 15.8974H28.6123C29.9807 15.8974 31.8459 16.2227 31.8459 17.9393C31.8459 19.6006 30.4086 20.8513 28.898 21.2297C28.4141 21.3431 27.6222 21.641 26.523 21.641ZM27.8204 16.6154L26.6767 20.9231H27.0514C27.6229 20.9231 28.0839 20.6625 28.5017 20.2985C29.1694 19.6875 29.542 18.6336 29.5391 17.7318C29.537 16.9098 29.0337 16.6154 28.2562 16.6154H27.8204Z" fill="#FBCB17"/>
</g>
<defs>
<clipPath id="clip0_426_2">
<rect width="40" height="40" rx="20" fill="white"/>
</clipPath>
</defs>
</svg>
