<svg width="40" height="40" viewBox="0 0 40 40" fill="none" xmlns="http://www.w3.org/2000/svg">
<g clip-path="url(#clip0_380_2)">
<path d="M0 20C0 8.95431 8.95431 0 20 0C31.0457 0 40 8.95431 40 20C40 31.0457 31.0457 40 20 40C8.95431 40 0 31.0457 0 20Z" fill="#F89406"/>
<path d="M2.85712 17.1429L3.12569 15.7143H9.66569C11.0428 15.7143 12.5 16.15 12.5 17.8571C12.5 19.1086 11.7785 19.8643 10.7143 20.3443L11.4285 22.8571H13.2143L14.2857 15.7143H20L19.6985 17.1429H16.0714L15.7143 19.2857H18.0214L17.8571 20.7143H15.4714L15.13 22.8571H18.5828L18.2028 24.2857H9.28569L8.5714 20.7143H7.5514L7.81997 19.2857H9.07569C9.63783 19.2857 10.1443 18.8271 10.235 18.2328C10.235 17.6686 9.92569 17.1429 9.36497 17.1429H2.85712ZM26.805 22.6114H27.4357C27.6371 22.6114 27.8571 22.4986 27.8571 22.3043C27.8571 22.11 27.7464 22.0071 27.5514 22.0071H26.9657L26.805 22.6114ZM26.4285 21.4286H27.5171C27.9835 21.4286 28.5714 21.5521 28.5714 22.1357C28.5714 22.6786 28.23 22.875 27.8571 23.0436L28.2143 24.2857H27.4514L27.2614 23.1871H26.6857L26.4285 24.2857H25.7143L26.4285 21.4286ZM32.0835 22.8571H30.8128L30.7228 23.2643H31.1728C31.0871 23.5421 30.8693 23.71 30.5793 23.71C30.2814 23.71 30.0114 23.5029 30 23.2636C30 22.5 30.3571 21.9643 30.9393 21.9643C31.1978 21.9643 31.3214 22.1228 31.3214 22.4407L32.1428 22.3314C32.1428 21.7179 31.5928 21.4286 31.0407 21.4286C30.0478 21.4286 29.2857 22.2414 29.2857 23.2243C29.2857 23.8779 29.805 24.2857 30.4328 24.2857C30.7857 24.2857 31.1621 24.2228 31.4285 23.9879L31.5357 24.2857H31.7943L32.0835 22.8571Z" fill="#F0F3FA"/>
<path fill-rule="evenodd" clip-rule="evenodd" d="M34.2857 24.2857L35.7378 21.4286H36.7157L37.1428 24.2857H36.4286L36.3614 23.7207H35.2807L35 24.2857H34.2857ZM35.5193 23.1143H36.2936L36.17 21.7857L35.5193 23.1143Z" fill="#F0F3FA"/>
<path d="M33.5714 21.4286L32.8571 24.2857H33.5714L34.2857 21.4286H33.5714ZM23.5714 21.4286L22.8571 24.2857H24.8621L25 23.5714H23.6714L23.7664 23.1114H24.8621L25 22.5914H23.8764L23.9714 22.1429H25.2428L25.4428 21.4286H23.5714ZM20 21.4286L19.2857 24.2857H20L20.4493 22.3564L21.6007 24.2857H22.1428L22.8571 21.4286H22.1428L21.7371 23.0507L20.7143 21.4286H20Z" fill="#F0F3FA"/>
</g>
<defs>
<clipPath id="clip0_380_2">
<rect width="40" height="40" fill="white"/>
</clipPath>
</defs>
</svg>
