<svg width="40" height="40" viewBox="0 0 40 40" fill="none" xmlns="http://www.w3.org/2000/svg">
<g clip-path="url(#clip0_344_147)">
<path d="M0 0H40V40H0V0Z" fill="#00984A"/>
<path d="M15.75 25.8571C20.75 29.5071 22.4786 33 22.7143 34.2857C27.3429 29.5929 20.9643 24.2714 16.8357 20.9929C13.5357 18.3643 13.1786 15.8 13.4143 14.85C14.1857 11.1571 20.35 9.79286 23.3429 9.56428C20.5072 10.2786 15.75 11.35 14.9572 14.35C14.1643 17.35 18.5072 20.2429 22.1286 23.0643C25.0357 25.3286 26.0357 28.1643 26.1786 29.3C29.1786 24.3143 26.2572 21.4071 22.7143 18.7929C19.8786 16.7 19.4786 14.9571 19.6286 14.3429C20.0286 11.1286 27.6643 9.15 31.4286 8.57143C22.8429 8.57143 13.25 8.48571 9.95717 12.6C6.66431 16.7143 9.50003 21.2857 15.75 25.85V25.8571Z" fill="#D3D800"/>
</g>
<defs>
<clipPath id="clip0_344_147">
<rect width="40" height="40" rx="20" fill="white"/>
</clipPath>
</defs>
</svg>
