<svg width="40" height="40" viewBox="0 0 40 40" fill="none" xmlns="http://www.w3.org/2000/svg">
<g clip-path="url(#clip0_312_2447)">
<path d="M0 0H40V40H0V0Z" fill="#006DA8"/>
<path d="M25.3071 28.4786C27.1535 27.3303 28.575 25.6112 29.356 23.5819C30.1369 21.5527 30.2347 19.3242 29.6345 17.2343C29.0343 15.1445 27.7688 13.3075 26.0301 12.0019C24.2914 10.6963 22.1743 9.99349 20 10C17.3478 10 14.8043 11.0536 12.9289 12.9289C11.0536 14.8043 9.99999 17.3478 9.99999 20C9.99999 22.6522 11.0536 25.1957 12.9289 27.0711C14.8043 28.9464 17.3478 30 20 30V32.8571C16.8359 32.8553 13.7835 31.6869 11.4271 29.5753C9.07063 27.4638 7.57554 24.5574 7.22794 21.4125C6.88033 18.2675 7.70462 15.1048 9.54306 12.5296C11.3815 9.95441 14.105 8.14754 17.1923 7.45479C20.2797 6.76204 23.514 7.23206 26.2765 8.7749C29.039 10.3177 31.1355 12.825 32.1649 15.817C33.1943 18.809 33.0843 22.0755 31.856 24.9914C30.6276 27.9073 28.3671 30.2679 25.5071 31.6214L20.0071 26.4286L20 23.4857L25.3071 28.4857V28.4786ZM20 29.2857C17.7989 29.2844 15.6698 28.5013 13.9925 27.076C12.3152 25.6507 11.1987 23.6759 10.8422 21.5039C10.4858 19.3318 10.9124 17.1038 12.0462 15.2171C13.1799 13.3305 14.947 11.9079 17.0322 11.2031C19.1175 10.4984 21.3852 10.5573 23.4311 11.3693C25.4769 12.1813 27.1678 13.6937 28.2021 15.6367C29.2364 17.5796 29.5468 19.8268 29.0781 21.9775C28.6093 24.1281 27.3919 26.0422 25.6428 27.3786L25.6214 27.3929L20 22.0857V19.1429L25.0714 23.9286L25.1071 23.9C25.9872 22.7468 26.4513 21.3299 26.4241 19.8796C26.397 18.4292 25.8801 17.0307 24.9574 15.9113C24.0348 14.7919 22.7607 14.0175 21.3423 13.7138C19.9238 13.4102 18.4443 13.5952 17.1443 14.2389C15.8443 14.8825 14.8002 15.9469 14.1817 17.259C13.5632 18.5712 13.4067 20.0539 13.7376 21.4663C14.0685 22.8787 14.8673 24.1376 16.0042 25.0385C17.1412 25.9394 18.5494 26.4293 20 26.4286V29.2857Z" fill="white"/>
</g>
<defs>
<clipPath id="clip0_312_2447">
<rect width="40" height="40" rx="20" fill="white"/>
</clipPath>
</defs>
</svg>
