<svg width="40" height="40" viewBox="0 0 40 40" fill="none" xmlns="http://www.w3.org/2000/svg">
<g clip-path="url(#clip0_312_2595)">
<path d="M0 0H40V40H0V0Z" fill="#EC0000"/>
<path fill-rule="evenodd" clip-rule="evenodd" d="M20.1663 8.18182C20.2831 8.76557 20.493 9.33463 20.7969 9.8659L24.7822 16.831C25.234 17.6205 25.4783 18.494 25.5161 19.3747C29.7828 20.4993 32.7272 22.888 32.7272 25.6533C32.7272 29.4999 27.0289 32.6182 20 32.6182C12.9709 32.6182 7.27271 29.4999 7.27271 25.6533C7.27271 22.8882 10.2174 20.5002 14.4835 19.3754C14.439 20.4171 14.6831 21.4689 15.2176 22.4029L19.2029 29.368C19.5068 29.8992 19.7167 30.4683 19.8333 31.052L20 30.7609C20.9863 29.0368 20.9863 26.9129 20 25.1888L16.8017 19.5995C15.8256 17.8785 15.8286 15.7631 16.8117 14.045L16.9782 13.7539C17.0948 14.3375 17.3049 14.9067 17.6086 15.4376L22.391 23.796C22.6949 24.3271 22.905 24.8962 23.0215 25.4799L23.1881 25.1888C24.1745 23.4649 24.1745 21.3408 23.1881 19.6169L19.9998 14.0447C19.0133 12.3208 19.0133 10.1968 20 8.47292L20.1663 8.18182Z" fill="white"/>
</g>
<defs>
<clipPath id="clip0_312_2595">
<rect width="40" height="40" rx="20" fill="white"/>
</clipPath>
</defs>
</svg>
