<svg width="40" height="40" viewBox="0 0 40 40" fill="none" xmlns="http://www.w3.org/2000/svg">
<g clip-path="url(#clip0_438_20)">
<path d="M0 0H40V40H0V0Z" fill="#2367D2"/>
<path d="M15.408 29.2H19.132L25.418 24.419C26.769 24.405 29.94 24.195 31.809 23.516L32.579 20.737C31.844 21.087 29.338 21.787 25.215 21.71L15.415 29.2H15.408Z" fill="white"/>
<path d="M16.969 20.646C11.712 20.037 8.03 20.821 6.847 21.29L6 24.202C9.913 22.767 14.946 23.005 16.969 23.306L9.15 29.2H12.923L23.199 21.451L16.969 20.646Z" fill="white"/>
<path d="M33.16 18.91C31.97 19.372 28.288 20.156 23.031 19.554L16.801 18.742L27.077 11H30.85L23.031 16.894C25.061 17.195 30.087 17.433 34 15.998L33.16 18.91Z" fill="white"/>
<path d="M24.459 11H20.735L14.449 15.774C13.098 15.795 9.92701 16.005 8.05801 16.684L7.28101 19.463C8.02301 19.113 10.529 18.413 14.652 18.49L24.452 11H24.459Z" fill="white"/>
</g>
<defs>
<clipPath id="clip0_438_20">
<rect width="40" height="40" rx="20" fill="white"/>
</clipPath>
</defs>
</svg>
