<svg width="40" height="40" viewBox="0 0 40 40" fill="none" xmlns="http://www.w3.org/2000/svg">
<g clip-path="url(#clip0_312_2415)">
<path d="M0 0H40V40H0V0Z" fill="#006940"/>
<path d="M7.73552 21.8234C8.64792 22.5242 12.033 23.7804 18.314 23.8069C24.595 23.8333 29.1041 22.544 30.5785 21.8234L28.3835 25.7903H5.45453L7.73552 21.8234Z" fill="white"/>
<path d="M16.3636 21.8233L20.3438 14.5506H23.8479L20.6545 20.501H23.9801C23.7025 20.1572 23.7157 19.5556 23.8082 19.3043C25.3752 14.8812 31.4314 14.187 34.5454 14.6828L33.3355 16.6266C33.1068 16.3787 32.83 16.1799 32.5219 16.0424C32.2139 15.9049 31.8811 15.8314 31.5438 15.8266C30.5503 15.8105 29.5842 16.1523 28.8218 16.7895C28.0595 17.4268 27.5519 18.3171 27.3917 19.2977C27.3388 19.8002 27.7223 20.587 29.0578 20.501C29.9996 20.4567 30.9135 20.1673 31.7091 19.6614L30.7702 21.3671C29.9702 21.711 28.5289 21.8101 27.914 21.8167C25.5273 21.8167 24.4826 21.2283 24.2644 20.9308L23.762 21.8233H16.357H16.3636ZM16.6611 14.5506C17.514 14.5506 18.3603 14.7423 18.6777 14.8415L17.6859 16.5473C17.276 16.3093 16.2711 15.82 15.5239 15.82C14.5983 15.82 13.957 16.1638 13.957 16.4349C13.957 16.6994 14.2545 17.0101 15.8413 17.4333C17.1107 17.7704 17.3554 18.2795 17.3554 18.6895C17.3554 20.6068 13.6 21.7308 11.4182 21.8167C10.2413 21.863 8.71403 21.5721 8.09916 21.42L9.05122 19.701C9.92106 20.1999 10.9047 20.4663 11.9074 20.4746C13.0975 20.4548 13.752 20.0713 13.8116 19.701C13.8512 19.4101 13.2165 19.1721 12.8925 19.0862C10.8033 18.5506 10.4198 17.8828 10.4859 17.4333C10.8826 14.8415 15.5967 14.5506 16.6611 14.5506ZM7.73552 21.8233C8.64792 22.5242 12.033 23.7804 18.314 23.8068C24.595 23.8333 29.1041 22.544 30.5785 21.8233L28.3835 25.7903H5.45453L7.73552 21.8233Z" fill="white"/>
<path d="M16.6612 14.5507C17.5141 14.5507 18.3603 14.7424 18.6777 14.8416L17.686 16.5474C17.276 16.3093 16.2711 15.8201 15.524 15.8201C14.5984 15.8201 13.957 16.1639 13.957 16.435C13.957 16.6994 14.2546 17.0102 15.8413 17.4333C17.1108 17.7705 17.3554 18.2796 17.3554 18.6895C17.3554 20.6069 13.6 21.7308 11.4182 21.8168C10.2413 21.8631 8.71406 21.5722 8.09918 21.4201L9.05125 19.7011C9.92108 20.1999 10.9047 20.4664 11.9074 20.4746C13.0975 20.4548 13.7521 20.0713 13.8116 19.7011C13.8512 19.4102 13.2165 19.1722 12.8926 19.0862C10.8033 18.5507 10.4198 17.8829 10.486 17.4333C10.8827 14.8416 15.5967 14.5507 16.6612 14.5507Z" fill="white"/>
</g>
<defs>
<clipPath id="clip0_312_2415">
<rect width="40" height="40" rx="20" fill="white"/>
</clipPath>
</defs>
</svg>
