<svg width="40" height="40" viewBox="0 0 40 40" fill="none" xmlns="http://www.w3.org/2000/svg">
<g clip-path="url(#clip0_382_2)">
<path d="M0 20C0 8.95431 8.95431 0 20 0C31.0457 0 40 8.95431 40 20C40 31.0457 31.0457 40 20 40C8.95431 40 0 31.0457 0 20Z" fill="#F2F2F7"/>
<path d="M18.4857 10.7143H13.2286L12.4071 13.3072C15.3071 14.45 16.1786 17.2929 16.2571 18.5714L18.4857 10.7143Z" fill="#008B29"/>
<path d="M25.3286 10.7143H20.0714L19.25 13.3072C22.1429 14.45 23.0214 17.2929 23.0929 18.5714L25.3286 10.7143ZM32.1429 10.7143H26.8857L26.0643 13.3072C28.9571 14.45 29.8357 17.2929 29.9071 18.5714L32.1429 10.7143ZM14.7571 24.0143C15.85 19.3572 13 17.5 11.4286 17.1429L7.85715 29.2857H13.2929L14.7571 24.0143ZM21.5929 24.0143C22.6929 19.35 19.8429 17.4929 18.2786 17.1429L14.7 29.2857H20.1357L21.5929 24.0143ZM28.4071 24.0143C29.5071 19.35 26.6571 17.4929 25.0929 17.1429L21.5143 29.2857H26.95L28.4071 24.0143Z" fill="#002E59"/>
</g>
<defs>
<clipPath id="clip0_382_2">
<rect width="40" height="40" fill="white"/>
</clipPath>
</defs>
</svg>
