<svg width="40" height="40" viewBox="0 0 40 40" fill="none" xmlns="http://www.w3.org/2000/svg">
<g clip-path="url(#clip0_312_2410)">
<path d="M0 0H40V40H0V0Z" fill="#00AD4E"/>
<path d="M30.8024 13.5332C30.2626 15.4056 29.4676 17.1948 28.4397 18.8503C25.1538 24.1336 19.9675 27.288 16.1942 29.003C15.0918 29.5049 13.9658 29.9532 12.82 30.346V30.3615C15.9016 30.3027 18.6789 29.8182 21.0989 28.9162C23.8438 27.8922 26.08 26.3522 27.7443 24.3416C30.1893 21.3894 31.2523 17.6013 30.8119 13.5325L30.8024 13.5332ZM11.4887 16.0061C9.39215 18.6474 8.68056 22.5722 9.31423 28.0106C9.36201 28.5163 9.41861 28.928 9.46419 29.2162L9.48918 29.2331C11.7739 28.1054 20.6887 22.9846 20.6482 11.8285L20.6269 11.8094C16.364 12.2607 13.3713 13.6339 11.4887 16.0061Z" fill="white"/>
<path d="M21.7921 11.6337L21.7752 11.6741C21.8847 13.5369 21.7671 14.5749 21.4223 16.3031C20.8019 19.4053 19.4573 22.2877 17.4247 24.8709C16.5472 25.9804 15.572 27.0091 14.5107 27.9444L14.5144 27.9547C19.0501 26.286 24.4863 23.3154 27.8303 18.124C31.1339 12.9958 30.6796 10.8647 30.3268 9.09385L30.3172 9.09091C28.3647 10.6008 24.8957 11.1492 21.7921 11.6337Z" fill="white"/>
</g>
<defs>
<clipPath id="clip0_312_2410">
<rect width="40" height="40" rx="20" fill="white"/>
</clipPath>
</defs>
</svg>
