<svg width="40" height="40" viewBox="0 0 40 40" fill="none" xmlns="http://www.w3.org/2000/svg">
<g clip-path="url(#clip0_344_252)">
<path d="M0 0H40V40H0V0Z" fill="#F2F2F7"/>
<path fill-rule="evenodd" clip-rule="evenodd" d="M5 22.25V16.5857C5.58571 16.3 6.23571 16.4643 6.42857 16.5857V17.8571H8.25V18.5714H7.35714C6.74286 18.5571 6.52143 18.7857 6.42857 18.8857L6.42143 18.8929V22C6.44286 23.6143 7.8 23.7143 8.56429 23.4571V24.1214C8.27143 24.25 7.65714 24.2857 7.39286 24.2857C5.37143 24.2857 5 22.9857 5 22.25ZM11.55 17.8571C10.7455 17.8498 9.94275 17.9336 9.15714 18.1071V18.9071C9.76044 18.6829 10.3992 18.5691 11.0429 18.5714C12.5571 18.5714 12.8429 19.3571 12.8571 19.8357V20.35L10.8429 20.5357C8.96429 20.6786 8.58571 21.8714 8.57143 22.45C8.52143 24.55 11.1214 24.4286 12.4286 24.1V23.4071C10.4643 23.9643 10.0143 22.9571 10 22.3857C9.98571 21.0286 11.5643 20.9 12.6286 20.8143C12.7 20.8 12.7857 20.8 12.8571 20.7929V24.1286C13.4071 24.4071 14.0714 24.2429 14.2857 24.1286V19.9C14.3071 18.3214 12.9143 17.8714 11.55 17.8571ZM27.7286 18.1071C28.5142 17.9336 29.3169 17.8498 30.1214 17.8571C31.4786 17.8714 32.8786 18.3214 32.8571 19.9V24.1286C32.6429 24.2429 31.9786 24.4071 31.4286 24.1286V20.7857L31.2 20.8C30.1286 20.8929 28.5571 21.0143 28.5714 22.3786C28.5857 22.95 29.0357 23.9571 31 23.4V24.0929C29.6929 24.4214 27.0929 24.5429 27.1429 22.45C27.1571 21.8643 27.5357 20.6714 29.4143 20.5286L31.4286 20.3571V19.8429C31.4143 19.3571 31.1286 18.5786 29.6143 18.5786C28.9706 18.5763 28.3319 18.69 27.7286 18.9143V18.1143V18.1071ZM20.9357 23.8714C20.7071 24.0071 19.8786 24.2857 18.6857 24.2857C17.1643 24.2857 14.9857 23.8571 15 20.9286C15.0143 18 17.4571 17.8571 18.2929 17.8571C18.6857 17.8571 21.2 17.8571 21.0643 21.0857H16.4286C16.3786 21.9071 16.6357 23.5429 18.6857 23.5714C19.4679 23.5561 20.2368 23.3658 20.9357 23.0143V23.8714ZM16.4357 20.6143C16.3857 19.9429 16.65 18.5714 18.1071 18.5714C19.5643 18.5714 19.7071 19.8929 19.6214 20.6143H16.4357ZM26.1143 18.25C25.5144 17.9909 24.8678 17.8572 24.2143 17.8571C23.0571 17.8429 21.4286 18.3571 21.4286 19.8286C21.4286 21.0071 22.7714 21.4429 23.4786 21.5143C24.0071 21.5857 24.9857 21.9 25 22.5857C25.0143 23.4429 24.1429 23.5857 23.6714 23.5714H23.4929C23.0429 23.5714 22.4571 23.5643 21.4286 23V23.8786C21.7714 24.0214 22.7143 24.3 23.6714 24.2857C24.8714 24.2714 26.4286 23.7571 26.4286 22.3571C26.4286 21.0571 25.1571 20.7857 24.3786 20.6143L24.2143 20.5857L24.1714 20.5714C23.4571 20.4143 22.8714 20.2857 22.8571 19.5857C22.8429 18.8786 23.4643 18.6143 24.2143 18.5714C24.8214 18.5357 25.7357 18.8571 26.1143 19.05V18.25Z" fill="#03286A"/>
<path d="M36.35 13.4286C36.4084 13.5026 36.4352 13.5967 36.4245 13.6903C36.4138 13.784 36.3665 13.8696 36.2929 13.9286L32.2143 17.1643C32.1783 17.1982 32.1357 17.2243 32.0891 17.241C32.0425 17.2576 31.993 17.2643 31.9437 17.2608C31.8944 17.2573 31.8463 17.2436 31.8026 17.2205C31.7588 17.1974 31.7203 17.1655 31.6896 17.1268C31.6588 17.0881 31.6364 17.0434 31.6238 16.9956C31.6112 16.9478 31.6087 16.8978 31.6164 16.849C31.624 16.8001 31.6418 16.7534 31.6685 16.7118C31.6952 16.6702 31.7303 16.6345 31.7714 16.6071L35.8429 13.3714C35.9169 13.313 36.011 13.2863 36.1046 13.297C36.1983 13.3077 36.2839 13.355 36.3429 13.4286H36.35Z" fill="#1D9721"/>
<path d="M29.1572 16.0714C29.1572 15.8714 29.3215 15.7143 29.5143 15.7143H34.8C34.8947 15.7143 34.9856 15.7519 35.0526 15.8189C35.1195 15.8859 35.1572 15.9767 35.1572 16.0714C35.1572 16.1661 35.1195 16.257 35.0526 16.324C34.9856 16.3909 34.8947 16.4286 34.8 16.4286H29.5143C29.4196 16.4286 29.3287 16.3909 29.2618 16.324C29.1948 16.257 29.1572 16.1661 29.1572 16.0714Z" fill="#F59900"/>
<path d="M28.1785 12.2857C28.2364 12.211 28.3215 12.1624 28.4153 12.1503C28.509 12.1383 28.6036 12.1638 28.6785 12.2214L34.3785 16.6571C34.4534 16.7159 34.5018 16.8019 34.5132 16.8964C34.5246 16.9908 34.498 17.0859 34.4393 17.1607C34.3805 17.2355 34.2945 17.284 34.2 17.2954C34.1056 17.3068 34.0105 17.2802 33.9357 17.2214L28.2428 12.7857C28.1682 12.7278 28.1195 12.6427 28.1074 12.549C28.0954 12.4553 28.1209 12.3606 28.1785 12.2857Z" fill="#03286A"/>
<path d="M32.4428 14.0929C32.4883 14.0798 32.5359 14.076 32.5829 14.0816C32.6299 14.0871 32.6753 14.102 32.7165 14.1252C32.7577 14.1485 32.7939 14.1797 32.823 14.2171C32.852 14.2544 32.8733 14.2972 32.8857 14.3429L34.2143 19.2857C34.2389 19.3776 34.226 19.4755 34.1784 19.5579C34.1309 19.6403 34.0526 19.7004 33.9607 19.725C33.8688 19.7496 33.7709 19.7367 33.6885 19.6892C33.6061 19.6416 33.546 19.5633 33.5214 19.4714L32.1928 14.5286C32.1687 14.4377 32.1815 14.3409 32.2283 14.2593C32.2751 14.1777 32.3522 14.1179 32.4428 14.0929Z" fill="#EA5700"/>
</g>
<defs>
<clipPath id="clip0_344_252">
<rect width="40" height="40" rx="20" fill="white"/>
</clipPath>
</defs>
</svg>
