<svg width="40" height="40" viewBox="0 0 40 40" fill="none" xmlns="http://www.w3.org/2000/svg">
<g clip-path="url(#clip0_344_281)">
<path d="M0 0H40V40H0V0Z" fill="#F2F2F7"/>
<path d="M8.69002 27.1429C7.94716 27.1429 7.14287 26.565 7.14287 25.8336C7.14287 25.1957 7.63716 24.7286 8.10287 24.5264L10.1229 26.4286C9.79502 26.8486 9.31145 27.1429 8.69002 27.1429ZM12.1429 27.2343L11.1414 26.3007C11.4179 25.6936 11.4286 24.8614 11.4286 24.2857H10.7143C10.7314 24.7371 10.6236 25.3564 10.5029 25.7143L8.10287 23.4214C8.10287 23.4214 7.85716 23.2179 7.85716 22.86C7.85716 22.5021 8.20716 22.1421 8.67287 22.1421C9.19073 22.1421 9.51859 22.455 9.51859 22.86H10.3822C10.3822 22.86 10.5029 21.4286 8.65573 21.4286C7.14287 21.4286 7.14287 22.8607 7.14287 22.8607C7.14287 23.32 7.14287 23.5229 7.50002 23.9193C6.98216 24.1836 6.42859 24.7129 6.42859 25.8336C6.42859 26.8607 7.29145 27.8571 8.67287 27.8571C9.6743 27.8571 10.3 27.5143 10.7143 27L11.5907 27.7479L12.1429 27.2343ZM27.8572 19.2857H27.1429V12.8571H27.8572V16.4286L30.3572 14.2857H31.275L28.5714 16.7857L31.4286 19.2857H30.3572L27.8572 17.1429M12.8572 14.2857V15.1293C13.1714 14.5929 13.7957 14.2857 14.4257 14.2857H15V15H14.4257C13.54 15 12.8572 15.7186 12.8572 16.6107V19.2857H12.1429V14.2857H12.8572ZM17.4843 18.5714C18.4457 18.5714 19.2857 17.8464 19.2857 16.7929C19.2857 15.7407 18.4457 15.0136 17.4843 15.0136C16.5222 15.0136 15.7143 15.7407 15.7143 16.7936C15.73 17.8464 16.5386 18.5714 17.4843 18.5714ZM17.3879 14.2857C18.095 14.2857 18.8643 14.5657 19.2693 15.1529H19.2857V14.2857H20V19.2857H19.2857V18.4186H19.2693C18.8593 19.0143 18.11 19.2857 17.3879 19.2857C16.0736 19.2857 15 18.2329 15 16.7786C15 15.3386 16.09 14.2857 17.3879 14.2857ZM6.42859 12.8571H11.4286V13.5714H9.28573V19.2857H8.57145V13.5714H6.42859V12.8571ZM25.7143 17.8571C25.3364 18.3764 24.7014 18.5607 24.055 18.5607C23.095 18.5607 22.1429 17.8507 22.1429 16.7857C22.1429 15.7357 23.045 15.0107 24.055 15.0107C24.6872 15.0107 25.3122 15.2529 25.7143 15.7143L26.3614 15.505C25.9136 14.6843 24.955 14.2857 24.0543 14.2857C22.5907 14.2857 21.4286 15.3357 21.4286 16.7857C21.4286 18.2214 22.5736 19.2857 24.055 19.2857C25.0172 19.2857 25.9593 18.85 26.4286 17.9893L25.7143 17.8571ZM20 22.8571H19.2857V27.8571H20V22.8571ZM20 21.4286H19.2857V22.1429H20V21.4286ZM14.2857 21.4286H17.8572V22.1429H15V24.2857H17.1429V25H15V27.8571H14.2857V21.4286ZM27.8572 21.4286H27.1429V27.8571H27.8572V21.4286ZM31.0557 27.1393C32.0172 27.1393 32.8572 26.4057 32.8572 25.345C32.8572 24.2843 32.0172 23.5714 31.0557 23.5714C30.0943 23.5714 29.2857 24.2843 29.2857 25.345C29.2857 26.3907 30.0943 27.1393 31.0557 27.1393ZM30.9593 22.8571C31.6736 22.8571 32.4522 22.9786 32.8572 23.5714V21.4286H33.5714V27.8571H32.8572V26.9836C32.4486 27.5814 31.6822 27.8571 30.9593 27.8571C29.645 27.8571 28.5714 26.7964 28.5714 25.3293C28.5557 23.8786 29.6457 22.8571 30.9593 22.8571ZM23.2143 23.5821C24.1572 23.5821 24.89 24.275 25 25H21.4407C21.5664 24.29 22.2707 23.5821 23.2143 23.5821ZM24.7393 26.4286C24.3864 26.9129 23.8107 27.1314 23.2143 27.1314C22.3179 27.1314 21.5514 26.61 21.4407 25.7143H25.7143V25.3107C25.7143 23.9221 24.645 22.8571 23.2143 22.8571C21.7836 22.8571 20.7143 23.9071 20.7143 25.3571C20.7143 26.8071 21.7836 27.8571 23.2143 27.8571C24.12 27.8571 25.0029 27.4071 25.4464 26.6071L24.7393 26.4286Z" fill="black"/>
</g>
<defs>
<clipPath id="clip0_344_281">
<rect width="40" height="40" rx="20" fill="white"/>
</clipPath>
</defs>
</svg>
