<svg width="40" height="40" viewBox="0 0 40 40" fill="none" xmlns="http://www.w3.org/2000/svg">
<g clip-path="url(#clip0_312_2436)">
<path d="M0 0H40V40H0V0Z" fill="black"/>
<path d="M7.73845 12.3418C7.49345 14.3356 7.07947 20.0721 7.37517 27.1351C13.314 29.3813 19.4525 31.0588 25.7083 32.145C25.9533 30.7763 26.004 27.5659 25.8604 25.7073L14.8774 21.9055V13.9301C13.551 12.9923 9.34366 12.4854 7.73845 12.3418Z" fill="white"/>
<path d="M32.2769 27.0759C32.5135 25.0821 32.9106 19.3456 32.6318 12.2827C30.0888 11.2097 23.0174 8.70052 15.059 7.27273C14.8443 9.41222 14.8188 11.5665 14.9829 13.7105L25.9659 17.5123V25.4876C27.2332 26.4254 30.7393 26.9323 32.2769 27.0759Z" fill="white"/>
</g>
<defs>
<clipPath id="clip0_312_2436">
<rect width="40" height="40" rx="20" fill="white"/>
</clipPath>
</defs>
</svg>
