<svg width="40" height="40" viewBox="0 0 40 40" fill="none" xmlns="http://www.w3.org/2000/svg">
<g clip-path="url(#clip0_312_2433)">
<path d="M0 0H40V40H0V0Z" fill="#007AC9"/>
<path d="M6.36371 16.1528C6.36371 15.9346 6.65463 15.4691 7.87651 15.4545C8.08016 15.4545 8.50199 15.5855 8.50199 16.1528C8.50199 16.6837 8.0947 16.8437 7.87651 16.8364C7.38921 16.8364 6.40735 16.7128 6.36371 16.1528ZM7.33103 17.6801C7.17829 17.6219 6.81464 17.6001 6.57463 17.9856C6.28371 18.4656 5.4473 20.5748 5.45458 21.6439C5.46185 22.7203 6.00006 23.6513 7.33103 23.6513C8.72019 23.6513 11.7821 21.3094 12.924 20.0439L13.9932 22.0803C13.3822 22.1967 12.1385 22.6622 12.0513 23.6513C11.964 24.6404 12.8731 24.9023 13.3386 24.9095C13.9859 24.9241 15.2732 24.4295 15.2587 22.364C15.7678 22.1676 17.0697 21.5276 18.2552 20.4948C18.0879 21.0766 18.2552 22.364 19.7534 22.364C20.1607 22.364 21.0553 22.1676 21.8335 21.0548C21.979 21.4912 22.7354 22.364 24.5609 22.3131C25.0555 22.3131 26.4374 22.1094 27.9866 21.3021C29.9212 20.2984 31.4849 19.8911 32.4959 19.9202C32.6486 19.9202 33.1068 19.9638 33.6959 20.1384C34.2778 20.313 34.496 20.0148 34.5396 19.8111C34.5614 19.702 34.5396 19.3747 34.1614 19.1711C33.6525 18.8802 33.0746 18.7319 32.4886 18.742C31.8049 18.742 30.3794 18.9674 28.743 19.9275L28.5248 20.0511C27.0047 20.9384 25.8483 21.6221 24.2118 21.7167C23.6082 21.7603 22.4227 21.5348 22.4808 20.2766C22.4881 20.0802 22.5318 19.622 22.5754 19.3965C22.6263 19.1056 22.5172 18.9165 22.3208 18.9093C22.1754 18.8947 22.0008 18.9311 21.9281 19.2656C21.8335 19.702 21.3826 21.4257 20.008 21.4548C19.6589 21.4548 19.2225 21.3676 19.2807 20.6693C19.3534 19.782 20.2626 18.3856 22.1172 18.2256C22.2408 18.2256 22.4808 18.1747 22.4808 17.9347C22.4808 17.6801 22.2408 17.6437 22.1172 17.6583C21.4977 17.662 20.8863 17.7997 20.3251 18.0621C19.7639 18.3245 19.2662 18.7053 18.8661 19.1784C17.7752 20.4584 15.9569 21.4548 15.1859 21.7967C15.0187 21.3465 14.8143 20.9111 14.575 20.4948C14.3249 20.0654 14.092 19.6262 13.8768 19.1784C14.0586 19.0111 14.4223 18.5456 14.4223 18.0438C14.4223 17.4183 13.8768 17.2146 13.5713 17.2219C13.3095 17.2292 12.524 17.251 12.4149 18.4292C12.4076 18.6111 12.4367 19.0838 12.6549 19.5638C11.6221 20.6548 9.15657 22.8076 7.55649 22.6767C7.2583 22.684 6.66191 22.5167 6.68372 21.8258C6.71282 20.953 7.19284 19.3384 7.55649 18.4801C7.64377 18.291 7.73105 17.8692 7.33103 17.6801ZM13.6004 18.6838C13.4768 18.4001 13.3095 17.7383 13.7095 17.7383C13.9277 17.7383 14.1386 18.0874 13.6004 18.6838ZM12.9022 23.5349C13.0404 22.8804 13.8622 22.6476 14.255 22.6185C14.1968 23.3095 13.4695 23.7822 13.1568 23.7968C12.9022 23.8186 12.8804 23.6295 12.9022 23.5349Z" fill="white"/>
</g>
<defs>
<clipPath id="clip0_312_2433">
<rect width="40" height="40" rx="20" fill="white"/>
</clipPath>
</defs>
</svg>
