<svg width="40" height="40" viewBox="0 0 40 40" fill="none" xmlns="http://www.w3.org/2000/svg">
<g clip-path="url(#clip0_344_248)">
<path d="M0 0H40V40H0V0Z" fill="#005696"/>
<path d="M8.61857 20.88C8.88643 19.6372 9.16571 18.3914 9.42786 17.1429H10.7486C10.4786 18.42 10.1971 19.695 9.93786 20.975C9.87143 21.3114 9.95 21.6743 10.2893 21.8293C10.535 21.9414 10.7943 21.9736 11.0629 21.9386C11.7414 21.8507 12.03 21.2872 12.1686 20.6893C12.4429 19.5093 13.0029 17.1429 13.0029 17.1429H14.2964C14.0436 18.3807 13.7786 19.6164 13.5193 20.8529C13.3136 21.8322 12.78 22.6407 11.7443 22.8779C11.0121 23.0479 10.1679 23.0064 9.48714 22.6729C8.79429 22.33 8.45571 21.6164 8.61857 20.88ZM25.3686 20.1536C25.4071 20.1793 25.4307 20.1964 25.4564 20.2114C25.7136 20.3722 25.835 20.6029 25.8529 20.89C25.8957 21.5464 25.7171 22.1979 25.7979 22.8543C25.7979 22.8543 25.0193 22.8586 24.6386 22.8572C24.5157 22.8572 24.4564 22.8157 24.4464 22.695C24.4397 22.5962 24.4414 22.4971 24.4514 22.3986C24.4779 22.0843 24.7664 20.7143 24.2243 20.7143H22.5271L21.975 22.8586H20.7536L22.0214 17.1429C22.0214 17.1429 23.9757 17.135 24.9164 17.1429C25.1929 17.1443 25.47 17.1679 25.7307 17.2657C26.2607 17.4657 26.555 17.8414 26.6243 18.38C26.7307 19.2122 26.1664 19.7822 25.47 20.1043C25.44 20.1172 25.4114 20.1329 25.3693 20.1543L25.3686 20.1536ZM22.7686 19.6229C23.4179 19.7772 24.3343 19.805 24.9114 19.4729C25.2457 19.2764 25.3686 18.9722 25.3164 18.6129C25.2521 18.1679 24.785 18.1093 24.4364 18.1093C23.9936 18.1093 23.545 18.0957 23.1057 18.1543C22.9929 18.6414 22.8821 19.1293 22.7693 19.6229H22.7686ZM31.1186 22.8586H29.9564L29.71 21.77H27.8429L27.2557 22.8586H25.9679L29.0071 17.1457H30.0929C30.455 19.0457 31.1186 22.8586 31.1186 22.8586ZM29.3271 18.7122C29.0214 19.3229 28.3643 20.7143 28.3643 20.7143H29.6021L29.3271 18.7122ZM19.86 18.2143L18.8357 22.8572H17.5314L18.5357 18.2143H16.7257L16.98 17.1422H21.785L21.5457 18.2136L19.86 18.2143Z" fill="white"/>
<path d="M13.3764 22.8571L14.67 17.1429H15.9343L14.9029 21.7857H17.4864L17.2593 22.8586L13.3764 22.8571ZM9.13287 16.4286L9.72716 15H18.7772C19.1457 15 19.5486 14.8729 19.7386 14.55C19.9072 14.7857 19.9786 15 20.2957 15H30.2543L30.8664 16.4286H20.0086C19.7722 16.4286 19.6414 16.2343 19.5072 16.0693C19.3 16.3214 19.0922 16.4143 18.7693 16.4286H9.13287ZM10.1036 14.2857L11.0857 12.8571C13.8479 12.8571 16.5814 12.8586 19.3429 12.8571C19.7093 12.8571 19.9929 12.7693 20.1936 12.4429C20.4064 12.7621 20.6514 12.8571 21.0193 12.8571H28.9172C29.2029 13.225 29.8893 14.2857 29.8893 14.2857H20.4514C20.22 14.2857 20.0893 14.0971 19.9572 13.9364C19.805 14.1029 19.7014 14.2507 19.4593 14.2857C16.3986 14.2971 13.1643 14.2857 10.1036 14.2857ZM11.7057 12.1429C11.7057 12.1429 12.8929 11.0714 13.3372 10.7143C15.5322 10.7143 17.6314 10.7329 19.8264 10.7143C20.1607 10.7086 20.4236 10.6414 20.5957 10.3407C20.8143 10.6579 21.0193 10.7143 21.385 10.7143H26.6514C27.0907 11.08 28.2886 12.1429 28.2886 12.1429C28.2886 12.1429 23.3157 12.1407 20.9564 12.1429C20.6672 12.1429 20.525 11.8871 20.3572 11.685C20.1336 11.9536 19.895 12.1421 19.55 12.1421C17.0186 12.1443 11.7057 12.1429 11.7057 12.1429ZM25.4893 10H21.4072C21.1164 10 20.9664 9.84428 20.8 9.63785C20.6229 10 20.2286 10 19.88 10H14.4972C15.5643 9.43857 17.0164 8.89643 18.2064 8.71143C19.3901 8.52517 20.5955 8.52469 21.7793 8.71C22.9722 8.89643 24.4164 9.43857 25.4886 10H25.4893ZM9.72859 25L9.13716 23.5693H17.3486C17.7172 23.5693 18.12 23.4421 18.31 23.1193C18.4786 23.355 18.55 23.5693 18.8672 23.5693H30.8879L30.2607 24.9979H18.58C18.3436 24.9979 18.2129 24.8036 18.0786 24.6393C17.8714 24.8907 17.6636 24.9836 17.3407 24.9979C14.1643 24.9986 12.9057 25 9.72859 25ZM11.0772 27.1429L10.1286 25.7143C12.8907 25.7143 14.4336 25.7121 17.1957 25.7107C17.5622 25.7107 17.8457 25.6229 18.0457 25.2964C18.2586 25.6157 18.5043 25.7107 18.8714 25.7107C21.5043 25.7107 29.8879 25.7143 29.8879 25.7143L28.9343 27.1429C28.9343 27.1429 21.3386 27.1393 18.3043 27.1393C18.0729 27.1393 17.9422 26.95 17.8093 26.7893C17.6579 26.9564 17.5543 27.1043 17.3122 27.1393C14.2514 27.1507 14.1386 27.1429 11.0772 27.1429ZM13.3743 29.2893L11.7329 27.8607C13.9272 27.8607 14.79 27.88 16.985 27.8607C17.3193 27.855 17.5822 27.7879 17.7536 27.4871C17.9722 27.8043 18.1779 27.8607 18.5429 27.8607H28.2757L26.6257 29.2893C26.6257 29.2893 20.4743 29.2879 18.1143 29.2893C17.8257 29.2893 17.6829 29.0336 17.5157 28.8321C17.2922 29.1 17.0536 29.2893 16.7086 29.2893C14.1772 29.2907 13.3743 29.2893 13.3743 29.2893ZM14.4872 30H16.4486C16.7393 30 17.05 29.8036 17.1772 29.6C17.2293 29.905 17.6272 30 17.9757 30H25.5043C24.4379 30.5614 22.9822 31.1036 21.7929 31.2886C20.609 31.4749 19.4033 31.4754 18.2193 31.29C17.0264 31.1036 15.5586 30.5614 14.4872 30Z" fill="white"/>
</g>
<defs>
<clipPath id="clip0_344_248">
<rect width="40" height="40" rx="20" fill="white"/>
</clipPath>
</defs>
</svg>
