<svg width="40" height="40" viewBox="0 0 40 40" fill="none" xmlns="http://www.w3.org/2000/svg">
<g clip-path="url(#clip0_439_38)">
<path d="M0 0H40V40H0V0Z" fill="#0A3200"/>
<path d="M33.0435 18.8674C33.3435 17.8957 34.1196 17.55 35 17.6152V18.8935C33.6957 18.8218 33.0435 19.3891 33.0435 20.7978V23.4783H31.7391V17.6087H33.0435V18.8674Z" fill="white"/>
<path d="M31.087 22.3435C31.087 22.6761 31.0674 23.1457 31.087 23.4783H29.7826V22.6174C29.45 23.1391 28.8435 23.4783 27.9043 23.4783C26.7109 23.4783 25.8696 22.7804 25.8696 21.8087C25.8696 20.837 26.6717 20.2826 27.9696 20.0804L29.0783 19.9174C29.4957 19.8522 29.7826 19.6631 29.7826 19.3565C29.7826 18.8739 29.2739 18.5413 28.6674 18.5413C27.963 18.5413 27.5326 19.0239 27.4804 19.5652H26.15C26.1826 18.4631 27.1739 17.6087 28.6739 17.6087C30.1152 17.6087 31.087 18.3326 31.087 19.5783V22.3435ZM29.1435 20.7717L28.2957 20.9283C27.6435 21.0587 27.3044 21.3261 27.3044 21.7631C27.3044 22.2391 27.7217 22.5326 28.3283 22.5326C29.1435 22.5326 29.7826 22.0239 29.7826 21.2674V20.5174C29.5841 20.6349 29.3685 20.7207 29.1435 20.7717Z" fill="white"/>
<path d="M25.5435 20.4457C25.5435 22.1022 24.487 23.2826 23.0457 23.2826C22.6949 23.3009 22.346 23.2209 22.0383 23.0515C21.7307 22.8821 21.4764 22.6301 21.3043 22.3239V25.4348H20V17.6087H21.3043V18.6065C21.4636 18.2926 21.7103 18.0313 22.0146 17.8543C22.3189 17.6773 22.6679 17.592 23.0196 17.6087C24.513 17.6087 25.5435 18.7631 25.5435 20.4457ZM24.2196 20.4457C24.2196 19.3565 23.6196 18.6391 22.7065 18.6391C21.8065 18.6391 21.3043 19.3565 21.3043 20.4457C21.3043 21.5348 21.8 22.2717 22.7065 22.2717C23.6196 22.2652 24.2196 21.5348 24.2196 20.4457Z" fill="white"/>
<path d="M19.3478 17.6087H18.0435V23.4783H19.3478V17.6087ZM19.6739 15.9783C19.6739 16.2377 19.5709 16.4865 19.3874 16.67C19.2039 16.8535 18.9551 16.9565 18.6957 16.9565C18.4362 16.9565 18.1874 16.8535 18.0039 16.67C17.8205 16.4865 17.7174 16.2377 17.7174 15.9783C17.7174 15.7188 17.8205 15.47 18.0039 15.2865C18.1874 15.1031 18.4362 15 18.6957 15C18.9551 15 19.2039 15.1031 19.3874 15.2865C19.5709 15.47 19.6739 15.7188 19.6739 15.9783Z" fill="white"/>
<path d="M17.3913 19.9369V23.4783H16.0869V20.1522C16.0869 19.2456 15.5978 18.6978 14.8348 18.6978C14.0391 18.6978 13.4782 19.3174 13.4782 20.263V23.4783H12.1739V17.6087H13.4782V18.6848C13.6418 18.3489 13.8999 18.0682 14.2208 17.877C14.5418 17.6858 14.9116 17.5926 15.2848 17.6087C16.5174 17.6087 17.3913 18.4696 17.3913 19.9369Z" fill="white"/>
<path d="M8.52174 23.4783C6.88478 23.4783 5.65217 22.0435 5.65217 20.2826V18.0913C5.65217 16.637 5 16.037 5 16.037L5.86087 15C5.96522 15.0913 6.95652 15.9978 6.95652 18.0913V20.2761C6.95652 21.2739 7.59565 22.1739 8.52826 22.1739C9.46087 22.1739 10.2174 21.2739 10.2174 20.2826V15H11.5217V20.2826C11.5217 22.0435 10.1783 23.4783 8.52174 23.4783Z" fill="white"/>
</g>
<defs>
<clipPath id="clip0_439_38">
<rect width="40" height="40" rx="20" fill="white"/>
</clipPath>
</defs>
</svg>
