<svg width="40" height="40" viewBox="0 0 40 40" fill="none" xmlns="http://www.w3.org/2000/svg">
<g clip-path="url(#clip0_344_288)">
<path d="M0 0H40V40H0V0Z" fill="#008FFF"/>
<path d="M29.0629 9.28714C28.5879 9.28714 27.3322 9.89142 26.2557 10.9893C25.1765 12.0871 24.2857 13.3557 24.2857 15.3086V22.4536C24.2857 25.3279 22.7343 26.4286 20 26.4286C17.2679 26.4286 15.7143 25.3279 15.7143 22.4529V15.3079C15.7143 13.3543 15.1215 12.0879 14.0465 10.9886C12.9715 9.88857 11.42 9.28571 10.945 9.28571C10.9142 9.28364 10.8832 9.28832 10.8544 9.29942C10.8255 9.31052 10.7994 9.32778 10.7779 9.35C10.7562 9.37227 10.7394 9.39883 10.7285 9.42799C10.7177 9.45714 10.7131 9.48824 10.715 9.51928V22.9229C10.7143 28.74 15.6572 30.7143 19.9957 30.7143C24.3407 30.7143 29.2857 28.74 29.2857 22.9236V9.52142C29.2875 9.49107 29.2831 9.46067 29.2728 9.43207C29.2625 9.40346 29.2465 9.37724 29.2257 9.355C29.2049 9.33307 29.1797 9.31576 29.1518 9.30419C29.1239 9.29262 29.0938 9.28706 29.0636 9.28785L29.0629 9.28714Z" fill="white"/>
</g>
<defs>
<clipPath id="clip0_344_288">
<rect width="40" height="40" rx="20" fill="white"/>
</clipPath>
</defs>
</svg>
