<svg width="40" height="40" viewBox="0 0 40 40" fill="none" xmlns="http://www.w3.org/2000/svg">
<g clip-path="url(#clip0_344_265)">
<path d="M0 0H40V40H0V0Z" fill="#00939A"/>
<path d="M30.8886 18.4307C27.2857 20.8786 23.95 20.6143 20.8807 17.6393C27.1015 15.4821 30.3786 12.1486 33.5715 15.0071L31.2029 18.0736H31.1993V18.0779H31.195V18.0836H31.1872V18.085H31.1857C31.1836 18.085 31.1843 18.0871 31.1822 18.0871V18.09H31.1807V18.0929H31.1793L31.1786 18.0943C31.1786 18.0957 31.1765 18.0957 31.1765 18.0971L31.1757 18.0986C31.1715 18.0986 31.1679 18.105 31.1657 18.105L31.165 18.1079L31.1622 18.1107L31.1579 18.1136V18.115C31.1579 18.1179 31.1507 18.1243 31.1486 18.1257V18.1271H31.1472V18.1343H31.1457V18.1364H31.1443V18.1386L31.1422 18.1393L31.1386 18.1414C31.1372 18.1429 31.1365 18.1436 31.1365 18.1464L31.135 18.1479L31.1286 18.15L31.1272 18.1521C31.1158 18.1635 31.1053 18.1757 31.0957 18.1886L31.0943 18.19C31.0943 18.1929 31.09 18.1964 31.09 18.2V18.2021C31.0857 18.2036 31.0765 18.2121 31.0722 18.2121V18.2143C31.0629 18.2179 31.0557 18.2257 31.045 18.2286V18.23H31.0422V18.2314H31.04L31.0386 18.2343L31.0343 18.2357V18.2371L31.0272 18.2407V18.2436H31.025C31.0206 18.2472 31.0158 18.251 31.0107 18.2536L31.0043 18.2607H31.0029V18.2621L31.0007 18.2657L30.9979 18.2664C30.9979 18.3221 30.9107 18.3429 30.9107 18.3793H30.9093C30.9093 18.3829 30.8993 18.3914 30.8993 18.3964H30.8979C30.8965 18.3979 30.8915 18.4036 30.8915 18.405H30.89C30.8857 18.4086 30.8886 18.4264 30.8886 18.4314V18.4307Z" fill="#ECB833"/>
<path d="M31.2093 18.0671C21.8114 25.7643 18.1264 7.55643 6.42859 14.4471L19.61 31.4286" fill="white"/>
</g>
<defs>
<clipPath id="clip0_344_265">
<rect width="40" height="40" rx="20" fill="white"/>
</clipPath>
</defs>
</svg>
