<svg width="40" height="40" viewBox="0 0 40 40" fill="none" xmlns="http://www.w3.org/2000/svg">
<g clip-path="url(#clip0_344_242)">
<path d="M0 0H40V40H0V0Z" fill="#004415"/>
<path fill-rule="evenodd" clip-rule="evenodd" d="M2.85712 17.1429H4.28569L3.92855 22.8571L7.49997 14.2857H10.7143L8.21426 25.7143L12.1428 17.1429H14.2857V23.5714H12.5L13.2143 17.8571L9.64283 26.4286H6.42854L8.92854 15L4.99997 23.5714H2.85712V17.1429ZM16.4285 17.1429H17.8571L17.5 22.3586L20 17.1429H21.4285L18.5714 23.5714H16.4285V17.1429ZM37.1428 23.5714H35.7143L36.0714 18.3557L33.5714 23.5714H32.1428L35 17.1429H37.1428V23.5714ZM21.7857 17.1429H23.5714L21.7857 23.5714H20L21.7857 17.1429ZM24.2857 17.1429H26.595C26.595 17.1429 28.2243 17.1957 28.2243 18.5657C28.2243 19.9621 26.7071 20.2514 26.7071 20.2514C26.7071 20.2514 27.6621 20.4629 27.6621 21.7536C27.6621 23.0443 26.4285 23.5714 25 23.5714H22.8571L24.2857 17.1429ZM25.7143 18.2143L25.4143 19.7514C25.4143 19.7514 26.6228 19.8157 26.6228 18.9343C26.6228 18.0229 25.7143 18.2143 25.7143 18.2143ZM24.7471 22.5171L25 20.99C25 20.99 25.9557 20.805 25.9557 21.7014C25.9557 22.5821 24.7471 22.5171 24.7471 22.5171ZM31.2164 17.1429H29.2857L27.8571 23.5714H29.2857L30 20.7143H30.37C31.0714 20.7143 30.3443 23.5714 30.3443 23.5714H31.835C31.835 23.5714 32.04 22.07 32.1428 21.3057C32.1428 20.3571 31.4285 20.2257 31.4285 20.2257C31.4285 20.2257 32.8571 19.6986 32.8571 18.4071C32.8571 17.1164 31.2164 17.1429 31.2164 17.1429ZM30.2164 19.6986L30.5543 18.17C30.5543 18.17 31.4285 18.0021 31.4285 18.8814C31.4285 19.76 30.2164 19.6986 30.2164 19.6986Z" fill="#F0F3FA"/>
</g>
<defs>
<clipPath id="clip0_344_242">
<rect width="40" height="40" rx="20" fill="white"/>
</clipPath>
</defs>
</svg>
