<svg width="40" height="40" viewBox="0 0 40 40" fill="none" xmlns="http://www.w3.org/2000/svg">
<g clip-path="url(#clip0_388_2)">
<path d="M0 20C0 8.95431 8.95431 0 20 0C31.0457 0 40 8.95431 40 20C40 31.0457 31.0457 40 20 40C8.95431 40 0 31.0457 0 20Z" fill="#FFA67D"/>
<path fill-rule="evenodd" clip-rule="evenodd" d="M12.8571 23.5714H9.53997V23.3864C10.3235 23.3864 10.7143 23.17 10.7143 22.7364V17.9586C10.7143 17.5386 10.3235 17.3279 9.53997 17.3279V17.1429H12.8571V17.3279C12.0735 17.3279 11.7857 17.5379 11.7857 17.9586V22.7364C11.7857 23.17 12.0735 23.3864 12.8571 23.3864V23.5714ZM9.28569 17.3236C8.93355 17.3236 8.65997 17.5707 8.46426 18.065L6.42854 23.5714H6.0714L3.72569 18.0371C3.5114 17.5614 3.22212 17.3236 2.85712 17.3236V17.1429H5.35712V17.3236C4.89783 17.3236 4.50355 17.4607 4.7264 17.9607L6.42854 22.1429L7.9264 18.2364C8.09426 17.815 8.08712 17.3236 7.49997 17.3236V17.1429H9.28569V17.3236ZM19.2857 17.3236C18.9335 17.3236 18.66 17.5707 18.4643 18.065L16.4285 23.5714H16.0714L13.7257 18.0371C13.5114 17.5614 13.2221 17.3236 12.8571 17.3236V17.1429H15.3571V17.3236C14.8978 17.3236 14.5035 17.4607 14.7264 17.9607L16.4285 22.1429L17.9264 18.2364C18.0943 17.815 18.0871 17.3236 17.5 17.3236V17.1429H19.2857V17.3236ZM17.8571 23.3907C18.2093 23.3907 18.4828 23.1436 18.6785 22.6493L20.7143 17.1429H21.0714L23.4171 22.6771C23.6314 23.1529 23.9207 23.3907 24.2857 23.3907V23.5714H21.7857V23.3907C22.245 23.3907 22.6393 23.2529 22.4164 22.7536L20.7143 18.5714L19.2164 22.4779C19.0485 22.8993 19.0557 23.3907 19.6428 23.3907V23.5714H17.8571V23.3907ZM30.7143 23.3907C31.0664 23.3907 31.34 23.1436 31.5357 22.6493L33.5714 17.1429H33.9285L36.2743 22.6771C36.4885 23.1529 36.7778 23.3907 37.1428 23.3907V23.5714H34.6428V23.3907C35.1021 23.3907 35.4964 23.2529 35.2735 22.7536L33.5714 18.5714L32.0735 22.4779C31.9057 22.8993 31.9128 23.3907 32.5 23.3907V23.5714H30.7143V23.3907ZM30.7143 23.5714H28.9285L26.4285 20C27.7493 19.9436 28.5714 19.7236 28.5714 18.8907C28.5714 17.9714 27.8971 17.5121 26.7835 17.5121C26.5393 17.5121 26.0714 17.515 26.0714 17.8707V22.785C26.0714 23.185 26.5521 23.3871 27.1428 23.3871V23.5714H24.2857V23.3871C24.8685 23.3871 25 23.17 25 22.7364V17.9586C25 17.5164 24.6985 17.3271 24.2857 17.3271V17.1429H27.1321C28.2393 17.1429 29.6428 17.5286 29.6428 18.8614C29.6443 19.7421 29.0585 20.0579 27.8571 20.2586C28.4735 21.0264 29.555 23.3871 30.7143 23.3871V23.5714Z" fill="#333333"/>
</g>
<defs>
<clipPath id="clip0_388_2">
<rect width="40" height="40" fill="white"/>
</clipPath>
</defs>
</svg>
