<svg width="40" height="40" viewBox="0 0 40 40" fill="none" xmlns="http://www.w3.org/2000/svg">
<g clip-path="url(#clip0_344_320)">
<path d="M0 0H40V40H0V0Z" fill="#0166FF"/>
<path d="M12.8571 17.1429C13.6149 17.1429 14.3416 16.8418 14.8774 16.306C15.4133 15.7702 15.7143 15.0435 15.7143 14.2857C15.7143 13.528 15.4133 12.8012 14.8774 12.2654C14.3416 11.7296 13.6149 11.4286 12.8571 11.4286C12.0994 11.4286 11.3727 11.7296 10.8368 12.2654C10.301 12.8012 10 13.528 10 14.2857C10 15.0435 10.301 15.7702 10.8368 16.306C11.3727 16.8418 12.0994 17.1429 12.8571 17.1429ZM20 17.1429C20.7578 17.1429 21.4845 16.8418 22.0203 16.306C22.5561 15.7702 22.8571 15.0435 22.8571 14.2857C22.8571 13.528 22.5561 12.8012 22.0203 12.2654C21.4845 11.7296 20.7578 11.4286 20 11.4286C19.2422 11.4286 18.5155 11.7296 17.9797 12.2654C17.4439 12.8012 17.1429 13.528 17.1429 14.2857C17.1429 15.0435 17.4439 15.7702 17.9797 16.306C18.5155 16.8418 19.2422 17.1429 20 17.1429ZM30 14.2857C30 15.0435 29.699 15.7702 29.1632 16.306C28.6273 16.8418 27.9006 17.1429 27.1429 17.1429C26.3851 17.1429 25.6584 16.8418 25.1226 16.306C24.5867 15.7702 24.2857 15.0435 24.2857 14.2857C24.2857 13.528 24.5867 12.8012 25.1226 12.2654C25.6584 11.7296 26.3851 11.4286 27.1429 11.4286C27.9006 11.4286 28.6273 11.7296 29.1632 12.2654C29.699 12.8012 30 13.528 30 14.2857ZM20 24.2857C20.7578 24.2857 21.4845 23.9847 22.0203 23.4489C22.5561 22.9131 22.8571 22.1863 22.8571 21.4286C22.8571 20.6708 22.5561 19.9441 22.0203 19.4083C21.4845 18.8725 20.7578 18.5714 20 18.5714C19.2422 18.5714 18.5155 18.8725 17.9797 19.4083C17.4439 19.9441 17.1429 20.6708 17.1429 21.4286C17.1429 22.1863 17.4439 22.9131 17.9797 23.4489C18.5155 23.9847 19.2422 24.2857 20 24.2857ZM22.8571 28.5714C22.8571 29.3292 22.5561 30.0559 22.0203 30.5917C21.4845 31.1276 20.7578 31.4286 20 31.4286C19.2422 31.4286 18.5155 31.1276 17.9797 30.5917C17.4439 30.0559 17.1429 29.3292 17.1429 28.5714C17.1429 27.8137 17.4439 27.0869 17.9797 26.5511C18.5155 26.0153 19.2422 25.7143 20 25.7143C20.7578 25.7143 21.4845 26.0153 22.0203 26.5511C22.5561 27.0869 22.8571 27.8137 22.8571 28.5714Z" fill="white"/>
</g>
<defs>
<clipPath id="clip0_344_320">
<rect width="40" height="40" rx="20" fill="white"/>
</clipPath>
</defs>
</svg>
