<svg width="40" height="40" viewBox="0 0 40 40" fill="none" xmlns="http://www.w3.org/2000/svg">
<g clip-path="url(#clip0_344_231)">
<path d="M0 0H40V40H0V0Z" fill="#005DA4"/>
<path d="M7.24 11.4286H7.14285V25H16.4286V15H14.2857V22.8571H12.8571V15H10.7143V22.8571H9.28571V13.5714H32.8557V11.4286H7.24ZM25.7143 15V25H30.7143V26.4286H7.14285V28.5714H32.8571V15H25.7143ZM27.8571 17.1429H30.7143V22.8571H27.8571V17.1429ZM17.8571 25V15H24.2857V21.4286H20V22.8571H24.2857V25H17.8571ZM22.1429 17.1429H20V19.2857H22.1429V17.1429Z" fill="white"/>
</g>
<defs>
<clipPath id="clip0_344_231">
<rect width="40" height="40" rx="20" fill="white"/>
</clipPath>
</defs>
</svg>
