<svg width="40" height="40" viewBox="0 0 40 40" fill="none" xmlns="http://www.w3.org/2000/svg">
<g clip-path="url(#clip0_312_2472)">
<path d="M0 18C0 8.05888 8.05888 0 18 0H22C31.9411 0 40 8.05888 40 18V22C40 31.9411 31.9411 40 22 40H18C8.05888 40 0 31.9411 0 22V18Z" fill="#0B385C"/>
<path d="M12.1428 17.1429L10.3571 22.8571H9.64285L8.21428 18.5714L6.78571 22.8571H5.99713L4.28571 17.1429H4.99999L6.42856 21.4286L7.85713 17.1429H8.57142L9.99999 21.4286L11.4286 17.1429H12.1428ZM12.8678 17.2129L13.5821 17.1429L13.5714 18.8021C14.0314 18.6414 14.205 18.5714 14.6428 18.5714C15.4314 18.5714 15.7143 18.8929 15.7143 20.1379V22.8571H15V20.2086C15 19.4657 14.5878 19.2857 14.1286 19.2857C13.8428 19.2857 13.8121 19.3457 13.5714 19.4064V22.8571H12.8571V17.2129H12.8678ZM16.4286 18.5714H17.1428V22.8571H16.4286V18.5714ZM17.1428 17.5C17.1428 17.3121 17.095 17.1429 16.7828 17.1429C16.4764 17.1429 16.4221 17.3121 16.4293 17.5C16.4293 17.6879 16.4836 17.8571 16.7828 17.8571C17.075 17.8571 17.1428 17.6879 17.1428 17.5ZM18.4886 18.5714L18.5714 18.9764H18.6336C18.8714 18.7636 19.3064 18.5714 19.8036 18.5714C19.8657 18.5714 19.9278 18.5714 20 18.5821V19.5093C19.8343 19.4879 19.6586 19.4564 19.4828 19.4564C19.2343 19.4564 18.8093 19.5207 18.5714 19.6271V22.8571H17.8571V18.5714H18.4886ZM20.7143 22.8571V17.2129L21.4286 17.1429V22.8571H20.7143ZM28.2393 18.5714C29.5143 18.5714 30 19.345 30 20.725C30 22.0207 29.545 22.8571 28.2193 22.8571C26.8943 22.8571 26.4286 22.0107 26.4286 20.725C26.4386 19.345 26.9643 18.5714 28.2393 18.5714ZM29.2857 20.725C29.2857 19.9407 28.9678 19.2857 28.25 19.2857C27.5214 19.2857 27.1428 19.92 27.1428 20.725C27.1428 21.4771 27.4907 22.1429 28.2093 22.1429C28.9271 22.1429 29.2857 21.5086 29.2857 20.725ZM32.525 18.5714C33.8 18.5714 34.2857 19.345 34.2857 20.725C34.2857 22.0207 33.8307 22.8571 32.505 22.8571C31.18 22.8571 30.7143 22.0107 30.7143 20.725C30.7243 19.345 31.25 18.5714 32.525 18.5714ZM33.5714 20.725C33.5714 19.9407 33.2536 19.2857 32.5357 19.2857C31.8071 19.2857 31.4286 19.92 31.4286 20.725C31.4286 21.4771 31.7764 22.1429 32.495 22.1429C33.2128 22.1429 33.5714 21.5086 33.5714 20.725ZM35 22.8571V17.2129L35.7143 17.1429V22.8571H35ZM22.1428 18.5714H22.6229L22.7078 18.9514C22.9957 18.7886 23.7528 18.5714 24.2221 18.5714C25.0857 18.5714 25.3571 19.2121 25.3571 20.7429C25.3571 21.7857 25.0536 22.5 23.945 22.5C23.5393 22.5 22.8571 22.4129 22.8571 22.4129V24.8914L22.1428 25V18.5714ZM23.795 21.7857C24.3814 21.7857 24.6428 21.0714 24.6428 20.5914C24.6428 19.7336 24.4243 19.2857 23.8057 19.2857C23.5607 19.2857 23.0807 19.3336 22.8571 19.4093V21.7857H23.795Z" fill="#F0F3FA"/>
<path d="M26.2143 16.0543C26.0443 15.8314 25.775 15.7214 25.4271 15.7143C24.4878 15.6957 23.0571 16.4271 21.4286 17.6964V18.1371C22.9443 16.92 24.2478 16.3957 25.0271 16.4286C25.4236 16.445 25.7114 16.5179 25.7143 16.945C25.7214 18.0636 24.4978 20.5807 22.3428 22.6771C20.2786 24.6871 17.9586 25.7657 16.9321 25.7136C16.4093 25.6871 16.4378 25.3129 16.4286 24.8357C16.4143 24.14 16.6064 23.2264 16.8271 22.8571H16.4286C15.9193 23.71 15.7178 24.5029 15.7143 25.1214C15.7107 25.84 15.9728 26.4093 16.6843 26.4279C17.9471 26.4607 20.49 25.4021 22.7328 23.2136C25.0128 20.99 26.385 18.385 26.4286 16.9114C26.4393 16.5507 26.3686 16.2571 26.2143 16.0543Z" fill="#EDB700"/>
</g>
<defs>
<clipPath id="clip0_312_2472">
<rect width="40" height="40" rx="20" fill="white"/>
</clipPath>
</defs>
</svg>
