<svg width="40" height="40" viewBox="0 0 40 40" fill="none" xmlns="http://www.w3.org/2000/svg">
<g clip-path="url(#clip0_442_2)">
<path d="M0 0H40V40H0V0Z" fill="#FF8200"/>
<path fill-rule="evenodd" clip-rule="evenodd" d="M34.3492 19.3016C35.2609 19.3016 36 18.5625 36 17.6508C36 16.7391 35.2609 16 34.3492 16C33.4375 16 32.6984 16.7391 32.6984 17.6508C32.6984 18.5625 33.4375 19.3016 34.3492 19.3016ZM34.3492 18.5397C34.8401 18.5397 35.2381 18.1417 35.2381 17.6508C35.2381 17.1599 34.8401 16.7619 34.3492 16.7619C33.8583 16.7619 33.4603 17.1599 33.4603 17.6508C33.4603 18.1417 33.8583 18.5397 34.3492 18.5397Z" fill="white"/>
<path d="M31.294 18.1213C31.137 18.3725 30.8579 18.5397 30.5397 18.5397C30.0488 18.5397 29.6508 18.1417 29.6508 17.6508C29.6508 17.1599 30.0488 16.7619 30.5397 16.7619C30.9317 16.7619 31.2644 17.0156 31.3826 17.3678L32.0092 16.8979C31.7355 16.3648 31.1802 16 30.5397 16C29.628 16 28.8889 16.7391 28.8889 17.6508C28.8889 18.5625 29.628 19.3016 30.5397 19.3016C31.1071 19.3016 31.6076 19.0153 31.9048 18.5794L31.294 18.1213Z" fill="#FEFEFE"/>
<path d="M27.1014 25.8628L21.4919 29.2063V26.8953L26.0459 24.2361L22.3002 22.3152C22.0506 22.174 21.8438 21.9684 21.7016 21.7202C21.5594 21.472 21.4869 21.1902 21.4919 20.9045C21.4919 20.2022 21.9081 19.764 22.2459 19.5299L24.8878 17.8011H21.4919V16.0003H26.7757C27.2401 16.0003 28.1268 16.2644 28.1268 17.1228C28.1268 17.8251 27.7046 18.2633 27.3427 18.4794L23.6392 20.7545L27.21 22.6933C27.6322 22.9515 28.1389 23.4797 28.1268 24.3021C28.1147 25.1245 27.4332 25.6407 27.1014 25.8628Z" fill="white"/>
<path d="M18.4761 16.0003H20.2856V22.6033H18.4761V16.0003Z" fill="white"/>
<path d="M7.35965 21.7389L4 16.0003H6.3222L8.92789 20.5504L10.9184 16.8287C11.0575 16.5735 11.2645 16.3613 11.5165 16.2152C11.7686 16.0692 12.0562 15.9948 12.3479 16.0003C13.0536 16.0003 13.4939 16.4265 13.7291 16.7686L15.4602 19.1877V16.0003H17.2697V21.2707C17.2697 21.6429 17.0104 22.6033 16.1418 22.6033C15.8697 22.6015 15.6023 22.5319 15.3642 22.4009C15.1261 22.2698 14.9248 22.0814 14.7786 21.853L12.2875 18.1133L10.4177 21.7389C10.2644 22.0071 10.0411 22.229 9.77137 22.3812C9.50167 22.5334 9.19563 22.6101 8.88567 22.6033C8.57884 22.5983 8.27822 22.5165 8.01152 22.3654C7.74482 22.2144 7.52064 21.9989 7.35965 21.7389Z" fill="white"/>
</g>
<defs>
<clipPath id="clip0_442_2">
<rect width="40" height="40" rx="20" fill="white"/>
</clipPath>
</defs>
</svg>
